<svg width="56" height="56" viewBox="0 0 56 56" fill="none" xmlns="http://www.w3.org/2000/svg">
<path d="M45.1262 10.8736C55.0882 20.8356 55.0882 36.9876 45.1262 46.9496C35.1642 56.9116 19.0121 56.9116 9.05014 46.9496C-0.911835 36.9876 -0.911835 20.8356 9.05014 10.8736C19.0155 0.911605 35.1642 0.911605 45.1262 10.8736ZM15.1858 18.7064V33.1375C15.1858 33.5886 15.365 34.0211 15.6839 34.34C16.0028 34.6589 16.4354 34.8381 16.8864 34.8381C17.3374 34.8381 17.77 34.6589 18.0889 34.34C18.4078 34.0211 18.587 33.5886 18.587 33.1375V22.8116L37.3273 41.552C37.6481 41.8618 38.0776 42.0332 38.5235 42.0293C38.9694 42.0254 39.3959 41.8466 39.7112 41.5313C40.0265 41.216 40.2054 40.7894 40.2093 40.3436C40.2131 39.8977 40.0417 39.4681 39.7319 39.1474L20.9916 20.407H31.3175C31.7685 20.407 32.2011 20.2278 32.52 19.9089C32.8389 19.59 33.0181 19.1575 33.0181 18.7064C33.0181 18.2554 32.8389 17.8229 32.52 17.5039C32.2011 17.185 31.7685 17.0059 31.3175 17.0059H16.8864C16.4354 17.0059 16.0028 17.185 15.6839 17.5039C15.365 17.8229 15.1858 18.2554 15.1858 18.7064Z" fill="white"/>
</svg>
