<svg width="41" height="41" viewBox="0 0 41 41" fill="none" xmlns="http://www.w3.org/2000/svg">
<path d="M22.209 29.25L22.209 15.5C22.2112 13.5116 23.0021 11.6052 24.4082 10.1992C25.8142 8.79315 27.7206 8.00225 29.709 8C30.0405 8 30.3584 8.1317 30.5929 8.36612C30.8273 8.60054 30.959 8.91848 30.959 9.25C30.959 9.58152 30.8273 9.89947 30.5929 10.1339C30.3584 10.3683 30.0405 10.5 29.709 10.5C28.3834 10.5015 27.1125 11.0288 26.1751 11.9661C25.2377 12.9035 24.7105 14.1744 24.709 15.5L24.709 16.75L34.084 16.75C34.7468 16.7508 35.3822 17.0144 35.8509 17.4831C36.3196 17.9517 36.5832 18.5872 36.584 19.25L36.584 29.25C36.5832 29.9128 36.3196 30.5483 35.8509 31.0169C35.3822 31.4856 34.7468 31.7492 34.084 31.75L24.709 31.75C24.0462 31.7492 23.4107 31.4856 22.9421 31.0169C22.4734 30.5483 22.2097 29.9128 22.209 29.25ZM6.58398 31.75L15.959 31.75C16.6218 31.7492 17.2572 31.4856 17.7259 31.0169C18.1946 30.5483 18.4582 29.9128 18.459 29.25L18.459 19.25C18.4582 18.5872 18.1946 17.9517 17.7259 17.4831C17.2572 17.0144 16.6218 16.7508 15.959 16.75L6.58398 16.75L6.58398 15.5C6.58547 14.1744 7.11273 12.9035 8.05009 11.9661C8.98745 11.0287 10.2584 10.5015 11.584 10.5C11.9155 10.5 12.2334 10.3683 12.4679 10.1339C12.7023 9.89946 12.834 9.58152 12.834 9.25C12.834 8.91848 12.7023 8.60054 12.4679 8.36612C12.2334 8.1317 11.9155 8 11.584 8C9.59555 8.00225 7.6892 8.79315 6.28316 10.1992C4.87713 11.6052 4.08623 13.5116 4.08398 15.5L4.08398 29.25C4.08474 29.9128 4.34837 30.5483 4.81705 31.0169C5.28573 31.4856 5.92117 31.7492 6.58398 31.75Z" fill="#9F56FF"/>
</svg>
