<svg width="120" height="120" viewBox="0 0 120 120" fill="none" xmlns="http://www.w3.org/2000/svg">
<path d="M0 60C0 26.8629 26.8629 0 60 0C93.1371 0 120 26.8629 120 60C120 93.1371 93.1371 120 60 120H0V60Z" fill="#EDF6FD"/>
<g clip-path="url(#clip0_98_796)">
<path d="M47.8933 65.3876C47.813 65.2404 47.6982 65.1278 47.5489 65.0496C47.3996 64.9714 47.2235 64.9327 47.0214 64.9327C46.6714 64.9327 46.3918 65.0475 46.1812 65.2771C45.9706 65.5067 45.865 65.813 45.865 66.1968C45.865 66.6053 45.9756 66.925 46.1967 67.1539C46.4178 67.3835 46.7221 67.4983 47.1101 67.4983C47.3756 67.4983 47.5996 67.4307 47.7834 67.2962C47.9665 67.1617 48.1003 66.9673 48.1848 66.7145H46.8136V65.9179H49.1645V66.9229C49.0842 67.1927 48.9483 67.4434 48.7567 67.6751C48.5651 67.9068 48.3215 68.0941 48.0271 68.2378C47.732 68.3808 47.3996 68.4526 47.0284 68.4526C46.5904 68.4526 46.1995 68.3568 45.8558 68.1653C45.5121 67.9737 45.2445 67.7068 45.053 67.3659C44.8614 67.0244 44.7656 66.6349 44.7656 66.1968C44.7656 65.7588 44.8614 65.3679 45.053 65.0242C45.2445 64.6806 45.5114 64.4136 45.8523 64.2214C46.1939 64.0298 46.5833 63.934 47.0214 63.934C47.5524 63.934 47.9996 64.0629 48.3644 64.3193C48.7285 64.5763 48.9701 64.932 49.0877 65.3876H47.8933ZM51.3188 65.0242C51.5083 64.913 51.7189 64.8566 51.9506 64.8566V66.0003H51.6534C51.3836 66.0003 51.1815 66.0581 51.047 66.1743C50.9118 66.2905 50.8449 66.4933 50.8449 66.7842V68.4209H49.7645V64.8946H50.8449V65.4827C50.9709 65.289 51.1294 65.1362 51.3188 65.0242ZM53.1422 68.2505C52.8661 68.1033 52.6492 67.8927 52.4914 67.6188C52.3337 67.3448 52.2541 67.0243 52.2541 66.6581C52.2541 66.2919 52.3344 65.9764 52.4942 65.701C52.6541 65.425 52.8731 65.2137 53.1513 65.0658C53.4295 64.9186 53.7408 64.8446 54.0866 64.8446C54.4324 64.8446 54.7437 64.9186 55.0219 65.0658C55.3 65.213 55.5191 65.425 55.6789 65.701C55.8388 65.9771 55.9191 66.2961 55.9191 66.6581C55.9191 67.0201 55.8381 67.3399 55.6761 67.6159C55.5141 67.892 55.293 68.1033 55.0127 68.2512C54.7324 68.3984 54.4197 68.4723 54.0739 68.4723C53.7281 68.4723 53.4175 68.3984 53.1415 68.2512L53.1422 68.2505ZM54.6021 67.3089C54.7472 67.1575 54.8204 66.9405 54.8204 66.6581C54.8204 66.3757 54.75 66.1588 54.6085 66.0074C54.4676 65.856 54.2936 65.7799 54.0873 65.7799C53.8809 65.7799 53.7021 65.8546 53.5626 66.0046C53.4239 66.1539 53.3542 66.3722 53.3542 66.6588C53.3542 66.9455 53.4225 67.1582 53.5598 67.3096C53.6964 67.461 53.8683 67.5371 54.0746 67.5371C54.281 67.5371 54.457 67.461 54.6021 67.3096V67.3089ZM61.5568 64.8946L60.6025 68.4209H59.408L58.8517 66.1335L58.2763 68.4209H57.0882L56.1276 64.8946H57.2079L57.7072 67.4159L58.3009 64.8946H59.4447L60.0447 67.4032L60.5377 64.8946H61.5553H61.5568ZM67.1493 63.9847V68.4209H66.0683V66.5947H64.3872V68.4209H63.3069V63.9847H64.3872V65.7229H66.0683V63.9847H67.1493ZM68.0057 64.3608C67.8853 64.2495 67.8254 64.1115 67.8254 63.9467C67.8254 63.7819 67.8853 63.6382 68.0057 63.5263C68.1254 63.415 68.2804 63.3586 68.4705 63.3586C68.6607 63.3586 68.8086 63.4143 68.929 63.5263C69.0487 63.6382 69.1093 63.7784 69.1093 63.9467C69.1093 64.115 69.0494 64.2488 68.929 64.3608C68.8086 64.4728 68.6565 64.5284 68.4705 64.5284C68.2846 64.5284 68.1262 64.4728 68.0057 64.3608ZM69.0079 64.8946V68.4209H67.9275V64.8946H69.0079ZM71.7848 64.9954C71.9721 65.0968 72.1165 65.2292 72.2179 65.3933V64.8939H73.2983V68.4139C73.2983 68.7385 73.2342 69.0322 73.1053 69.2956C72.9771 69.559 72.7807 69.7682 72.518 69.9245C72.2546 70.0802 71.9271 70.1583 71.5355 70.1583C71.0129 70.1583 70.5897 70.0351 70.265 69.7886C69.9403 69.5421 69.7551 69.2083 69.7086 68.7871H70.7763C70.8101 68.9216 70.8904 69.028 71.0165 69.1062C71.1425 69.1843 71.2989 69.2231 71.4841 69.2231C71.7073 69.2231 71.8855 69.159 72.0179 69.0301C72.151 68.9012 72.2172 68.6963 72.2172 68.4139V67.9145C72.1116 68.0786 71.9665 68.2124 71.7813 68.316C71.5961 68.4195 71.3792 68.4709 71.1306 68.4709C70.8397 68.4709 70.5763 68.3963 70.3404 68.2463C70.1044 68.0969 69.9178 67.8843 69.7812 67.6082C69.6445 67.3321 69.5755 67.0131 69.5755 66.6504C69.5755 66.2877 69.6438 65.9701 69.7812 65.6961C69.9178 65.4221 70.1044 65.2116 70.3404 65.0644C70.5763 64.9172 70.8397 64.8432 71.1306 64.8432C71.3792 64.8432 71.5968 64.8939 71.7848 64.9947V64.9954ZM71.994 66.0194C71.8447 65.8637 71.6623 65.7855 71.4475 65.7855C71.2327 65.7855 71.0503 65.8623 70.901 66.0165C70.7517 66.1701 70.6763 66.3821 70.6763 66.6518C70.6763 66.9215 70.751 67.1349 70.901 67.2934C71.0503 67.4511 71.2327 67.5307 71.4475 67.5307C71.6623 67.5307 71.8447 67.4525 71.994 67.2969C72.1433 67.1413 72.2186 66.9286 72.2186 66.6588C72.2186 66.3891 72.144 66.1764 71.994 66.0208V66.0194ZM77.2232 65.258C77.4675 65.5257 77.5894 65.8933 77.5894 66.3609V68.4209H76.5154V66.506C76.5154 66.2701 76.4541 66.087 76.3323 65.956C76.2097 65.8257 76.0456 65.7602 75.8393 65.7602C75.6329 65.7602 75.4681 65.8257 75.3463 65.956C75.2237 66.087 75.1632 66.2701 75.1632 66.506V68.4209H74.0828V63.7446H75.1632V65.3686C75.2723 65.213 75.4224 65.0883 75.6118 64.9961C75.8012 64.9031 76.0139 64.8573 76.2499 64.8573C76.6541 64.8573 76.9788 64.9911 77.2232 65.2588V65.258ZM78.7303 68.304C78.6106 68.1927 78.55 68.0547 78.55 67.8899C78.55 67.7251 78.6099 67.58 78.7303 67.4666C78.8507 67.3525 79.005 67.2962 79.1951 67.2962C79.3853 67.2962 79.5332 67.3532 79.6536 67.4666C79.774 67.5807 79.8339 67.7216 79.8339 67.8899C79.8339 68.0582 79.774 68.192 79.6536 68.304C79.5339 68.416 79.381 68.4716 79.1951 68.4716C79.0092 68.4716 78.8507 68.416 78.7303 68.304ZM79.7635 63.8263L79.6374 66.8532H78.7211L78.5951 63.8263H79.7642H79.7635Z" fill="url(#paint0_linear_98_796)"/>
<path d="M46.7467 59.9507C46.1544 59.7077 45.6805 59.3485 45.3262 58.8724C44.9713 58.3963 44.7846 57.8238 44.7656 57.1533H47.4172C47.4559 57.5322 47.5869 57.821 47.8102 58.0203C48.0334 58.2196 48.325 58.3189 48.6842 58.3189C49.0433 58.3189 49.3448 58.2337 49.5582 58.0639C49.7716 57.8942 49.8786 57.6583 49.8786 57.3576C49.8786 57.1054 49.7934 56.8963 49.6237 56.7315C49.4539 56.5667 49.2448 56.4307 48.9976 56.3237C48.7497 56.2166 48.3975 56.0955 47.9412 55.9596C47.2806 55.7553 46.7418 55.5518 46.3242 55.3476C45.9065 55.1433 45.5474 54.8426 45.2459 54.4447C44.9445 54.0468 44.7945 53.527 44.7945 52.8862C44.7945 51.9347 45.1389 51.1889 45.8291 50.6501C46.5185 50.1114 47.4172 49.8416 48.5243 49.8416C49.6314 49.8416 50.5589 50.1114 51.2484 50.6501C51.9379 51.1889 52.3069 51.9396 52.3555 52.901H49.6603C49.6406 52.5707 49.5194 52.3108 49.2962 52.1213C49.0729 51.9319 48.7863 51.8375 48.437 51.8375C48.1355 51.8375 47.8933 51.9178 47.7088 52.0777C47.5242 52.2382 47.432 52.4685 47.432 52.77C47.432 53.1003 47.5869 53.358 47.8982 53.5418C48.2088 53.7264 48.6947 53.9257 49.3546 54.1391C50.0152 54.3623 50.5512 54.5764 50.9646 54.7799C51.3773 54.9842 51.7343 55.28 52.0351 55.6687C52.3358 56.0575 52.4865 56.5575 52.4865 57.1695C52.4865 57.7815 52.3386 58.2816 52.0421 58.7576C51.7456 59.2337 51.316 59.6126 50.7526 59.8936C50.1892 60.1753 49.5237 60.3162 48.7567 60.3162C47.9898 60.3162 47.3383 60.195 46.746 59.9521L46.7467 59.9507ZM56.5072 51.9826V54.051H59.8433V55.9737H56.5072V58.2175H60.2799V60.2134H54.0155V49.9867H60.2799V51.9826H56.5072ZM64.0893 59.645C63.2878 59.1985 62.6519 58.5745 62.1807 57.7731C61.7096 56.9716 61.4744 56.0709 61.4744 55.0708C61.4744 54.0707 61.7096 53.1721 62.1807 52.3756C62.6519 51.579 63.2878 50.9579 64.0893 50.5107C64.8908 50.0642 65.7718 49.8402 66.7331 49.8402C67.6944 49.8402 68.5762 50.0635 69.3769 50.5107C70.1784 50.9572 70.8094 51.579 71.2707 52.3756C71.732 53.1721 71.963 54.0707 71.963 55.0708C71.963 56.0709 71.7299 56.9716 71.2637 57.7731C70.7974 58.5745 70.1657 59.1985 69.3699 59.645C68.5734 60.0922 67.6944 60.3155 66.7331 60.3155C65.7718 60.3155 64.89 60.0922 64.0893 59.645ZM68.6931 57.2266C69.1833 56.6829 69.429 55.9638 69.429 55.0708C69.429 54.1778 69.184 53.4468 68.6931 52.9073C68.2022 52.3685 67.5494 52.0988 66.7338 52.0988C65.9183 52.0988 65.2499 52.3657 64.7598 52.9002C64.2696 53.4348 64.0238 54.1581 64.0238 55.0708C64.0238 55.9835 64.2689 56.6948 64.7598 57.2343C65.2499 57.7731 65.9084 58.0428 66.7338 58.0428C67.5592 58.0428 68.2029 57.771 68.6931 57.2273V57.2266ZM78.9268 51.9826V54.051H82.2629V55.9737H78.9268V58.2175H82.6995V60.2134H76.4351V49.9867H82.6995V51.9826H78.9268ZM93.0868 49.9867L89.5471 56.8336V60.2134H87.0561V56.8336L83.5165 49.9867H86.3427L88.3238 54.2693L90.2901 49.9867H93.0875H93.0868ZM96.5828 51.9826V54.051H99.9189V55.9737H96.5828V58.2175H100.356V60.2134H94.0911V49.9867H100.356V51.9826H96.5828Z" fill="url(#paint1_linear_98_796)"/>
<path d="M35.4552 65.5925C35.8439 65.9362 36.1954 66.2588 36.5616 66.5616C36.6482 66.6334 36.8243 66.706 36.8975 66.6658C37.4159 66.3827 37.7138 66.7236 38.0222 67.0328C38.8822 67.8948 39.7392 68.7596 40.5942 69.6266C41.1337 70.1738 41.1344 70.452 40.6132 71.0013C39.3526 72.3288 39.323 72.3295 38.0307 71.0224C37.3433 70.3266 36.651 69.6357 35.9763 68.9272C35.8193 68.7624 35.5841 68.4948 35.6277 68.3462C35.9221 67.344 34.9932 67.1102 34.5664 66.463" fill="url(#paint2_linear_98_796)"/>
<path d="M35.7332 60.8613C34.6683 63.1706 32.3316 64.7777 29.6258 64.7777C29.5913 64.7777 29.5575 64.7777 29.523 64.777H22.1465C22.9733 65.6954 23.9705 66.463 25.0678 67.0222C25.7601 67.3744 26.4932 67.6462 27.2468 67.8293C28.0215 68.0174 28.8222 68.1131 29.6265 68.1131C30.9836 68.1131 32.3006 67.8469 33.5415 67.3223C34.7395 66.8159 35.8142 66.0905 36.7375 65.1679C37.6608 64.2446 38.3855 63.1699 38.8918 61.9719C39.0461 61.6071 39.1785 61.2353 39.2876 60.8578H35.7409C35.7409 60.8578 35.7353 60.8599 35.7339 60.862L35.7332 60.8613Z" fill="url(#paint3_linear_98_796)"/>
<path d="M23.5537 55.2509C24.6186 52.9416 26.9553 51.3344 29.6611 51.3344C29.6956 51.3344 29.7294 51.3344 29.764 51.3351H37.1411C36.3143 50.4168 35.3171 49.6491 34.2198 49.0899C33.5276 48.7378 32.7944 48.466 32.0408 48.2828C31.2662 48.0948 30.4654 47.999 29.6611 47.999C28.304 47.999 26.987 48.2652 25.7461 48.7899C24.5482 49.2963 23.4734 50.0217 22.5501 50.9443C21.6269 51.8676 20.9022 52.9423 20.3958 54.1402C20.2416 54.505 20.1092 54.8769 20 55.2544H23.5467C23.5467 55.2544 23.5523 55.2523 23.5537 55.2502V55.2509Z" fill="url(#paint4_linear_98_796)"/>
<path d="M39.101 56.3884H33.9331C34.2599 57.5012 34.1035 58.7188 33.4746 59.7231H36.1367L39.0982 59.7344C39.4193 59.7358 39.6806 59.4759 39.6806 59.1548V56.9687C39.6806 56.6483 39.4207 56.3891 39.101 56.3891V56.3884Z" fill="url(#paint5_linear_98_796)"/>
<path d="M20.5796 56.3884H25.7475C25.4207 57.5012 25.5771 58.7188 26.206 59.7231H23.5439L20.5824 59.7344C20.2613 59.7358 20 59.4759 20 59.1548V56.9687C20 56.6483 20.2599 56.3891 20.5796 56.3891V56.3884Z" fill="url(#paint6_linear_98_796)"/>
<path d="M26.9808 55.8392C27.4843 56.4082 28.0745 56.492 28.5034 56.0688C28.9365 55.642 28.8584 55.0891 28.2872 54.5377C29.5471 53.6623 31.567 54.0151 32.653 55.3004C33.8108 56.6709 33.7382 58.6929 32.4839 59.9796C31.2317 61.2649 29.2035 61.3902 27.8104 60.2683C26.4716 59.1901 26.0892 57.1977 26.9801 55.8392H26.9808Z" fill="url(#paint7_linear_98_796)"/>
</g>
<defs>
<linearGradient id="paint0_linear_98_796" x1="44.7649" y1="66.7588" x2="79.8332" y2="66.7588" gradientUnits="userSpaceOnUse">
<stop stop-color="#9F56FF"/>
<stop offset="1" stop-color="#0E99EF"/>
</linearGradient>
<linearGradient id="paint1_linear_98_796" x1="20.0001" y1="55.0778" x2="100.356" y2="55.0778" gradientUnits="userSpaceOnUse">
<stop stop-color="#9F56FF"/>
<stop offset="1" stop-color="#0E99EF"/>
</linearGradient>
<linearGradient id="paint2_linear_98_796" x1="36.6687" y1="70.7842" x2="38.4632" y2="67.0272" gradientUnits="userSpaceOnUse">
<stop stop-color="#9F56FF"/>
<stop offset="1" stop-color="#2C8BF2"/>
</linearGradient>
<linearGradient id="paint3_linear_98_796" x1="22.1465" y1="64.4841" x2="39.2869" y2="64.4841" gradientUnits="userSpaceOnUse">
<stop stop-color="#9F56FF"/>
<stop offset="1" stop-color="#2C8BF2"/>
</linearGradient>
<linearGradient id="paint4_linear_98_796" x1="37.1411" y1="51.6274" x2="20" y2="51.6274" gradientUnits="userSpaceOnUse">
<stop stop-color="#9F56FF"/>
<stop offset="1" stop-color="#2C8BF2"/>
</linearGradient>
<linearGradient id="paint5_linear_98_796" x1="33.4753" y1="58.0618" x2="39.6813" y2="58.0618" gradientUnits="userSpaceOnUse">
<stop stop-color="#9F56FF"/>
<stop offset="1" stop-color="#2C8BF2"/>
</linearGradient>
<linearGradient id="paint6_linear_98_796" x1="26.206" y1="58.0618" x2="20" y2="58.0618" gradientUnits="userSpaceOnUse">
<stop stop-color="#9F56FF"/>
<stop offset="1" stop-color="#2C8BF2"/>
</linearGradient>
<linearGradient id="paint7_linear_98_796" x1="26.4984" y1="57.5442" x2="33.4755" y2="57.5442" gradientUnits="userSpaceOnUse">
<stop stop-color="#9F56FF"/>
<stop offset="1" stop-color="#2C8BF2"/>
</linearGradient>
<clipPath id="clip0_98_796">
<rect width="80.3561" height="24" fill="white" transform="translate(20 48)"/>
</clipPath>
</defs>
</svg>
