<svg width="28" height="32" viewBox="0 0 28 32" fill="none" xmlns="http://www.w3.org/2000/svg">
<path d="M20.6069 23.4573C21.1252 23.9155 21.5938 24.3456 22.0821 24.7493C22.1976 24.8451 22.4323 24.9418 22.53 24.8883C23.2211 24.5108 23.6183 24.9653 24.0295 25.3775C25.1761 26.5269 26.3188 27.6799 27.4588 28.8359C28.178 29.5655 28.179 29.9364 27.4841 30.6688C25.8033 32.4388 25.7639 32.4397 24.0408 30.6969C23.1243 29.7692 22.2013 28.8481 21.3017 27.9034C21.0924 27.6837 20.7787 27.3269 20.8369 27.1288C21.2294 25.7926 19.9909 25.4808 19.4219 24.6179" fill="url(#paint0_linear_122_2907)"/>
<path d="M20.9765 17.1491C19.5567 20.2281 16.4411 22.3709 12.8335 22.3709C12.7875 22.3709 12.7424 22.3709 12.6964 22.3699H2.86133C3.96371 23.5944 5.29333 24.6179 6.75629 25.3635C7.67932 25.833 8.65682 26.1954 9.66155 26.4395C10.6944 26.6903 11.7621 26.818 12.8344 26.818C14.6439 26.818 16.3998 26.463 18.0543 25.7635C19.6515 25.0883 21.0845 24.1212 22.3155 22.8911C23.5465 21.66 24.5127 20.2271 25.1879 18.6299C25.3935 18.1435 25.57 17.6477 25.7156 17.1444H20.9868C20.9868 17.1444 20.9793 17.1472 20.9774 17.15L20.9765 17.1491Z" fill="url(#paint1_linear_122_2907)"/>
<path d="M4.73818 9.66874C6.15795 6.58976 9.27354 4.44697 12.8812 4.44697C12.9272 4.44697 12.9723 4.44697 13.0183 4.44791H22.8543C21.7519 3.22346 20.4223 2.19995 18.9593 1.45439C18.0363 0.984886 17.0588 0.622433 16.054 0.378294C15.0211 0.127582 13.9535 -0.00012207 12.8812 -0.00012207C11.0717 -0.00012207 9.31579 0.354819 7.66128 1.05437C6.06405 1.72951 4.63114 2.69668 3.40011 3.92677C2.16908 5.15779 1.20286 6.5907 0.527717 8.18794C0.322076 8.67434 0.145545 9.17013 0 9.67343H4.72879C4.72879 9.67343 4.7363 9.67061 4.73818 9.6678V9.66874Z" fill="url(#paint2_linear_122_2907)"/>
<path d="M25.4665 11.1854H18.5761C19.0118 12.669 18.8034 14.2926 17.9648 15.6316H21.5143L25.4627 15.6466C25.8909 15.6485 26.2393 15.302 26.2393 14.8738V11.9592C26.2393 11.5319 25.8928 11.1864 25.4665 11.1864V11.1854Z" fill="url(#paint3_linear_122_2907)"/>
<path d="M0.772795 11.1854H7.66316C7.22746 12.669 7.43592 14.2926 8.27445 15.6316H4.72504L0.776551 15.6466C0.348368 15.6485 0 15.302 0 14.8738V11.9592C0 11.5319 0.34649 11.1864 0.772795 11.1864V11.1854Z" fill="url(#paint4_linear_122_2907)"/>
<path d="M9.3077 10.4531C9.97909 11.2118 10.766 11.3236 11.3378 10.7592C11.9153 10.1902 11.8111 9.45308 11.0495 8.71785C12.7294 7.55067 15.4225 8.02111 16.8704 9.73478C18.4141 11.5621 18.3174 14.2579 16.645 15.9735C14.9755 17.6872 12.2712 17.8543 10.4138 16.3585C8.62881 14.9209 8.11893 12.2644 9.30677 10.4531H9.3077Z" fill="url(#paint5_linear_122_2907)"/>
<defs>
<linearGradient id="paint0_linear_122_2907" x1="22.2249" y1="30.3794" x2="24.6174" y2="25.3701" gradientUnits="userSpaceOnUse">
<stop stop-color="#9F56FF"/>
<stop offset="1" stop-color="#2C8BF2"/>
</linearGradient>
<linearGradient id="paint1_linear_122_2907" x1="2.86133" y1="21.9793" x2="25.7146" y2="21.9793" gradientUnits="userSpaceOnUse">
<stop stop-color="#9F56FF"/>
<stop offset="1" stop-color="#2C8BF2"/>
</linearGradient>
<linearGradient id="paint2_linear_122_2907" x1="22.8543" y1="4.83759" x2="0" y2="4.83759" gradientUnits="userSpaceOnUse">
<stop stop-color="#9F56FF"/>
<stop offset="1" stop-color="#2C8BF2"/>
</linearGradient>
<linearGradient id="paint3_linear_122_2907" x1="17.9658" y1="13.4165" x2="26.2402" y2="13.4165" gradientUnits="userSpaceOnUse">
<stop stop-color="#9F56FF"/>
<stop offset="1" stop-color="#2C8BF2"/>
</linearGradient>
<linearGradient id="paint4_linear_122_2907" x1="8.27445" y1="13.4165" x2="0" y2="13.4165" gradientUnits="userSpaceOnUse">
<stop stop-color="#9F56FF"/>
<stop offset="1" stop-color="#2C8BF2"/>
</linearGradient>
<linearGradient id="paint5_linear_122_2907" x1="8.66449" y1="12.7264" x2="17.9671" y2="12.7264" gradientUnits="userSpaceOnUse">
<stop stop-color="#9F56FF"/>
<stop offset="1" stop-color="#2C8BF2"/>
</linearGradient>
</defs>
</svg>
