<svg width="88" height="88" viewBox="0 0 88 88" fill="none" xmlns="http://www.w3.org/2000/svg">
<g clip-path="url(#clip0_98_1298)">
<path d="M10.2266 64.3942H15.5547C16.2154 64.3934 16.8489 64.1306 17.3161 63.6634C17.7833 63.1962 18.0461 62.5627 18.0469 61.902V56.5739C18.0461 55.9131 17.7833 55.2797 17.3161 54.8125C16.8489 54.3453 16.2154 54.0824 15.5547 54.0817H10.2266C9.56583 54.0824 8.93238 54.3453 8.46517 54.8125C7.99797 55.2797 7.73515 55.9131 7.73438 56.5739V61.902C7.73515 62.5627 7.99797 63.1962 8.46517 63.6634C8.93238 64.1306 9.56583 64.3934 10.2266 64.3942ZM10.3125 56.6598H15.4688V61.816H10.3125V56.6598ZM48.4828 55.4647C51.901 55.4625 55.2127 54.2751 57.8536 52.1049C60.4946 49.9347 62.3013 46.916 62.9661 43.5631C63.6309 40.2102 63.1126 36.7304 61.4995 33.7168C59.8864 30.7032 57.2783 28.3421 54.1195 27.0358C50.9608 25.7295 47.4468 25.5588 44.1763 26.5528C40.9058 27.5469 38.0812 29.6441 36.1836 32.4872C34.286 35.3303 33.4329 38.7434 33.7697 42.145C34.1064 45.5466 35.6121 48.7262 38.0303 51.1421C39.402 52.5155 41.0315 53.6044 42.8253 54.3463C44.6191 55.0881 46.5417 55.4682 48.4828 55.4647ZM48.3378 39.902H36.3129C36.4277 38.092 36.9449 36.3305 37.8268 34.7457H48.3378C48.6797 34.7457 49.0075 34.6099 49.2493 34.3682C49.491 34.1264 49.6268 33.7985 49.6268 33.4567C49.6268 33.1148 49.491 32.7869 49.2493 32.5452C49.0075 32.3034 48.6797 32.1676 48.3378 32.1676H39.7509C39.7856 32.132 39.8181 32.0951 39.8533 32.0598C42.1449 29.7847 45.2447 28.5105 48.4738 28.5163C51.703 28.5221 54.7982 29.8074 57.0816 32.0908C59.3649 34.3741 60.6503 37.4694 60.6561 40.6985C60.6619 43.9276 59.3876 47.0275 57.1125 49.319C55.5147 50.9186 53.5035 52.0426 51.3039 52.5655C49.1043 53.0884 46.8026 52.9896 44.6559 52.2803C42.5091 51.5709 40.6018 50.2788 39.1468 48.5482C37.6919 46.8177 36.7465 44.7168 36.4164 42.4801H48.3378C48.6797 42.4801 49.0075 42.3443 49.2493 42.1025C49.491 41.8608 49.6268 41.5329 49.6268 41.191C49.6268 40.8492 49.491 40.5213 49.2493 40.2795C49.0075 40.0378 48.6797 39.902 48.3378 39.902ZM19.7015 8.00662C19.4466 8.00662 19.1973 8.08222 18.9853 8.22386C18.7734 8.36551 18.6081 8.56683 18.5106 8.80238C18.413 9.03792 18.3875 9.29711 18.4372 9.54716C18.487 9.79722 18.6097 10.0269 18.79 10.2072C18.9703 10.3875 19.2 10.5102 19.45 10.56C19.7001 10.6097 19.9593 10.5842 20.1948 10.4866C20.4304 10.3891 20.6317 10.2238 20.7733 10.0118C20.915 9.79986 20.9906 9.55063 20.9906 9.29568C20.9906 8.9538 20.8548 8.62592 20.613 8.38418C20.3713 8.14243 20.0434 8.00662 19.7015 8.00662ZM23.5687 43.7692C23.5687 44.111 23.7045 44.4389 23.9463 44.6807C24.188 44.9224 24.5159 45.0582 24.8578 45.0582H29.0764C29.7825 48.1822 31.2318 51.0898 33.3013 53.5341C35.3709 55.9784 37.9996 57.8874 40.9644 59.0989C43.9292 60.3105 47.1425 60.7889 50.3317 60.4935C53.5208 60.1982 56.5916 59.1377 59.2835 57.4023L61.1237 59.2429C60.8147 59.5996 60.6521 60.0601 60.6687 60.5317C60.6852 61.0034 60.8796 61.4514 61.2128 61.7856L72.7449 73.3176C73.2942 73.8669 73.9464 74.3027 74.6641 74.6C75.3818 74.8973 76.1511 75.0503 76.9279 75.0503C77.7048 75.0504 78.4741 74.8974 79.1918 74.6001C79.9096 74.3028 80.5617 73.8671 81.1111 73.3177C81.6604 72.7684 82.0962 72.1163 82.3935 71.3986C82.6908 70.6808 82.8438 69.9116 82.8439 69.1347C82.8439 68.3578 82.6909 67.5885 82.3936 66.8708C82.0963 66.1531 81.6606 65.5009 81.1113 64.9516L69.5789 53.4194C69.2447 53.0864 68.7968 52.8921 68.3252 52.8756C67.8536 52.8592 67.3933 53.0217 67.0366 53.3306L65.1961 51.4901C67.8627 47.3633 68.9082 42.3959 68.1314 37.5443C67.3545 32.6927 64.8101 28.3001 60.9882 25.2123C57.1663 22.1245 52.3372 20.5598 47.4307 20.8196C42.5242 21.0795 37.8872 23.1453 34.4128 26.6195C34.2834 26.7487 34.1564 26.8794 34.0318 27.0115H24.8579C24.5161 27.0115 24.1882 27.1473 23.9464 27.3891C23.7047 27.6308 23.5689 27.9587 23.5689 28.3006C23.5689 28.6425 23.7047 28.9703 23.9464 29.2121C24.1882 29.4538 24.5161 29.5897 24.8579 29.5897H31.9675C29.4246 33.382 28.2622 37.933 28.6751 42.4803H24.8579C24.5161 42.4803 24.1882 42.6161 23.9464 42.8578C23.7047 43.0996 23.5689 43.4275 23.5689 43.7693L23.5687 43.7692ZM67.9415 56.0618L67.9432 56.0603L67.9448 56.0586L68.2584 55.7449L79.288 66.7746C79.9131 67.401 80.2641 68.2498 80.2641 69.1347C80.2641 70.0195 79.9131 70.8683 79.288 71.4947C78.9781 71.8046 78.6102 72.0505 78.2053 72.2182C77.8004 72.386 77.3664 72.4723 76.9281 72.4723C76.4898 72.4723 76.0558 72.386 75.6509 72.2182C75.2459 72.0505 74.878 71.8046 74.5681 71.4947L63.5384 60.4649L67.9415 56.0618ZM65.2085 55.1487L62.942 57.4152L61.3742 55.8472C61.7779 55.5032 62.171 55.1408 62.5532 54.7599C62.9347 54.3783 63.2971 53.9853 63.6405 53.5808L65.2085 55.1487ZM36.2355 28.4424C38.6578 26.0201 41.7439 24.3705 45.1037 23.7022C48.4635 23.0338 51.946 23.3768 55.1109 24.6877C58.2758 25.9986 60.9808 28.2185 62.884 31.0668C64.7872 33.9151 65.803 37.2638 65.8031 40.6894C65.8031 44.115 64.7873 47.4637 62.8841 50.312C60.981 53.1603 58.276 55.3803 55.1111 56.6912C51.9463 58.0022 48.4638 58.3452 45.104 57.6769C41.7442 57.0086 38.658 55.3591 36.2357 52.9368C34.6209 51.3321 33.3394 49.4239 32.465 47.322C31.5905 45.2202 31.1403 42.9661 31.1403 40.6896C31.1403 38.4131 31.5905 36.159 32.465 34.0571C33.3394 31.9553 34.6209 30.0471 36.2357 28.4424H36.2355ZM81.5547 -0.05896H6.44531C4.7365 -0.0570493 3.09822 0.622622 1.8899 1.83094C0.681582 3.03926 0.00191067 4.67754 0 6.38635L0 81.4957C0.00191067 83.2045 0.681582 84.8428 1.8899 86.0511C3.09822 87.2595 4.7365 87.9391 6.44531 87.941H81.5547C83.2635 87.9391 84.9018 87.2595 86.1101 86.0511C87.3184 84.8428 87.9981 83.2045 88 81.4957V6.38635C87.9981 4.67754 87.3184 3.03926 86.1101 1.83094C84.9018 0.622622 83.2635 -0.0570493 81.5547 -0.05896ZM85.4219 81.4957C85.4207 82.521 85.0129 83.504 84.2879 84.2289C83.5629 84.9539 82.58 85.3617 81.5547 85.3629H6.44531C5.42003 85.3617 4.43709 84.9539 3.7121 84.2289C2.98712 83.504 2.57931 82.521 2.57812 81.4957V17.9879H85.4219V81.4957ZM85.4219 15.4098H2.57812V6.38635C2.57931 5.36107 2.98712 4.37813 3.7121 3.65314C4.43709 2.92816 5.42003 2.52035 6.44531 2.51917H81.5547C82.58 2.52035 83.5629 2.92816 84.2879 3.65314C85.0129 4.37813 85.4207 5.36107 85.4219 6.38635V15.4098ZM14.5453 8.00662C14.2903 8.00662 14.0411 8.08222 13.8291 8.22386C13.6171 8.36551 13.4519 8.56683 13.3543 8.80238C13.2568 9.03792 13.2312 9.29711 13.281 9.54716C13.3307 9.79722 13.4535 10.0269 13.6338 10.2072C13.814 10.3875 14.0437 10.5102 14.2938 10.56C14.5438 10.6097 14.803 10.5842 15.0386 10.4866C15.2741 10.3891 15.4754 10.2238 15.6171 10.0118C15.7587 9.79986 15.8343 9.55063 15.8343 9.29568C15.8343 8.9538 15.6985 8.62592 15.4568 8.38418C15.215 8.14243 14.8871 8.00662 14.5453 8.00662ZM10.2266 48.9254H15.5547C16.2154 48.9246 16.8489 48.6618 17.3161 48.1946C17.7833 47.7274 18.0461 47.094 18.0469 46.4332V41.1051C18.0461 40.4444 17.7833 39.8109 17.3161 39.3437C16.8489 38.8765 16.2154 38.6137 15.5547 38.6129H10.2266C9.56583 38.6137 8.93238 38.8765 8.46517 39.3437C7.99797 39.8109 7.73515 40.4444 7.73438 41.1051V46.4332C7.73515 47.094 7.99797 47.7274 8.46517 48.1946C8.93238 48.6618 9.56583 48.9246 10.2266 48.9254ZM10.3125 41.191H15.4688V46.3473H10.3125V41.191ZM10.2266 79.8629H15.5547C16.2154 79.8621 16.8489 79.5993 17.3161 79.1321C17.7833 78.6649 18.0461 78.0315 18.0469 77.3707V72.0426C18.0461 71.3819 17.7833 70.7484 17.3161 70.2812C16.8489 69.814 16.2154 69.5512 15.5547 69.5504H10.2266C9.56583 69.5512 8.93238 69.814 8.46517 70.2812C7.99797 70.7484 7.73515 71.3819 7.73438 72.0426V77.3707C7.73515 78.0315 7.99797 78.6649 8.46517 79.1321C8.93238 79.5993 9.56583 79.8621 10.2266 79.8629ZM10.3125 72.1285H15.4688V77.2848H10.3125V72.1285ZM10.2266 33.4567H15.5547C16.2154 33.4559 16.8489 33.1931 17.3161 32.7259C17.7833 32.2587 18.0461 31.6252 18.0469 30.9645V25.6364C18.0461 24.9756 17.7833 24.3422 17.3161 23.875C16.8489 23.4078 16.2154 23.1449 15.5547 23.1442H10.2266C9.56583 23.1449 8.93238 23.4078 8.46517 23.875C7.99797 24.3422 7.73515 24.9756 7.73438 25.6364V30.9645C7.73515 31.6252 7.99797 32.2587 8.46517 32.7259C8.93238 33.1931 9.56583 33.4559 10.2266 33.4567ZM10.3125 25.7223H15.4688V30.8785H10.3125V25.7223ZM24.8578 75.9957H68.6641C69.0059 75.9957 69.3338 75.8599 69.5756 75.6182C69.8173 75.3764 69.9531 75.0485 69.9531 74.7067C69.9531 74.3648 69.8173 74.0369 69.5756 73.7952C69.3338 73.5534 69.0059 73.4176 68.6641 73.4176H24.8578C24.5159 73.4176 24.188 73.5534 23.9463 73.7952C23.7045 74.0369 23.5687 74.3648 23.5687 74.7067C23.5687 75.0485 23.7045 75.3764 23.9463 75.6182C24.188 75.8599 24.5159 75.9957 24.8578 75.9957ZM9.38902 8.00662C9.13406 8.00662 8.88484 8.08222 8.67285 8.22386C8.46087 8.36551 8.29564 8.56683 8.19808 8.80238C8.10051 9.03792 8.07498 9.29711 8.12472 9.54716C8.17446 9.79722 8.29723 10.0269 8.47751 10.2072C8.65779 10.3875 8.88748 10.5102 9.13753 10.56C9.38759 10.6097 9.64677 10.5842 9.88232 10.4866C10.1179 10.3891 10.3192 10.2238 10.4608 10.0118C10.6025 9.79986 10.6781 9.55063 10.6781 9.29568C10.6781 9.1264 10.6447 8.95877 10.58 8.80238C10.5152 8.64598 10.4202 8.50388 10.3005 8.38418C10.1808 8.26447 10.0387 8.16952 9.88232 8.10474C9.72592 8.03996 9.5583 8.00662 9.38902 8.00662ZM24.8578 60.527H32.869C33.2109 60.527 33.5388 60.3912 33.7805 60.1494C34.0223 59.9077 34.1581 59.5798 34.1581 59.2379C34.1581 58.896 34.0223 58.5682 33.7805 58.3264C33.5388 58.0847 33.2109 57.9489 32.869 57.9489H24.8578C24.5159 57.9489 24.188 58.0847 23.9463 58.3264C23.7045 58.5682 23.5687 58.896 23.5687 59.2379C23.5687 59.5798 23.7045 59.9077 23.9463 60.1494C24.188 60.3912 24.5159 60.527 24.8578 60.527Z" fill="url(#paint0_linear_98_1298)"/>
</g>
<defs>
<linearGradient id="paint0_linear_98_1298" x1="0" y1="43.941" x2="88" y2="43.941" gradientUnits="userSpaceOnUse">
<stop stop-color="#2C8BF2"/>
<stop offset="1" stop-color="#9F56FF"/>
</linearGradient>
<clipPath id="clip0_98_1298">
<rect width="88" height="88" fill="white"/>
</clipPath>
</defs>
</svg>
