<svg width="40" height="40" viewBox="0 0 40 40" fill="none" xmlns="http://www.w3.org/2000/svg">
<path d="M14.5312 1.57814C14.4219 1.59377 14.0156 1.64064 13.6562 1.68752C9.23438 2.23439 5.17188 5.12502 3.07813 9.20315C2 11.2969 1.54688 13.1719 1.54688 15.6094C1.54688 18.0313 2 19.9219 3.07813 22.0156C5.14063 26.0469 8.85938 28.7344 13.4375 29.5156C14.4375 29.6875 16.7344 29.6875 17.7344 29.5156C20.0625 29.125 22.25 28.2031 23.9219 26.9375L24.3594 26.6094L25.0625 27.3125L25.7812 28.0156L25.6094 28.2813C25.2188 28.8438 25.1719 29.8125 25.5 30.4375C25.625 30.6719 26.875 31.9844 29.2812 34.4219C33.3438 38.5469 33.2656 38.4844 34.25 38.4688C35.1094 38.4688 35.3281 38.3281 36.8125 36.8438C38.2969 35.3438 38.4375 35.1406 38.4375 34.2813C38.4531 33.3438 38.4844 33.375 34.4219 29.2656C30.5 25.2969 30.5156 25.3125 29.6563 25.2656C29.0938 25.2344 28.6875 25.3281 28.3125 25.5938L28.0312 25.7813L27.3125 25.0625L26.6094 24.3594L26.9219 23.9531C28.1719 22.3125 29.0938 20.0938 29.4844 17.7813C29.6562 16.7813 29.6562 14.4844 29.4844 13.4844C28.9688 10.5313 27.7344 8.03127 25.7656 5.95314C23.5938 3.64064 20.8906 2.23439 17.7812 1.71877C17.1094 1.60939 14.9688 1.50002 14.5312 1.57814ZM17.1406 4.04689C19.7031 4.37502 21.9688 5.50002 23.8281 7.35939C27.8594 11.3906 28.3906 17.7188 25.0781 22.375C24.4531 23.25 23.25 24.4531 22.3594 25.0938C18.8125 27.6094 14.2344 27.9688 10.3594 26.0313C9.1875 25.4531 8.26562 24.7656 7.32812 23.8438C5.46875 21.9844 4.34375 19.7031 4.01563 17.1563C3.53125 13.5 4.73438 9.96877 7.32812 7.37502C9.95312 4.76564 13.4844 3.56252 17.1406 4.04689Z" fill="#2C8BF2"/>
<path d="M8.04688 9.53125C8.0625 9.64062 8.76563 12.0781 9.57813 14.9531C10.3906 17.8281 11.25 20.8281 11.4688 21.6406L11.8906 23.1094L13.9062 23.0938L15.9219 23.0781L17.1563 17.7188C17.8438 14.7812 18.4219 12.3125 18.4531 12.25C18.4844 12.1562 18.5 12.1562 18.5312 12.25C18.6094 12.4375 20.0625 18.7656 20.5625 21.0156L21.0156 23.1094H21.8281H22.6406L23.125 22.5781C25.7031 19.7656 26.5156 15.7656 25.2656 12.2031C24.8594 11.0469 24.9375 10.9531 24.2656 13.4375C23.7188 15.4531 23.2188 17.8125 23 19.375C22.9062 19.9844 22.7813 20.0937 22.7813 19.5469C22.7813 19.25 22.5 17.4688 22.2813 16.375C22.1875 15.9688 21.7812 14.2188 21.3594 12.4844L20.5938 9.32812H18.5156C17.375 9.32812 16.4531 9.34375 16.4531 9.375C16.4531 9.40625 16.0781 10.875 15.6094 12.6719C14.7813 15.875 14.4375 17.4531 14.2344 19.0937C14.1719 19.5469 14.1094 19.9375 14.0938 19.9688C14.0781 19.9844 14.0469 19.9688 14.0469 19.9062C14.0469 19.7187 13.6719 17.3906 13.5 16.4688C13.4063 15.9531 12.9844 14.2344 12.5625 12.6406C12.1406 11.0313 11.7812 9.64062 11.75 9.53125L11.7031 9.32812H9.84375H7.98438L8.04688 9.53125Z" fill="#9F56FF"/>
</svg>
