<svg width="50" height="40" viewBox="0 0 50 40" fill="none" xmlns="http://www.w3.org/2000/svg">
<g clip-path="url(#clip0_98_3373)">
<path fill-rule="evenodd" clip-rule="evenodd" d="M46.653 0H3.79013C1.93529 0 0.443359 1.49194 0.443359 3.34677V36.6532C0.443359 38.4677 1.93529 40 3.79013 40H46.653C48.4676 40 49.9998 38.5081 49.9998 36.6532V3.34677C49.9998 1.49194 48.5079 0 46.653 0ZM43.4676 2.70161C44.395 2.70161 45.1208 3.42742 45.1208 4.35484C45.1208 5.28226 44.395 6.00806 43.4676 6.00806C42.5401 6.00806 41.8143 5.28226 41.8143 4.35484C41.8143 3.42742 42.5805 2.70161 43.4676 2.70161ZM37.903 2.70161C38.8305 2.70161 39.5563 3.42742 39.5563 4.35484C39.5563 5.28226 38.8305 6.00806 37.903 6.00806C36.9756 6.00806 36.2498 5.28226 36.2498 4.35484C36.2498 3.42742 36.9756 2.70161 37.903 2.70161ZM32.2982 2.70161C33.2256 2.70161 33.9514 3.42742 33.9514 4.35484C33.9514 5.28226 33.2256 6.00806 32.2982 6.00806C31.3708 6.00806 30.645 5.28226 30.645 4.35484C30.645 3.42742 31.3708 2.70161 32.2982 2.70161ZM47.2176 8.30645V35.9274C47.2176 36.1694 47.1369 36.4113 46.9353 36.5726C46.774 36.7339 46.5321 36.8548 46.2901 36.8548H42.2982C42.2982 36.8548 42.2982 36.8548 42.2982 36.8145H40.0805C40.0805 36.8145 40.0805 36.8145 40.0805 36.8548H10.3627C10.3627 36.8548 10.3627 36.8548 10.3627 36.8145H8.10465C8.10465 36.8145 8.10465 36.8145 8.10465 36.8548H4.274C4.03207 36.8548 3.79013 36.7742 3.62884 36.5726C3.46755 36.4113 3.34659 36.1694 3.34659 35.9274V8.30645H47.2176Z" fill="#2C8BF2"/>
<path fill-rule="evenodd" clip-rule="evenodd" d="M32.7421 24.1532C32.7018 24.1129 32.6211 24.1129 32.5405 24.1532L24.2743 29.4355C23.3469 30.0806 23.0647 30.9274 23.1856 31.6935C23.2663 32.0968 23.4276 32.4597 23.6695 32.7419C23.9114 33.0242 24.2743 33.2661 24.6372 33.3871C25.4034 33.629 26.3711 33.4274 27.2582 32.5L33.5485 25.2016C33.5889 25.1613 33.5889 25.0806 33.5485 25L32.7421 24.1532Z" fill="#9F56FF"/>
<path fill-rule="evenodd" clip-rule="evenodd" d="M43.0245 31.8952C43.0245 29.4758 42.5406 27.2178 41.6535 25.121C40.7664 22.9436 39.4358 20.9678 37.7825 19.3549C36.1293 17.7016 34.1938 16.371 32.0164 15.4839C29.9196 14.5968 27.6213 14.1129 25.2422 14.1129C22.8229 14.1129 20.5245 14.5968 18.4277 15.4839C16.2503 16.371 14.2745 17.7016 12.6616 19.3549C11.0083 21.0081 9.71803 22.9436 8.79061 25.121C7.90351 27.2178 7.45996 29.5161 7.45996 31.9355C7.45996 33.1855 7.58093 34.3952 7.82286 35.5242C7.90351 35.9678 8.02448 36.4113 8.14545 36.8549H10.3632C10.2422 36.4516 10.1213 36.0484 10.0003 35.6049C9.79867 34.7984 9.6777 33.9919 9.59706 33.1049H12.1777C12.2583 33.1049 12.339 33.0242 12.339 32.9436V31.0887C12.339 31.0081 12.2583 30.9274 12.1777 30.9274H9.55674C9.63738 29.1936 10.0406 27.5807 10.6454 26.0081C11.2906 24.4355 12.1777 22.9839 13.2261 21.6936L14.9196 23.3871C14.96 23.4274 15.0809 23.4274 15.1213 23.3871L16.4116 22.0968C16.4519 22.0565 16.4519 21.9355 16.4116 21.8952L14.718 20.2016C15.968 19.1129 17.339 18.1855 18.9116 17.5C20.4035 16.8549 22.0164 16.4113 23.71 16.25V18.5484C23.71 18.629 23.7906 18.7097 23.8713 18.7097H25.7261C25.8067 18.7097 25.8874 18.629 25.8874 18.5484V16.2097C27.5809 16.2903 29.2342 16.6129 30.7261 17.1774C32.2987 17.7823 33.7503 18.5887 35.0406 19.6371L33.3874 21.2903C33.3471 21.3307 33.3471 21.4516 33.3874 21.4919L34.6777 22.7823C34.718 22.8226 34.839 22.8226 34.8793 22.7823L36.5729 21.0887C37.7422 22.2984 38.71 23.7097 39.3954 25.2419C40.0809 26.7339 40.5648 28.3468 40.7664 30.0403H38.2261C38.1454 30.0403 38.0648 30.121 38.0648 30.2016V32.0565C38.0648 32.1371 38.1454 32.2178 38.2261 32.2178H40.8471C40.8067 33.1855 40.7261 34.1129 40.5245 35C40.4035 35.6049 40.2422 36.2097 40.0406 36.8145H42.2583C42.4196 36.3307 42.5406 35.8468 42.6213 35.3226C42.9035 34.1936 43.0245 33.0645 43.0245 31.8952Z" fill="#9F56FF"/>
</g>
<defs>
<clipPath id="clip0_98_3373">
<rect width="49.5565" height="40" fill="white" transform="translate(0.443359)"/>
</clipPath>
</defs>
</svg>
