<svg width="89" height="88" viewBox="0 0 89 88" fill="none" xmlns="http://www.w3.org/2000/svg">
<path d="M57.8432 16.8467L57.9698 16.8933L60.1148 18.0867L58.7782 20.4903L56.7102 19.3352L56.4847 19.2529L57.5655 16.7255L57.8432 16.8467ZM51.5292 17.1794L51.4853 17.3912H51.466L51.4 17.3636L48.9112 16.8467L49.4723 14.1517L52.0517 14.6905L52.1782 14.7372L52.2882 14.7785L51.5292 17.1794ZM65.2187 21.9395L65.3205 22.0274L66.7835 23.5592L64.8035 25.4649L63.3405 23.9442H63.3294L62.9555 23.628L64.743 21.5353L65.2187 21.9395ZM70.6554 28.7762L70.7215 28.8917L71.64 30.6709L69.198 31.9358L68.2877 30.1814L68.2767 30.1482L67.9467 29.6339L70.254 28.1434L70.6554 28.7762ZM73.906 36.8282L73.9363 36.9601L74.2992 38.8658L71.6042 39.3801L71.2412 37.521L71.0405 36.8282L73.6777 36.0554L73.906 36.8282ZM17.7895 50.4818L17.9765 51.1169L15.3392 51.8897L15.1247 51.1747L15.0945 51.0428L14.7178 49.0793L17.4155 48.5569L17.7895 50.4818ZM20.7457 57.8187L20.7567 57.852L21.0537 58.3139L18.7437 59.8044L18.3752 59.2296L18.3093 59.1142L17.3577 57.2769L19.8052 56.0147L20.7457 57.8187ZM25.6875 64.0532H25.7012L26.0312 64.3335L24.2437 66.4236L23.812 66.0523L23.713 65.9616L22.2005 64.3859L24.186 62.4802L25.6875 64.0532ZM39.509 73.8212L36.9873 73.2986L36.8607 73.2519L36.6957 73.1915L37.5208 70.5707L37.6308 70.6147L40.0755 71.1152L39.509 73.8212ZM32.3205 68.6482L32.4965 68.7143L31.4075 71.2444L31.1957 71.1343L31.0692 71.0877L28.8719 69.8637L30.2085 67.4602L32.3205 68.6482Z" fill="url(#paint0_linear_98_1266)"/>
<path fill-rule="evenodd" clip-rule="evenodd" d="M43.125 60.4972V79.7472H45.875V60.4972H43.125ZM43.125 8.24719V27.4972H45.875V8.24719H43.125Z" fill="url(#paint1_linear_98_1266)"/>
<path d="M42.8935 33.1158C40.5343 33.4667 38.3527 34.5736 36.6765 36.2706C35.0004 37.9676 33.9203 40.1629 33.5986 42.5263C33.2835 44.8887 33.7438 47.2893 34.9104 49.3677C36.0769 51.446 37.8865 53.0894 40.0673 54.0509C42.248 55.0125 44.6821 55.2403 47.0033 54.6998C49.3245 54.1593 51.4076 52.8799 52.9393 51.0539C53.06 50.9159 53.1519 50.7553 53.2096 50.5812C53.2673 50.4072 53.2895 50.2232 53.2751 50.0404C53.2607 49.8576 53.2099 49.6796 53.1257 49.5167C53.0414 49.3539 52.9255 49.2095 52.7847 49.0921C52.6438 48.9747 52.4809 48.8868 52.3056 48.8333C52.1302 48.7798 51.9459 48.7621 51.7635 48.7809C51.5811 48.7997 51.4043 48.8546 51.2435 48.9427C51.0827 49.0308 50.9412 49.1502 50.8273 49.2938C49.6809 50.6678 48.1183 51.6313 46.3757 52.0381C44.6332 52.445 42.8056 52.2733 41.1693 51.549C39.5316 50.8289 38.1729 49.5949 37.2987 48.034C36.4244 46.4731 36.0823 44.6702 36.3238 42.8975C36.5612 41.124 37.3696 39.476 38.6269 38.2029C39.8842 36.9297 41.5219 36.1005 43.2923 35.8409C45.0624 35.5771 46.8704 35.8964 48.443 36.7507C50.0156 37.6049 51.2676 38.9477 52.0097 40.5762C52.0818 40.7446 52.1868 40.8971 52.3186 41.0244C52.4503 41.1516 52.6063 41.2512 52.7771 41.3174C52.9478 41.3836 53.1301 41.415 53.3132 41.4097C53.4963 41.4045 53.6765 41.3627 53.8432 41.2869C54.0099 41.211 54.1598 41.1025 54.2841 40.968C54.4083 40.8334 54.5044 40.6753 54.5667 40.503C54.629 40.3308 54.6564 40.1478 54.647 39.9649C54.6377 39.782 54.5918 39.6029 54.5123 39.4379C53.5215 37.268 51.853 35.4785 49.7577 34.3384C47.6625 33.1982 45.2536 32.7692 42.8935 33.1158Z" fill="url(#paint2_linear_98_1266)"/>
<path d="M44.5 19.2472C30.8462 19.2472 19.75 30.3462 19.75 43.9972C19.75 57.6509 30.8462 68.7472 44.5 68.7472C58.1538 68.7472 69.25 57.6509 69.25 43.9972C69.25 30.3462 58.1538 19.2472 44.5 19.2472ZM44.5 21.9972C56.666 21.9972 66.5 31.8312 66.5 43.9972C66.5 56.1632 56.666 65.9972 44.5 65.9972C32.334 65.9972 22.5 56.1632 22.5 43.9972C22.5 31.8312 32.334 21.9972 44.5 21.9972Z" fill="url(#paint3_linear_98_1266)"/>
<path fill-rule="evenodd" clip-rule="evenodd" d="M8.75 42.6222V45.3722H28V42.6222H8.75ZM61 42.6222V45.3722H80.25V42.6222H61Z" fill="url(#paint4_linear_98_1266)"/>
<path d="M31.1737 16.8467L31.05 16.8933L28.905 18.0867L30.2387 20.4903L32.3068 19.3352L32.535 19.2529L31.4515 16.7255L31.1737 16.8467ZM37.4878 17.1794L37.5317 17.3912H37.551L37.617 17.3636L40.1058 16.8467L39.5475 14.1517L36.9653 14.6905L36.8415 14.7372L36.7315 14.7785L37.4878 17.1794ZM23.7982 21.9395L23.6992 22.0274L22.2335 23.5592L24.2134 25.4649L25.6765 23.9442H25.6875L26.0642 23.628L24.2767 21.5353L23.7982 21.9395ZM18.3642 28.7762L18.2982 28.8917L17.377 30.6709L19.819 31.9358L20.732 30.1814L20.743 30.1482L21.073 29.6339L18.763 28.1434L18.3642 28.7762ZM15.111 36.8282L15.0807 36.9601L14.7178 38.8658L17.4127 39.3801L17.7758 37.521L17.9765 36.8282L15.3392 36.0554L15.111 36.8282ZM71.2275 50.4818L71.0405 51.1169L73.6777 51.8897L73.8922 51.1747L73.9225 51.0428L74.2992 49.0793L71.6042 48.5569L71.2275 50.4818ZM68.274 57.8187L68.263 57.852L67.9633 58.3139L70.2733 59.8044L70.6418 59.2296L70.7077 59.1142L71.6593 57.2769L69.2117 56.0147L68.274 57.8187ZM63.3322 64.0532H63.3185L62.9857 64.3335L64.7733 66.4236L65.2077 66.0523L65.304 65.9616L66.8165 64.3859L64.831 62.4802L63.3322 64.0532ZM49.508 73.8212L52.0325 73.2986L52.1562 73.2519L52.3212 73.1915L51.4963 70.5707L51.3862 70.6147L48.9442 71.1152L49.508 73.8212ZM56.6965 68.6482L56.5205 68.7143L57.6095 71.2444L57.8212 71.1343L57.9478 71.0877L60.1477 69.8637L58.8113 67.4602L56.6965 68.6482Z" fill="url(#paint5_linear_98_1266)"/>
<path d="M54.1581 43.021C53.9775 43.0159 53.7977 43.0466 53.6289 43.111C53.4601 43.1754 53.3057 43.2722 53.1745 43.3963C53.0432 43.5204 52.9376 43.6691 52.8639 43.834C52.7901 43.999 52.7496 44.1768 52.7446 44.3574C52.7226 44.8826 52.6456 45.4024 52.5246 45.9167C52.4792 46.0937 52.4695 46.2783 52.4961 46.4592C52.5227 46.64 52.5851 46.8137 52.6796 46.9701C52.7742 47.1265 52.899 47.2626 53.0467 47.3702C53.1945 47.4779 53.3622 47.5548 53.5401 47.5968C53.718 47.6389 53.9025 47.6451 54.0828 47.615C54.2631 47.5849 54.4356 47.5191 54.5902 47.4216C54.7448 47.3241 54.8784 47.1968 54.9832 47.047C55.088 46.8972 55.1618 46.7278 55.2004 46.5491C55.3626 45.8671 55.4589 45.1744 55.4892 44.4759C55.5003 44.2922 55.4744 44.108 55.413 43.9344C55.3517 43.7609 55.2561 43.6014 55.132 43.4655C55.0078 43.3295 54.8577 43.22 54.6905 43.1432C54.5232 43.0664 54.3421 43.0265 54.1581 43.021Z" fill="url(#paint6_linear_98_1266)"/>
<defs>
<linearGradient id="paint0_linear_98_1266" x1="14.7178" y1="43.9865" x2="74.2992" y2="43.9865" gradientUnits="userSpaceOnUse">
<stop stop-color="#2C8BF2"/>
<stop offset="1" stop-color="#9F56FF"/>
</linearGradient>
<linearGradient id="paint1_linear_98_1266" x1="43.125" y1="43.9972" x2="45.875" y2="43.9972" gradientUnits="userSpaceOnUse">
<stop stop-color="#2C8BF2"/>
<stop offset="1" stop-color="#9F56FF"/>
</linearGradient>
<linearGradient id="paint2_linear_98_1266" x1="33.502" y1="43.9927" x2="54.6488" y2="43.9927" gradientUnits="userSpaceOnUse">
<stop stop-color="#2C8BF2"/>
<stop offset="1" stop-color="#9F56FF"/>
</linearGradient>
<linearGradient id="paint3_linear_98_1266" x1="19.75" y1="43.9972" x2="69.25" y2="43.9972" gradientUnits="userSpaceOnUse">
<stop stop-color="#2C8BF2"/>
<stop offset="1" stop-color="#9F56FF"/>
</linearGradient>
<linearGradient id="paint4_linear_98_1266" x1="8.75" y1="43.9972" x2="80.25" y2="43.9972" gradientUnits="userSpaceOnUse">
<stop stop-color="#2C8BF2"/>
<stop offset="1" stop-color="#9F56FF"/>
</linearGradient>
<linearGradient id="paint5_linear_98_1266" x1="14.7178" y1="43.9865" x2="74.2992" y2="43.9865" gradientUnits="userSpaceOnUse">
<stop stop-color="#2C8BF2"/>
<stop offset="1" stop-color="#9F56FF"/>
</linearGradient>
<linearGradient id="paint6_linear_98_1266" x1="52.4814" y1="45.326" x2="55.4917" y2="45.326" gradientUnits="userSpaceOnUse">
<stop stop-color="#2C8BF2"/>
<stop offset="1" stop-color="#9F56FF"/>
</linearGradient>
</defs>
</svg>
