<svg width="88" height="88" viewBox="0 0 88 88" fill="none" xmlns="http://www.w3.org/2000/svg">
<g clip-path="url(#clip0_98_1291)">
<path d="M43.9998 42.4325C41.0435 42.4325 38.651 40.0262 38.651 37.0837C38.651 34.1412 41.0573 31.735 43.9998 31.735C46.9423 31.735 49.3485 34.1412 49.3485 37.0837C49.3485 40.0262 46.956 42.4325 43.9998 42.4325ZM43.9998 34.3887C42.5148 34.3887 41.3185 35.5987 41.3185 37.07C41.3185 38.555 42.5285 39.7512 43.9998 39.7512C45.4848 39.7512 46.681 38.5412 46.681 37.07C46.681 35.5987 45.4848 34.3887 43.9998 34.3887ZM52.2498 54.0237H35.7498C35.0073 54.0237 34.416 53.4325 34.416 52.69C34.416 47.3962 38.7198 43.0925 43.9998 43.0925C49.2798 43.0925 53.5835 47.3962 53.5835 52.69C53.5835 53.4325 52.9923 54.0237 52.2498 54.0237ZM37.2073 51.3562H50.7923C50.4851 49.7803 49.6394 48.3602 48.4002 47.3392C47.161 46.3183 45.6054 45.76 43.9998 45.76C40.6448 45.76 37.826 48.1662 37.2073 51.3562Z" fill="url(#paint0_linear_98_1291)"/>
<path d="M44 62.1362C34.0037 62.1362 25.8638 53.9963 25.8638 44C25.8638 34.0037 34.0037 25.8638 44 25.8638C53.9963 25.8638 62.1362 34.0037 62.1362 44C62.1362 53.9963 53.9963 62.1362 44 62.1362ZM44 28.5313C35.475 28.5313 28.5313 35.475 28.5313 44C28.5313 52.525 35.475 59.4688 44 59.4688C52.525 59.4688 59.4688 52.525 59.4688 44C59.4688 35.475 52.525 28.5313 44 28.5313ZM44 23.43C43.2575 23.43 42.6663 22.8388 42.6663 22.0963V13.8875C42.6663 13.145 43.2575 12.5538 44 12.5538C44.7425 12.5538 45.3338 13.145 45.3338 13.8875V22.0963C45.3338 22.825 44.7425 23.43 44 23.43ZM44 11.055C42.9068 11.055 41.8381 10.7308 40.9291 10.1235C40.0201 9.51608 39.3116 8.6528 38.8933 7.64279C38.4749 6.63277 38.3654 5.52137 38.5787 4.44914C38.792 3.37691 39.3184 2.392 40.0915 1.61897C40.8645 0.845935 41.8494 0.319492 42.9216 0.106212C43.9939 -0.107068 45.1053 0.00239501 46.1153 0.420758C47.1253 0.839122 47.9886 1.5476 48.5959 2.45659C49.2033 3.36558 49.5275 4.43427 49.5275 5.5275C49.5275 8.56625 47.0525 11.055 44 11.055ZM44 2.6675C42.4188 2.6675 41.14 3.94625 41.14 5.5275C41.14 7.10875 42.4188 8.3875 44 8.3875C45.5812 8.3875 46.86 7.10875 46.86 5.5275C46.86 3.94625 45.5812 2.6675 44 2.6675ZM28.5175 29.8375C28.1738 29.8375 27.83 29.7138 27.5688 29.4525L21.7663 23.65C21.6421 23.5266 21.5436 23.3798 21.4764 23.2182C21.4092 23.0565 21.3745 22.8832 21.3745 22.7081C21.3745 22.5331 21.4092 22.3597 21.4764 22.1981C21.5436 22.0364 21.6421 21.8897 21.7663 21.7663C22.2888 21.2438 23.1275 21.2438 23.65 21.7663L29.4525 27.5688C29.6385 27.7542 29.7653 27.9906 29.8169 28.2481C29.8685 28.5056 29.8427 28.7726 29.7426 29.0154C29.6426 29.2582 29.4728 29.4658 29.2547 29.6122C29.0367 29.7585 28.7801 29.8369 28.5175 29.8375ZM16.7888 22.3163C15.3725 22.3163 13.9563 21.78 12.8838 20.6938C12.3706 20.1812 11.9634 19.5724 11.6856 18.9024C11.4079 18.2323 11.2649 17.5141 11.2649 16.7888C11.2649 16.0634 11.4079 15.3452 11.6856 14.6751C11.9634 14.0051 12.3706 13.3963 12.8838 12.8838C13.3963 12.3706 14.0051 11.9634 14.6751 11.6856C15.3452 11.4079 16.0634 11.2649 16.7888 11.2649C17.5141 11.2649 18.2323 11.4079 18.9024 11.6856C19.5724 11.9634 20.1812 12.3706 20.6938 12.8838C21.207 13.3963 21.6141 14.0051 21.8919 14.6751C22.1696 15.3452 22.3126 16.0634 22.3126 16.7888C22.3126 17.5141 22.1696 18.2323 21.8919 18.9024C21.6141 19.5724 21.207 20.1812 20.6938 20.6938C19.6213 21.78 18.205 22.3163 16.7888 22.3163ZM16.7888 13.9425C16.224 13.9442 15.6724 14.113 15.2033 14.4275C14.7342 14.742 14.3686 15.1882 14.1526 15.71C13.9365 16.2318 13.8796 16.8058 13.989 17.3599C14.0984 17.914 14.3693 18.4233 14.7675 18.8238C15.8813 19.9375 17.6963 19.9375 18.81 18.8238C19.9238 17.71 19.9238 15.895 18.81 14.7813C18.26 14.2175 17.5313 13.9425 16.7888 13.9425ZM22.0963 45.3338H13.8875C13.145 45.3338 12.5538 44.7425 12.5538 44C12.5538 43.2575 13.145 42.6663 13.8875 42.6663H22.0963C22.45 42.6663 22.7892 42.8068 23.0394 43.0569C23.2895 43.307 23.43 43.6463 23.43 44C23.43 44.3537 23.2895 44.693 23.0394 44.9431C22.7892 45.1932 22.45 45.3338 22.0963 45.3338ZM5.5275 49.5275C4.43427 49.5275 3.36558 49.2033 2.45659 48.5959C1.5476 47.9886 0.839122 47.1253 0.420758 46.1153C0.00239501 45.1053 -0.107068 43.9939 0.106212 42.9216C0.319492 41.8494 0.845935 40.8645 1.61897 40.0915C2.392 39.3184 3.37691 38.792 4.44914 38.5787C5.52137 38.3654 6.63277 38.4749 7.64279 38.8933C8.6528 39.3116 9.51608 40.0201 10.1235 40.9291C10.7308 41.8381 11.055 42.9068 11.055 44C11.055 47.0525 8.56625 49.5275 5.5275 49.5275ZM5.5275 41.14C3.94625 41.14 2.6675 42.4188 2.6675 44C2.6675 45.5812 3.94625 46.86 5.5275 46.86C7.10875 46.86 8.3875 45.5812 8.3875 44C8.3875 42.4188 7.095 41.14 5.5275 41.14ZM22.7013 66.6325C22.4375 66.6347 22.179 66.5582 21.9588 66.4129C21.7387 66.2677 21.5667 66.0601 21.465 65.8167C21.3632 65.5734 21.3362 65.3052 21.3874 65.0464C21.4386 64.7877 21.5657 64.55 21.7525 64.3638L27.555 58.5612C28.0775 58.0387 28.9163 58.0387 29.4388 58.5612C29.9613 59.0838 29.9613 59.9225 29.4388 60.445L23.6363 66.2475C23.3872 66.4936 23.0514 66.6319 22.7013 66.6325ZM16.7888 76.725C15.3725 76.725 13.9563 76.1888 12.8838 75.1025C12.3706 74.5899 11.9634 73.9812 11.6856 73.3111C11.4079 72.6411 11.2649 71.9228 11.2649 71.1975C11.2649 70.4722 11.4079 69.7539 11.6856 69.0839C11.9634 68.4138 12.3706 67.8051 12.8838 67.2925C13.3963 66.7793 14.0051 66.3722 14.6751 66.0944C15.3452 65.8166 16.0634 65.6736 16.7888 65.6736C17.5141 65.6736 18.2323 65.8166 18.9024 66.0944C19.5724 66.3722 20.1812 66.7793 20.6938 67.2925C21.207 67.8051 21.6141 68.4138 21.8919 69.0839C22.1696 69.7539 22.3126 70.4722 22.3126 71.1975C22.3126 71.9228 22.1696 72.6411 21.8919 73.3111C21.6141 73.9812 21.207 74.5899 20.6938 75.1025C19.6213 76.1888 18.205 76.725 16.7888 76.725ZM14.7675 69.19C13.6538 70.3037 13.6538 72.1187 14.7675 73.2325C15.8813 74.3462 17.6963 74.3462 18.81 73.2325C19.9238 72.1187 19.9238 70.3037 18.81 69.19C17.6963 68.0762 15.8813 68.0762 14.7675 69.19ZM44 75.4463C43.2575 75.4463 42.6663 74.855 42.6663 74.1125V65.9037C42.6663 65.1612 43.2575 64.57 44 64.57C44.7425 64.57 45.3338 65.1612 45.3338 65.9037V74.1125C45.3338 74.855 44.7425 75.4463 44 75.4463ZM44 88C42.534 88 41.1281 87.4176 40.0915 86.381C39.0549 85.3444 38.4725 83.9385 38.4725 82.4725C38.4725 81.0065 39.0549 79.6006 40.0915 78.564C41.1281 77.5274 42.534 76.945 44 76.945C45.466 76.945 46.8719 77.5274 47.9085 78.564C48.9451 79.6006 49.5275 81.0065 49.5275 82.4725C49.5275 83.9385 48.9451 85.3444 47.9085 86.381C46.8719 87.4176 45.466 88 44 88ZM44 79.6125C42.4188 79.6125 41.14 80.8913 41.14 82.4725C41.14 84.0537 42.4188 85.3325 44 85.3325C45.5812 85.3325 46.86 84.0537 46.86 82.4725C46.86 80.905 45.5812 79.6125 44 79.6125ZM65.2988 66.6325C64.955 66.6325 64.6113 66.5088 64.35 66.2475L58.5475 60.445C58.4234 60.3216 58.3248 60.1748 58.2576 60.0132C58.1904 59.8515 58.1558 59.6782 58.1558 59.5031C58.1558 59.3281 58.1904 59.1547 58.2576 58.9931C58.3248 58.8314 58.4234 58.6847 58.5475 58.5612C59.07 58.0387 59.9088 58.0387 60.4313 58.5612L66.2337 64.3638C66.4197 64.5492 66.5465 64.7856 66.5981 65.0431C66.6498 65.3005 66.6239 65.5676 66.5239 65.8104C66.4238 66.0532 66.254 66.2608 66.036 66.4072C65.8179 66.5535 65.5614 66.6319 65.2988 66.6325ZM71.2113 76.725C69.74 76.725 68.3512 76.1475 67.3063 75.1025C66.7931 74.5899 66.3859 73.9812 66.1081 73.3111C65.8304 72.6411 65.6874 71.9228 65.6874 71.1975C65.6874 70.4722 65.8304 69.7539 66.1081 69.0839C66.3859 68.4138 66.7931 67.8051 67.3063 67.2925C68.3512 66.2475 69.74 65.67 71.2113 65.67C72.6825 65.67 74.0713 66.2475 75.1162 67.2925C75.6294 67.8051 76.0366 68.4138 76.3144 69.0839C76.5921 69.7539 76.7351 70.4722 76.7351 71.1975C76.7351 71.9228 76.5921 72.6411 76.3144 73.3111C76.0366 73.9812 75.6294 74.5899 75.1162 75.1025C74.0713 76.1612 72.6825 76.725 71.2113 76.725ZM71.2113 68.3512C70.6465 68.353 70.0949 68.5217 69.6258 68.8362C69.1567 69.1507 68.7911 69.597 68.5751 70.1188C68.359 70.6405 68.3021 71.2146 68.4115 71.7686C68.5209 72.3227 68.7918 72.832 69.19 73.2325C70.2763 74.3187 72.1462 74.305 73.2325 73.2325C73.6307 72.832 73.9016 72.3227 74.011 71.7686C74.1204 71.2146 74.0635 70.6405 73.8474 70.1188C73.6314 69.597 73.2658 69.1507 72.7967 68.8362C72.3276 68.5217 71.776 68.353 71.2113 68.3512ZM74.1125 45.3338H65.9037C65.1612 45.3338 64.57 44.7425 64.57 44C64.57 43.2575 65.1612 42.6663 65.9037 42.6663H74.1125C74.855 42.6663 75.4463 43.2575 75.4463 44C75.4463 44.7425 74.855 45.3338 74.1125 45.3338ZM82.4725 49.5275C81.0065 49.5275 79.6006 48.9451 78.564 47.9085C77.5274 46.8719 76.945 45.466 76.945 44C76.945 42.534 77.5274 41.1281 78.564 40.0915C79.6006 39.0549 81.0065 38.4725 82.4725 38.4725C83.9385 38.4725 85.3444 39.0549 86.381 40.0915C87.4176 41.1281 88 42.534 88 44C88 45.466 87.4176 46.8719 86.381 47.9085C85.3444 48.9451 83.9385 49.5275 82.4725 49.5275ZM82.4725 41.14C80.8913 41.14 79.6125 42.4188 79.6125 44C79.6125 45.5812 80.8913 46.86 82.4725 46.86C84.0537 46.86 85.3325 45.5812 85.3325 44C85.3325 42.4188 84.0537 41.14 82.4725 41.14ZM59.4963 29.8375C59.2325 29.8397 58.974 29.7632 58.7538 29.6179C58.5337 29.4727 58.3617 29.2651 58.26 29.0217C58.1582 28.7784 58.1312 28.5102 58.1824 28.2514C58.2336 27.9927 58.3607 27.755 58.5475 27.5688L64.35 21.7663C64.8725 21.2438 65.7113 21.2438 66.2337 21.7663C66.7562 22.2888 66.7562 23.1275 66.2337 23.65L60.4313 29.4525C60.17 29.7138 59.8263 29.8375 59.4963 29.8375ZM71.2113 22.3163C69.74 22.3163 68.3512 21.7388 67.3063 20.6938C66.7931 20.1812 66.3859 19.5724 66.1081 18.9024C65.8304 18.2323 65.6874 17.5141 65.6874 16.7888C65.6874 16.0634 65.8304 15.3452 66.1081 14.6751C66.3859 14.0051 66.7931 13.3963 67.3063 12.8838C68.3512 11.8388 69.74 11.2613 71.2113 11.2613C72.6825 11.2613 74.0713 11.8388 75.1162 12.8838C75.6294 13.3963 76.0366 14.0051 76.3144 14.6751C76.5921 15.3452 76.7351 16.0634 76.7351 16.7888C76.7351 17.5141 76.5921 18.2323 76.3144 18.9024C76.0366 19.5724 75.6294 20.1812 75.1162 20.6938C74.0713 21.7388 72.6825 22.3163 71.2113 22.3163ZM71.2113 13.9425C70.6465 13.9442 70.0949 14.113 69.6258 14.4275C69.1567 14.742 68.7911 15.1882 68.5751 15.71C68.359 16.2318 68.3021 16.8058 68.4115 17.3599C68.5209 17.914 68.7918 18.4233 69.19 18.8238C70.2763 19.91 72.1462 19.91 73.2325 18.8238C73.6307 18.4233 73.9016 17.914 74.011 17.3599C74.1204 16.8058 74.0635 16.2318 73.8474 15.71C73.6314 15.1882 73.2658 14.742 72.7967 14.4275C72.3276 14.113 71.776 13.9442 71.2113 13.9425Z" fill="url(#paint1_linear_98_1291)"/>
</g>
<defs>
<linearGradient id="paint0_linear_98_1291" x1="34.416" y1="42.8794" x2="53.5835" y2="42.8794" gradientUnits="userSpaceOnUse">
<stop stop-color="#2C8BF2"/>
<stop offset="1" stop-color="#9F56FF"/>
</linearGradient>
<linearGradient id="paint1_linear_98_1291" x1="0" y1="44" x2="88" y2="44" gradientUnits="userSpaceOnUse">
<stop stop-color="#2C8BF2"/>
<stop offset="1" stop-color="#9F56FF"/>
</linearGradient>
<clipPath id="clip0_98_1291">
<rect width="88" height="88" fill="white"/>
</clipPath>
</defs>
</svg>
