<svg width="40" height="40" viewBox="0 0 40 40" fill="none" xmlns="http://www.w3.org/2000/svg">
<g clip-path="url(#clip0_98_3380)">
<path d="M20 24.125C24.0625 24.125 27.3125 20.875 27.3125 16.8125C27.3125 12.75 24.0625 9.4375 20 9.4375C15.9375 9.4375 12.6875 12.6875 12.6875 16.75C12.6875 20.8125 15.9375 24.125 20 24.125ZM20 25.4375C11.9375 25.4375 5.4375 31.9375 5.4375 40H34.5625C34.5625 31.9375 28.0625 25.4375 20 25.4375Z" fill="#2C8BF2"/>
<path d="M19.4999 6.5C19.4999 6.5 19.5624 6.5625 19.6249 6.5625L19.6874 6.625C19.7499 6.6875 19.8749 6.6875 19.9999 6.6875C20.1249 6.6875 20.1874 6.6875 20.3124 6.625C20.3749 6.625 20.3749 6.5625 20.4374 6.5625C20.4374 6.5625 20.4999 6.5 20.5624 6.5L22.0624 5.125C22.1874 5 22.3124 4.8125 22.3124 4.625C22.3124 4.4375 22.2499 4.25 22.1249 4.0625C21.9999 3.9375 21.7499 3.8125 21.5624 3.8125C21.3749 3.8125 21.1874 3.875 21.0624 4L20.8749 4.1875V0.75C20.7499 0.3125 20.4374 0 19.9999 0C19.5624 0 19.2499 0.3125 19.2499 0.75V4.1875L19.0624 4C18.9374 3.875 18.7499 3.8125 18.5624 3.8125C18.3749 3.8125 18.1249 3.875 17.9999 4.0625C17.6874 4.375 17.7499 4.875 18.0624 5.125L19.4999 6.5ZM25.9374 8.25C25.9374 8.3125 25.9999 8.375 26.0624 8.5C26.1249 8.5625 26.1874 8.625 26.2499 8.75C26.3124 8.75 26.3124 8.8125 26.3749 8.8125L26.4374 8.875C26.4999 8.875 26.6249 8.9375 26.6874 8.9375H26.7499L28.7499 8.6875C29.1874 8.625 29.4374 8.25 29.4374 7.875C29.3749 7.5 29.0624 7.1875 28.6874 7.1875H28.5624L28.2499 7.25L30.3749 4.375C30.4999 4.1875 30.5624 4 30.4999 3.8125C30.4374 3.625 30.3749 3.4375 30.1874 3.3125C30.0624 3.1875 29.8749 3.1875 29.7499 3.1875C29.4999 3.1875 29.2499 3.3125 29.1249 3.5L27.1249 6.25L27.0624 5.9375C26.9999 5.5625 26.6874 5.3125 26.3124 5.3125H26.1874C25.9999 5.375 25.8124 5.4375 25.6874 5.625C25.5624 5.8125 25.5624 6 25.5624 6.1875L25.9374 8.25ZM36.4999 12C36.3749 11.6875 36.1249 11.5 35.7499 11.5C35.6874 11.5 35.5624 11.5 35.4999 11.5625L32.1874 12.625L32.3124 12.375C32.3749 12.1875 32.3749 12 32.3124 11.8125C32.2499 11.625 32.1249 11.5 31.9374 11.375C31.8749 11.25 31.8124 11.25 31.6874 11.25C31.3749 11.25 31.1249 11.4375 30.9999 11.6875L30.1249 13.5C30.1249 13.5625 30.1249 13.5625 30.0624 13.6875V13.8125C30.0624 13.875 30.0624 14 30.1249 14.125C30.1249 14.1875 30.1874 14.3125 30.2499 14.375L30.3124 14.4375C30.3749 14.5 30.4374 14.5625 30.4999 14.5625L32.2499 15.5625C32.3749 15.625 32.4999 15.6875 32.6249 15.6875C32.8749 15.6875 33.1249 15.5625 33.3124 15.3125C33.4374 15.125 33.4374 14.9375 33.3749 14.75C33.3124 14.5625 33.1874 14.375 32.9999 14.3125L32.7499 14.1875L36.0624 13.125C36.3749 12.8125 36.6249 12.375 36.4999 12ZM11.6874 7.1875L11.3749 7.125H11.2499C10.8749 7.125 10.5624 7.4375 10.4999 7.8125C10.4374 8.25 10.7499 8.625 11.1874 8.625L13.1874 8.875H13.2499C13.3124 8.875 13.4374 8.875 13.4999 8.8125C13.4999 8.8125 13.5624 8.8125 13.6249 8.75C13.6249 8.75 13.6874 8.75 13.7499 8.6875C13.8124 8.625 13.8749 8.5625 13.9374 8.4375C13.9999 8.375 13.9999 8.3125 13.9999 8.1875L14.3749 6.1875C14.4374 6 14.3749 5.8125 14.2499 5.625C14.1249 5.4375 13.9374 5.3125 13.7499 5.3125H13.6249C13.2499 5.3125 12.9374 5.5625 12.8749 5.9375V6.25L10.8124 3.4375C10.6874 3.25 10.4374 3.125 10.1874 3.125C9.99993 3.125 9.87493 3.1875 9.74993 3.25C9.56243 3.375 9.49993 3.5625 9.43743 3.75C9.37493 3.9375 9.43743 4.125 9.56243 4.3125L11.6874 7.1875ZM7.06243 14.125C6.87493 14.25 6.74993 14.375 6.68743 14.5625C6.62493 14.75 6.68743 14.9375 6.74993 15.125C6.87493 15.375 7.12493 15.5 7.43743 15.5C7.56243 15.5 7.68743 15.4375 7.81243 15.375L9.62493 14.375C9.68743 14.375 9.74993 14.3125 9.74993 14.25L9.68743 14.125L9.81243 14.1875C9.87493 14.125 9.93743 14.0625 9.93743 13.9375C9.93743 13.875 9.99993 13.75 9.99993 13.625C9.99993 13.5625 9.99993 13.5625 9.93743 13.4375V13.3125L9.06243 11.5C8.93743 11.25 8.68743 11.0625 8.37493 11.0625C8.24993 11.0625 8.18743 11.0625 8.06243 11.125C7.87493 11.1875 7.74993 11.375 7.68743 11.5625C7.62493 11.75 7.62493 11.9375 7.68743 12.125L7.81243 12.375L4.49993 11.3125C4.43743 11.3125 4.37493 11.25 4.24993 11.25C3.93743 11.25 3.62493 11.4375 3.49993 11.75C3.37493 12.125 3.56243 12.5625 3.99993 12.6875L7.31243 13.75L7.06243 14.125Z" fill="#9F56FF"/>
</g>
<defs>
<clipPath id="clip0_98_3380">
<rect width="40" height="40" fill="white"/>
</clipPath>
</defs>
</svg>
