<svg width="39" height="40" viewBox="0 0 39 40" fill="none" xmlns="http://www.w3.org/2000/svg">
<g clip-path="url(#clip0_98_3363)">
<path d="M0.389648 16.5821C0.521791 16.5821 0.611077 16.5821 0.700363 16.5821C4.19679 16.5821 7.69322 16.5821 11.1896 16.5786C11.4468 16.5786 11.5468 16.625 11.5646 16.9107C11.5789 17.175 11.5325 17.3643 11.3682 17.575C10.3896 18.8 9.42179 20.0286 8.46465 21.2678C7.70036 22.2607 7.67179 23.3214 8.20393 24.4357C8.61108 25.2857 8.98965 26.1464 9.38251 27C10.0825 28.5143 11.8754 29.0893 13.3289 28.2607C13.7218 28.0357 14.1004 27.7928 14.4789 27.5643C14.6968 27.7071 14.7575 27.8714 14.7111 28.125C14.5218 29.15 14.3289 30.175 14.1968 31.2036C14.0039 32.7143 15.3182 34.1893 16.8504 34.2C18.7432 34.2143 20.6361 34.2143 22.5289 34.2C23.8611 34.1893 25.0789 33.075 25.1789 31.7464C25.2146 31.2607 25.1254 30.7571 25.0539 30.2714C24.9432 29.5178 24.7861 28.775 24.6754 28.0214C24.6539 27.875 24.7575 27.7071 24.8182 27.5071C25.2361 27.7643 25.5825 27.9714 25.9289 28.1857C27.4504 29.125 29.2896 28.5714 30.0325 26.9464C30.4432 26.05 30.8539 25.1536 31.2646 24.2536C31.7432 23.2036 31.6432 22.2 30.9432 21.2893C29.9611 20.0107 28.9646 18.7464 27.9539 17.4893C27.7289 17.2107 27.8682 16.9428 27.8718 16.6678C27.8718 16.6393 27.9646 16.5964 28.0182 16.5928C28.1146 16.5786 28.2182 16.5893 28.3182 16.5893C31.7611 16.5893 35.2004 16.5893 38.6432 16.5893C38.7504 16.5893 38.8575 16.5893 38.9896 16.5893C38.9968 16.7107 39.0039 16.8036 39.0039 16.9C39.0039 24.2464 39.0039 31.5893 39.0039 38.9357C39.0039 39.6178 38.6325 40.0036 37.9861 40.0036C25.8218 40.0036 13.6575 40.0036 1.49322 40.0036C0.753934 40.0036 0.39322 39.6464 0.39322 38.9071C0.389648 31.5821 0.389648 24.2643 0.389648 16.9464V16.5821Z" fill="#2C8BF2"/>
<path d="M24.107 24.9107C23.9356 25.3071 23.7713 25.6679 23.6249 26.0357C23.4142 26.575 23.0427 26.8071 22.4535 26.8036C20.5785 26.7857 18.7035 26.7929 16.8285 26.8C16.3499 26.8 16.0177 26.6071 15.8285 26.1607C15.657 25.7536 15.4749 25.35 15.282 24.9143C15.1892 24.9679 15.1035 25.0107 15.0213 25.0607C14.1892 25.5714 13.357 26.0857 12.5249 26.6C11.9142 26.9786 11.3213 26.8 11.0249 26.15C10.6213 25.2714 10.2249 24.3857 9.81418 23.5107C9.61775 23.0893 9.66775 22.7107 9.95703 22.3464C11.0892 20.9107 12.2142 19.4714 13.3499 18.0357C13.4677 17.8893 13.507 17.75 13.4856 17.5679C13.1177 14.4286 13.3035 11.3321 14.2249 8.29999C15.0249 5.66428 16.3427 3.31071 18.1535 1.23214C18.407 0.939278 18.6713 0.649992 18.9356 0.364278C19.3713 -0.107151 20.0035 -0.117865 20.4427 0.342849C23.5249 3.56071 25.3606 7.37499 25.907 11.8036C26.1463 13.7357 26.132 15.6643 25.9142 17.5964C25.8999 17.7286 25.9535 17.9036 26.0356 18.0107C27.1463 19.4393 28.2642 20.8643 29.3927 22.2821C29.7249 22.6964 29.782 23.1071 29.5499 23.5893C29.1392 24.4464 28.757 25.3143 28.3606 26.1786C28.0856 26.7821 27.4927 26.9714 26.9177 26.625C26.0713 26.1143 25.2356 25.5929 24.3927 25.075C24.307 25.025 24.2213 24.975 24.107 24.9107ZM23.3927 12.8786C23.3713 10.8428 21.6963 9.18213 19.6713 9.19285C17.6606 9.20356 15.982 10.8928 15.9927 12.8928C16.007 14.9786 17.6892 16.6036 19.807 16.5821C21.7463 16.5643 23.4106 14.8464 23.3892 12.8786H23.3927Z" fill="#9F56FF"/>
<path d="M39.0007 14.725H27.9328C27.9328 12.7786 27.7221 10.8714 27.2686 8.96784C27.39 8.9607 27.4793 8.95355 27.565 8.95355C31.0078 8.95355 34.4471 8.95355 37.89 8.95355C38.6578 8.95355 39.0007 9.29998 39.0007 10.0643C39.0007 11.5143 39.0007 12.9607 39.0007 14.4107V14.725Z" fill="#2C8BF2"/>
<path d="M0.389648 14.7286C0.389648 14.6036 0.389648 14.5071 0.389648 14.4071C0.389648 12.9571 0.389648 11.5107 0.389648 10.0607C0.389648 9.29998 0.739648 8.95355 1.50393 8.95355C4.92893 8.95355 8.35036 8.95355 11.7754 8.95355C11.8754 8.95355 11.9718 8.95355 12.1218 8.95355C11.6718 10.8643 11.4539 12.7786 11.4575 14.7286H0.389648ZM5.13251 11.2821C4.88965 11.2821 4.64322 11.275 4.40036 11.2821C3.85751 11.3036 3.46465 11.6643 3.43608 12.1536C3.40751 12.6428 3.76108 13.0821 4.29679 13.1214C4.85393 13.1607 5.41822 13.1607 5.97179 13.1178C6.49679 13.0786 6.83965 12.6464 6.81822 12.1678C6.79322 11.675 6.39322 11.3 5.86108 11.2821C5.61822 11.275 5.37179 11.2821 5.12893 11.2821H5.13251Z" fill="#2C8BF2"/>
<path d="M16.4892 28.65H22.8999C23.0285 29.3964 23.1571 30.1357 23.2821 30.875C23.3106 31.0536 23.3464 31.2321 23.3464 31.4107C23.3535 31.9179 23.0214 32.2893 22.5178 32.35C22.4178 32.3607 22.3178 32.3607 22.2214 32.3607C20.5285 32.3607 18.8356 32.3607 17.1428 32.3607C16.3178 32.3607 15.9285 31.9 16.0678 31.0893C16.2071 30.2786 16.3499 29.4679 16.4928 28.6464L16.4892 28.65Z" fill="#9F56FF"/>
<path d="M19.7113 11.0572C20.7435 11.0607 21.5435 11.875 21.5363 12.9143C21.5292 13.9215 20.7006 14.7393 19.6899 14.7357C18.6649 14.7357 17.8435 13.9 17.8506 12.8786C17.8578 11.8429 18.6649 11.05 19.7113 11.0536V11.0572Z" fill="#9F56FF"/>
</g>
<defs>
<clipPath id="clip0_98_3363">
<rect width="38.6107" height="40" fill="white" transform="translate(0.389648)"/>
</clipPath>
</defs>
</svg>
