<svg width="88" height="88" viewBox="0 0 88 88" fill="none" xmlns="http://www.w3.org/2000/svg">
<path d="M28.8746 42.625H32.9996V44C32.9996 44.825 33.5496 45.375 34.3746 45.375C35.1996 45.375 35.7496 44.825 35.7496 44V42.625H37.1246C37.9496 42.625 38.4996 42.075 38.4996 41.25C38.4996 40.425 37.9496 39.875 37.1246 39.875H35.7496V35.75C35.7496 34.925 35.1996 34.375 34.3746 34.375C33.5496 34.375 32.9996 34.925 32.9996 35.75V39.875H30.5246L32.1746 30.525C32.4496 29.7 31.8996 29.15 31.0746 28.875C30.2496 28.6 29.6996 29.15 29.4246 29.975L27.2246 40.975C27.2246 41.25 27.2246 41.8 27.4996 42.075C27.7746 42.35 28.5996 42.625 28.8746 42.625Z" fill="url(#paint0_linear_98_1279)"/>
<path d="M56.3746 42.625H60.4996V44C60.4996 44.825 61.0496 45.375 61.8746 45.375C62.6996 45.375 63.2496 44.825 63.2496 44V42.625H64.6246C65.4496 42.625 65.9996 42.075 65.9996 41.25C65.9996 40.425 65.4496 39.875 64.6246 39.875H63.2496V35.75C63.2496 34.925 62.6996 34.375 61.8746 34.375C61.0496 34.375 60.4996 34.925 60.4996 35.75V39.875H58.0246L59.6746 30.525C59.9496 29.7 59.3996 29.15 58.5746 28.875C57.7496 28.6 57.1996 29.15 56.9246 29.975L54.7246 40.975C54.7246 41.25 54.7246 41.8 54.9996 42.075C55.2746 42.35 56.0996 42.625 56.3746 42.625Z" fill="url(#paint1_linear_98_1279)"/>
<path d="M17.875 59.125H16.225C15.95 58.3 15.675 57.475 15.125 56.65L16.5 55.55C17.05 55 17.05 54.175 16.5 53.625C15.95 53.075 15.125 53.075 14.575 53.625L13.475 54.725C12.65 54.175 11.825 53.9 11 53.625V52.25C11 51.425 10.45 50.875 9.625 50.875C8.8 50.875 8.25 51.425 8.25 52.25V53.9C7.425 54.175 6.6 54.45 5.775 55L4.675 53.9C4.125 53.35 3.3 53.35 2.75 53.9C2.2 54.45 2.2 55 2.75 55.55L3.85 56.65C3.3 57.475 3.025 58.3 2.75 59.125H1.375C0.55 59.125 0 59.675 0 60.5C0 61.325 0.55 61.875 1.375 61.875H3.025C3.3 62.7 3.575 63.525 4.125 64.35L2.75 65.45C2.2 66 2.2 66.825 2.75 67.375C3.025 67.65 3.3 67.65 3.85 67.65C4.4 67.65 4.675 67.65 4.95 67.375L6.05 66.275C6.875 66.825 7.7 67.1 8.525 67.375V68.75C8.525 69.575 9.075 70.125 9.9 70.125C10.725 70.125 11 69.575 11 68.75V67.1C11.825 66.825 12.65 66.55 13.475 66L14.575 67.1C14.85 67.375 15.125 67.375 15.675 67.375C16.225 67.375 16.5 67.375 16.775 67.1C17.325 66.55 17.325 65.725 16.775 65.175L15.675 64.075C16.225 63.25 16.5 62.425 16.775 61.6H18.425C18.7 61.875 19.25 61.325 19.25 60.5C19.25 59.675 18.7 59.125 17.875 59.125ZM9.625 64.625C7.425 64.625 5.5 62.7 5.5 60.5C5.5 59.4 6.05 58.3 6.6 57.475C7.425 56.65 8.525 56.375 9.625 56.375C11.825 56.375 13.75 58.3 13.75 60.5C13.75 62.7 11.825 64.625 9.625 64.625Z" fill="url(#paint2_linear_98_1279)"/>
<path d="M9.625 61.875C10.3844 61.875 11 61.2594 11 60.5C11 59.7406 10.3844 59.125 9.625 59.125C8.86561 59.125 8.25 59.7406 8.25 60.5C8.25 61.2594 8.86561 61.875 9.625 61.875Z" fill="url(#paint3_linear_98_1279)"/>
<path d="M86.625 33H84.425L86.075 31.35C86.625 30.8 86.625 29.975 86.075 29.425L82.225 25.575C81.675 25.025 80.85 25.025 80.3 25.575L78.65 27.225V24.75C78.65 23.925 78.1 23.375 77.275 23.375H74.525V22C74.525 19.8 72.6 17.875 70.4 17.875H23.65C21.175 17.875 19.25 19.8 19.25 22V37.4C18.425 37.675 17.6 37.95 16.775 38.5L15.675 37.4C15.125 36.85 14.3 36.85 13.75 37.4C13.2 37.95 13.2 38.5 13.75 39.05L14.85 40.15C14.3 40.975 14.025 41.8 13.75 42.625H12.375C11.55 42.625 11 43.175 11 44C11 44.825 11.55 45.375 12.375 45.375H14.025C14.3 46.2 14.575 47.025 15.125 47.85L13.75 48.95C13.2 49.5 13.2 50.325 13.75 50.875C14.025 51.15 14.3 51.15 14.85 51.15C15.4 51.15 15.675 51.15 15.95 50.875L17.05 49.775C17.875 50.325 18.7 50.6 19.525 50.875V55C19.525 57.2 21.45 59.125 23.65 59.125H38.5V67.375H28.875C28.05 67.375 27.5 67.925 27.5 68.75C27.5 69.575 28.05 70.125 28.875 70.125H64.625C65.45 70.125 66 69.575 66 68.75C66 67.925 65.45 67.375 64.625 67.375H55V59.125H70.125C72.325 59.125 74.25 57.2 74.25 55V50.875H77C77.825 50.875 78.375 50.325 78.375 49.5V47.3L80.025 48.95C80.575 49.5 81.4 49.5 81.95 48.95L85.8 45.1C86.35 44.55 86.35 43.725 85.8 43.175L84.425 41.25H86.625C87.45 41.25 88 40.7 88 39.875V34.375C88 33.55 87.45 33 86.625 33ZM74.25 34.375C75.9 34.375 77 35.475 77 37.125C77 38.775 75.9 39.875 74.25 39.875V34.375ZM23.375 20.625H70.125C70.95 20.625 71.5 21.175 71.5 22V48.125H22V22C22 21.175 22.55 20.625 23.375 20.625ZM19.25 47.85C17.6 47.3 16.5 45.65 16.5 44C16.5 42.9 17.05 41.8 17.6 40.975C18.15 40.425 18.7 40.15 19.25 40.15V47.85ZM52.25 67.375H41.25V59.125H52.25V67.375ZM70.125 56.375H23.375C22.55 56.375 22 55.825 22 55V50.875H71.5V55C71.5 55.825 70.95 56.375 70.125 56.375ZM85.25 38.5H83.325C82.775 38.5 82.225 38.775 81.95 39.6C81.675 40.15 81.675 40.7 81.4 41.25C81.125 41.8 81.125 42.35 81.675 42.9L83.05 44.275L81.125 46.2L79.75 44.55C79.2 44 78.65 44 78.1 44.275C77.55 44.55 77 44.825 76.45 44.825C75.9 45.1 75.625 45.65 75.625 46.2V48.125H74.25V42.625C77.275 42.625 79.75 40.15 79.75 37.125C79.75 34.1 77.275 31.625 74.25 31.625V26.125H75.625V28.05C75.625 28.6 75.9 29.15 76.45 29.425C77 29.7 77.55 29.7 78.1 29.975C78.65 30.25 79.2 30.25 79.75 29.7L81.125 28.325L83.05 30.25L81.675 31.625C81.125 32.175 81.125 32.725 81.4 33.275C81.675 33.825 81.95 34.375 81.95 34.925C82.225 35.475 82.775 36.025 83.325 36.025H85.25V38.5Z" fill="url(#paint4_linear_98_1279)"/>
<path d="M45.375 45.375H48.125C50.325 45.375 52.25 43.45 52.25 41.25V33C52.25 30.8 50.325 28.875 48.125 28.875H45.375C43.175 28.875 41.25 30.8 41.25 33V41.25C41.25 43.45 43.175 45.375 45.375 45.375ZM44 33C44 32.175 44.55 31.625 45.375 31.625H48.125C48.95 31.625 49.5 32.175 49.5 33V41.25C49.5 42.075 48.95 42.625 48.125 42.625H45.375C44.55 42.625 44 42.075 44 41.25V33Z" fill="url(#paint5_linear_98_1279)"/>
<defs>
<linearGradient id="paint0_linear_98_1279" x1="27.2246" y1="37.0892" x2="38.4996" y2="37.0892" gradientUnits="userSpaceOnUse">
<stop stop-color="#2C8BF2"/>
<stop offset="1" stop-color="#9F56FF"/>
</linearGradient>
<linearGradient id="paint1_linear_98_1279" x1="54.7246" y1="37.0892" x2="65.9996" y2="37.0892" gradientUnits="userSpaceOnUse">
<stop stop-color="#2C8BF2"/>
<stop offset="1" stop-color="#9F56FF"/>
</linearGradient>
<linearGradient id="paint2_linear_98_1279" x1="0" y1="60.5" x2="19.25" y2="60.5" gradientUnits="userSpaceOnUse">
<stop stop-color="#2C8BF2"/>
<stop offset="1" stop-color="#9F56FF"/>
</linearGradient>
<linearGradient id="paint3_linear_98_1279" x1="8.25" y1="60.5" x2="11" y2="60.5" gradientUnits="userSpaceOnUse">
<stop stop-color="#2C8BF2"/>
<stop offset="1" stop-color="#9F56FF"/>
</linearGradient>
<linearGradient id="paint4_linear_98_1279" x1="11" y1="44" x2="88" y2="44" gradientUnits="userSpaceOnUse">
<stop stop-color="#2C8BF2"/>
<stop offset="1" stop-color="#9F56FF"/>
</linearGradient>
<linearGradient id="paint5_linear_98_1279" x1="41.25" y1="37.125" x2="52.25" y2="37.125" gradientUnits="userSpaceOnUse">
<stop stop-color="#2C8BF2"/>
<stop offset="1" stop-color="#9F56FF"/>
</linearGradient>
</defs>
</svg>
