<svg width="161" height="48" viewBox="0 0 161 48" fill="none" xmlns="http://www.w3.org/2000/svg">
<g clip-path="url(#clip0_127_6611)">
<path d="M55.7865 34.7753C55.626 34.4809 55.3964 34.2556 55.0978 34.0992C54.7992 33.9429 54.447 33.8654 54.0428 33.8654C53.3427 33.8654 52.7836 34.095 52.3624 34.5542C51.9413 35.0133 51.73 35.6261 51.73 36.3937C51.73 37.2107 51.9511 37.8501 52.3934 38.3079C52.8357 38.7671 53.4442 38.9967 54.2203 38.9967C54.7513 38.9967 55.1992 38.8615 55.5668 38.5924C55.933 38.3234 56.2007 37.9346 56.3697 37.429H53.6273V35.8359H58.3289V37.8459C58.1684 38.3854 57.8965 38.8868 57.5134 39.3502C57.1303 39.8136 56.6429 40.1883 56.0542 40.4756C55.464 40.7616 54.7992 40.9052 54.0569 40.9052C53.1808 40.9052 52.399 40.7137 51.7117 40.3306C51.0243 39.9474 50.4891 39.4136 50.1059 38.7319C49.7228 38.0487 49.5312 37.2698 49.5312 36.3937C49.5312 35.5176 49.7228 34.7359 50.1059 34.0485C50.4891 33.3611 51.0229 32.8273 51.7046 32.4428C52.3878 32.0596 53.1667 31.8681 54.0428 31.8681C55.1048 31.8681 55.9992 32.1258 56.7289 32.6386C57.4571 33.1527 57.9402 33.864 58.1754 34.7753H55.7865ZM62.6377 34.0485C63.0166 33.8259 63.4377 33.7133 63.9011 33.7133V36.0007H63.3067C62.7672 36.0007 62.363 36.1162 62.094 36.3486C61.8235 36.581 61.6897 36.9867 61.6897 37.5684V40.8419H59.529V33.7893H61.6897V34.9655C61.9418 34.5781 62.2588 34.2725 62.6377 34.0485ZM66.2843 40.501C65.7322 40.2066 65.2984 39.7855 64.9829 39.2375C64.6674 38.6896 64.5082 38.0487 64.5082 37.3163C64.5082 36.5839 64.6688 35.9528 64.9885 35.4021C65.3082 34.85 65.7463 34.4274 66.3027 34.1316C66.859 33.8372 67.4816 33.6893 68.1732 33.6893C68.8648 33.6893 69.4874 33.8372 70.0437 34.1316C70.6001 34.426 71.0381 34.85 71.3579 35.4021C71.6776 35.9542 71.8382 36.5923 71.8382 37.3163C71.8382 38.0403 71.6762 38.6798 71.3522 39.2319C71.0283 39.784 70.586 40.2066 70.0254 40.5024C69.4648 40.7968 68.8394 40.9447 68.1478 40.9447C67.4562 40.9447 66.8351 40.7968 66.2829 40.5024L66.2843 40.501ZM69.2042 38.6178C69.4944 38.3149 69.6409 37.8811 69.6409 37.3163C69.6409 36.7515 69.5 36.3176 69.2169 36.0148C68.9352 35.712 68.5873 35.5599 68.1746 35.5599C67.7619 35.5599 67.4041 35.7092 67.1252 36.0092C66.8478 36.3078 66.7083 36.7444 66.7083 37.3177C66.7083 37.891 66.8449 38.3164 67.1196 38.6192C67.3929 38.922 67.7365 39.0741 68.1492 39.0741C68.5619 39.0741 68.9141 38.922 69.2042 38.6192V38.6178ZM83.1135 33.7893L81.2049 40.8419H78.8161L77.7033 36.2669L76.5526 40.8419H74.1764L72.2551 33.7893H74.4158L75.4145 38.8319L76.6019 33.7893H78.8893L80.0894 38.8065L81.0754 33.7893H83.1107H83.1135ZM94.2987 31.9695V40.8419H92.1366V37.1895H88.7744V40.8419H86.6137V31.9695H88.7744V35.4458H92.1366V31.9695H94.2987ZM96.0114 32.7217C95.7706 32.4991 95.6509 32.223 95.6509 31.8934C95.6509 31.5638 95.7706 31.2765 96.0114 31.0525C96.2509 30.83 96.5608 30.7173 96.9411 30.7173C97.3214 30.7173 97.6172 30.8286 97.858 31.0525C98.0975 31.2765 98.2186 31.5568 98.2186 31.8934C98.2186 32.2301 98.0989 32.4977 97.858 32.7217C97.6172 32.9456 97.3129 33.0569 96.9411 33.0569C96.5692 33.0569 96.2523 32.9456 96.0114 32.7217ZM98.0158 33.7893V40.8419H95.8551V33.7893H98.0158ZM103.57 33.9907C103.944 34.1936 104.233 34.4584 104.436 34.7866V33.7879H106.597V40.8278C106.597 41.4771 106.468 42.0645 106.211 42.5913C105.954 43.118 105.561 43.5364 105.036 43.8491C104.509 44.1604 103.854 44.3167 103.071 44.3167C102.026 44.3167 101.179 44.0702 100.53 43.5772C99.8807 43.0842 99.5102 42.4166 99.4173 41.5743H101.553C101.62 41.8433 101.781 42.056 102.033 42.2124C102.285 42.3687 102.598 42.4462 102.968 42.4462C103.415 42.4462 103.771 42.318 104.036 42.0602C104.302 41.8025 104.434 41.3926 104.434 40.8278V39.8291C104.223 40.1573 103.933 40.4249 103.563 40.632C103.192 40.839 102.758 40.9419 102.261 40.9419C101.679 40.9419 101.153 40.7926 100.681 40.4925C100.209 40.1939 99.8356 39.7686 99.5624 39.2164C99.2891 38.6643 99.1511 38.0262 99.1511 37.3008C99.1511 36.5754 99.2877 35.9402 99.5624 35.3922C99.8356 34.8443 100.209 34.4232 100.681 34.1288C101.153 33.8344 101.679 33.6865 102.261 33.6865C102.758 33.6865 103.194 33.7879 103.57 33.9893V33.9907ZM103.988 36.0388C103.689 35.7275 103.325 35.5711 102.895 35.5711C102.465 35.5711 102.101 35.7247 101.802 36.0331C101.503 36.3402 101.353 36.7641 101.353 37.3036C101.353 37.8431 101.502 38.2699 101.802 38.5868C102.101 38.9023 102.465 39.0615 102.895 39.0615C103.325 39.0615 103.689 38.9051 103.988 38.5938C104.287 38.2825 104.437 37.8572 104.437 37.3177C104.437 36.7782 104.288 36.3529 103.988 36.0416V36.0388ZM114.446 34.5161C114.935 35.0514 115.179 35.7866 115.179 36.7219V40.8419H113.031V37.012C113.031 36.5402 112.908 36.174 112.665 35.912C112.419 35.6514 112.091 35.5204 111.679 35.5204C111.266 35.5204 110.936 35.6514 110.693 35.912C110.447 36.174 110.326 36.5402 110.326 37.012V40.8419H108.166V31.4892H110.326V34.7373C110.545 34.426 110.845 34.1767 111.224 33.9922C111.602 33.8062 112.028 33.7147 112.5 33.7147C113.308 33.7147 113.958 33.9823 114.446 34.5175V34.5161ZM117.461 40.608C117.221 40.3855 117.1 40.1094 117.1 39.7798C117.1 39.4502 117.22 39.1601 117.461 38.9333C117.701 38.7051 118.01 38.5924 118.39 38.5924C118.771 38.5924 119.066 38.7065 119.307 38.9333C119.548 39.1615 119.668 39.4432 119.668 39.7798C119.668 40.1165 119.548 40.3841 119.307 40.608C119.068 40.832 118.762 40.9433 118.39 40.9433C118.018 40.9433 117.701 40.832 117.461 40.608ZM119.527 31.6526L119.275 37.7065H117.442L117.19 31.6526H119.528H119.527Z" fill="url(#paint0_linear_127_6611)"/>
<path d="M53.4935 23.9014C52.3089 23.4155 51.3609 22.6971 50.6524 21.745C49.9425 20.7928 49.5693 19.6476 49.5312 18.3067H54.8344C54.9118 19.0645 55.1738 19.642 55.6203 20.0406C56.0668 20.4392 56.65 20.6378 57.3683 20.6378C58.0867 20.6378 58.6895 20.4674 59.1163 20.128C59.5431 19.7885 59.7572 19.3166 59.7572 18.7152C59.7572 18.2109 59.5868 17.7926 59.2473 17.463C58.9079 17.1334 58.4895 16.8616 57.9951 16.6475C57.4993 16.4334 56.7951 16.1911 55.8823 15.9193C54.5611 15.5108 53.4836 15.1037 52.6483 14.6952C51.8131 14.2868 51.0947 13.6853 50.4919 12.8895C49.889 12.0937 49.589 11.0542 49.589 9.77242C49.589 7.86949 50.2778 6.37785 51.6581 5.30033C53.0371 4.2228 54.8344 3.68333 57.0486 3.68333C59.2628 3.68333 61.1178 4.2228 62.4968 5.30033C63.8758 6.37785 64.6138 7.87935 64.711 9.802H59.3206C59.2811 9.1414 59.0389 8.62165 58.5923 8.24275C58.1458 7.86386 57.5726 7.67511 56.8739 7.67511C56.2711 7.67511 55.7865 7.83569 55.4175 8.15542C55.0485 8.47657 54.864 8.93716 54.864 9.54001C54.864 10.2006 55.1738 10.7161 55.7964 11.0838C56.4176 11.4528 57.3895 11.8514 58.7093 12.2782C60.0305 12.7247 61.1024 13.1529 61.9292 13.56C62.7546 13.9684 63.4687 14.56 64.0701 15.3375C64.6716 16.115 64.973 17.1151 64.973 18.3391C64.973 19.5631 64.6772 20.5632 64.0842 21.5154C63.4912 22.4675 62.632 23.2253 61.5052 23.7873C60.3784 24.3507 59.0473 24.6324 57.5134 24.6324C55.9795 24.6324 54.6766 24.3902 53.492 23.9042L53.4935 23.9014ZM73.0143 7.96527V12.1021H79.6865V15.9474H73.0143V20.435H80.5598V24.4268H68.0309V3.97349H80.5598V7.96527H73.0143ZM88.1786 23.2901C86.5757 22.3971 85.3038 21.1491 84.3615 19.5462C83.4192 17.9433 82.9487 16.1418 82.9487 14.1417C82.9487 12.1416 83.4192 10.3443 84.3615 8.75123C85.3038 7.15818 86.5757 5.91585 88.1786 5.02144C89.7815 4.12843 91.5436 3.68051 93.4662 3.68051C95.3889 3.68051 97.1524 4.12702 98.7539 5.02144C100.357 5.91445 101.619 7.15818 102.541 8.75123C103.464 10.3443 103.926 12.1416 103.926 14.1417C103.926 16.1418 103.46 17.9433 102.527 19.5462C101.595 21.1491 100.331 22.3971 98.7398 23.2901C97.1467 24.1845 95.3889 24.631 93.4662 24.631C91.5436 24.631 89.7801 24.1845 88.1786 23.2901ZM97.3862 18.4532C98.3665 17.3658 98.8581 15.9277 98.8581 14.1417C98.8581 12.3557 98.3679 10.8936 97.3862 9.81468C96.4044 8.73715 95.0987 8.19768 93.4676 8.19768C91.8366 8.19768 90.4998 8.73151 89.5195 9.80059C88.5392 10.8697 88.0476 12.3162 88.0476 14.1417C88.0476 15.9671 88.5378 17.3898 89.5195 18.4687C90.4998 19.5462 91.8168 20.0857 93.4676 20.0857C95.1184 20.0857 96.4058 19.542 97.3862 18.4546V18.4532ZM117.854 7.96527V12.1021H124.526V15.9474H117.854V20.435H125.399V24.4268H112.87V3.97349H125.399V7.96527H117.854ZM146.174 3.97349L139.094 17.6672V24.4268H134.112V17.6672L127.033 3.97349H132.685L136.648 12.5388L140.58 3.97349H146.175H146.174ZM153.165 7.96527V12.1021H159.838V15.9474H153.165V20.435H160.711V24.4268H148.182V3.97349H160.711V7.96527H153.165Z" fill="url(#paint1_linear_127_6611)"/>
<path d="M30.9104 35.1852C31.6879 35.8725 32.3908 36.5177 33.1232 37.1233C33.2964 37.267 33.6486 37.4121 33.7951 37.3318C34.8317 36.7656 35.4275 37.4473 36.0445 38.0656C37.7643 39.7897 39.4785 41.5194 41.1885 43.2533C42.2674 44.3477 42.2688 44.9041 41.2265 46.0027C38.7052 48.6578 38.646 48.6592 36.0614 46.045C34.6867 44.6533 33.3021 43.2716 31.9527 41.8546C31.6386 41.525 31.1681 40.9897 31.2555 40.6925C31.8442 38.6882 29.9864 38.2206 29.1328 36.9261" fill="url(#paint2_linear_127_6611)"/>
<path d="M31.4654 25.7226C29.3357 30.3412 24.6622 33.5555 19.2506 33.5555C19.1816 33.5555 19.114 33.5555 19.045 33.5541H4.29199C5.94561 35.3908 7.94009 36.9261 10.1346 38.0445C11.5192 38.7488 12.9855 39.2925 14.4926 39.6587C16.042 40.0348 17.6435 40.2263 19.252 40.2263C21.9663 40.2263 24.6002 39.6939 27.0821 38.6445C29.478 37.6318 31.6274 36.181 33.474 34.3358C35.3206 32.4892 36.77 30.3398 37.7827 27.9439C38.0912 27.2143 38.356 26.4706 38.5743 25.7156H31.4809C31.4809 25.7156 31.4696 25.7198 31.4668 25.7241L31.4654 25.7226Z" fill="url(#paint3_linear_127_6611)"/>
<path d="M7.10746 14.5023C9.23716 9.88368 13.9107 6.66941 19.3223 6.66941C19.3913 6.66941 19.4589 6.66941 19.5279 6.67082H34.2823C32.6287 4.83409 30.6342 3.29879 28.4397 2.18041C27.0551 1.47615 25.5888 0.932454 24.0817 0.566235C22.5323 0.190157 20.9308 -0.00140381 19.3223 -0.00140381C16.608 -0.00140381 13.9741 0.531022 11.4922 1.58038C9.09631 2.59311 6.94689 4.0439 5.1003 5.88908C3.25371 7.73567 1.80433 9.88509 0.791596 12.281C0.483127 13.0106 0.218323 13.7543 0 14.5093H7.09337C7.09337 14.5093 7.10464 14.5051 7.10746 14.5009V14.5023Z" fill="url(#paint4_linear_127_6611)"/>
<path d="M38.202 16.777H27.8662C28.5197 19.0025 28.207 21.4379 26.9492 23.4464H32.2735L38.1964 23.469C38.8386 23.4718 39.3612 22.952 39.3612 22.3098V17.9377C39.3612 17.2968 38.8415 16.7784 38.202 16.7784V16.777Z" fill="url(#paint5_linear_127_6611)"/>
<path d="M1.15922 16.777H11.495C10.8415 19.0025 11.1542 21.4379 12.412 23.4464H7.08774L1.16486 23.469C0.522566 23.4718 0 22.952 0 22.3098V17.9377C0 17.2968 0.519749 16.7784 1.15922 16.7784V16.777Z" fill="url(#paint6_linear_127_6611)"/>
<path d="M13.9616 15.6784C14.9687 16.8165 16.149 16.9841 17.0068 16.1376C17.8731 15.284 17.7167 14.1783 16.5744 13.0754C19.0943 11.3246 23.134 12.0303 25.3059 14.6009C27.6215 17.3419 27.4765 21.3858 24.9679 23.9592C22.4635 26.5297 18.4069 26.7804 15.6208 24.5367C12.9432 22.3802 12.1784 18.3954 13.9602 15.6784H13.9616Z" fill="url(#paint7_linear_127_6611)"/>
</g>
<defs>
<linearGradient id="paint0_linear_127_6611" x1="49.5298" y1="37.5177" x2="119.666" y2="37.5177" gradientUnits="userSpaceOnUse">
<stop stop-color="#9F56FF"/>
<stop offset="1" stop-color="#0E99EF"/>
</linearGradient>
<linearGradient id="paint1_linear_127_6611" x1="0.000179644" y1="14.1558" x2="160.712" y2="14.1558" gradientUnits="userSpaceOnUse">
<stop stop-color="#9F56FF"/>
<stop offset="1" stop-color="#0E99EF"/>
</linearGradient>
<linearGradient id="paint2_linear_127_6611" x1="33.3374" y1="45.5686" x2="36.9263" y2="38.0544" gradientUnits="userSpaceOnUse">
<stop stop-color="#9F56FF"/>
<stop offset="1" stop-color="#2C8BF2"/>
</linearGradient>
<linearGradient id="paint3_linear_127_6611" x1="4.29199" y1="32.9681" x2="38.5729" y2="32.9681" gradientUnits="userSpaceOnUse">
<stop stop-color="#9F56FF"/>
<stop offset="1" stop-color="#2C8BF2"/>
</linearGradient>
<linearGradient id="paint4_linear_127_6611" x1="34.2823" y1="7.25536" x2="0" y2="7.25536" gradientUnits="userSpaceOnUse">
<stop stop-color="#9F56FF"/>
<stop offset="1" stop-color="#2C8BF2"/>
</linearGradient>
<linearGradient id="paint5_linear_127_6611" x1="26.9506" y1="20.1237" x2="39.3626" y2="20.1237" gradientUnits="userSpaceOnUse">
<stop stop-color="#9F56FF"/>
<stop offset="1" stop-color="#2C8BF2"/>
</linearGradient>
<linearGradient id="paint6_linear_127_6611" x1="12.412" y1="20.1237" x2="0" y2="20.1237" gradientUnits="userSpaceOnUse">
<stop stop-color="#9F56FF"/>
<stop offset="1" stop-color="#2C8BF2"/>
</linearGradient>
<linearGradient id="paint7_linear_127_6611" x1="12.9967" y1="19.0884" x2="26.9511" y2="19.0884" gradientUnits="userSpaceOnUse">
<stop stop-color="#9F56FF"/>
<stop offset="1" stop-color="#2C8BF2"/>
</linearGradient>
<clipPath id="clip0_127_6611">
<rect width="160.712" height="48" fill="white"/>
</clipPath>
</defs>
</svg>
