<svg width="82" height="29" viewBox="0 0 82 29" fill="none" xmlns="http://www.w3.org/2000/svg">
<path d="M2.8879 26.0516L2.1879 25.8416L5.0859 16.2376L5.7859 16.4616L2.8879 26.0516ZM1.9779 20.3256C1.66057 20.3256 1.38523 20.2556 1.1519 20.1156C0.927898 19.9663 0.750565 19.747 0.619898 19.4576C0.498565 19.159 0.437898 18.7856 0.437898 18.3376C0.437898 17.8896 0.498565 17.5256 0.619898 17.2456C0.750565 16.9563 0.927898 16.7463 1.1519 16.6156C1.38523 16.4756 1.66057 16.4056 1.9779 16.4056C2.29523 16.4056 2.5659 16.4756 2.7899 16.6156C3.02323 16.7463 3.20057 16.9563 3.3219 17.2456C3.45257 17.5256 3.5179 17.8896 3.5179 18.3376C3.5179 18.7856 3.45257 19.159 3.3219 19.4576C3.20057 19.747 3.02323 19.9663 2.7899 20.1156C2.5659 20.2556 2.29523 20.3256 1.9779 20.3256ZM1.9779 19.5836C2.1459 19.5836 2.27657 19.537 2.3699 19.4436C2.47257 19.3503 2.54257 19.2103 2.5799 19.0236C2.62657 18.837 2.6499 18.6083 2.6499 18.3376C2.6499 18.067 2.62657 17.843 2.5799 17.6656C2.54257 17.4883 2.47257 17.3576 2.3699 17.2736C2.27657 17.1803 2.1459 17.1336 1.9779 17.1336C1.8099 17.1336 1.67457 17.1803 1.5719 17.2736C1.47857 17.3576 1.40857 17.4883 1.3619 17.6656C1.32457 17.843 1.3059 18.067 1.3059 18.3376C1.3059 18.6083 1.32457 18.837 1.3619 19.0236C1.40857 19.2103 1.47857 19.3503 1.5719 19.4436C1.67457 19.537 1.8099 19.5836 1.9779 19.5836ZM5.9679 25.9256C5.65057 25.9256 5.37523 25.8556 5.1419 25.7156C4.90857 25.5663 4.72657 25.347 4.5959 25.0576C4.47457 24.759 4.4139 24.3856 4.4139 23.9376C4.4139 23.4896 4.47457 23.1256 4.5959 22.8456C4.72657 22.5563 4.90857 22.3463 5.1419 22.2156C5.37523 22.0756 5.65057 22.0056 5.9679 22.0056C6.28523 22.0056 6.5559 22.0756 6.7799 22.2156C7.01323 22.3463 7.19057 22.5563 7.3119 22.8456C7.44257 23.1256 7.5079 23.4943 7.5079 23.9516C7.5079 24.3996 7.44257 24.773 7.3119 25.0716C7.19057 25.361 7.01323 25.5756 6.7799 25.7156C6.5559 25.8556 6.28523 25.9256 5.9679 25.9256ZM5.9679 25.1976C6.1359 25.1976 6.26657 25.151 6.3599 25.0576C6.46257 24.9643 6.53257 24.8243 6.5699 24.6376C6.61657 24.451 6.6399 24.2223 6.6399 23.9516C6.6399 23.6716 6.61657 23.443 6.5699 23.2656C6.53257 23.0883 6.46257 22.9576 6.3599 22.8736C6.26657 22.7896 6.1359 22.7476 5.9679 22.7476C5.7999 22.7476 5.66457 22.7896 5.5619 22.8736C5.46857 22.9576 5.39857 23.0883 5.3519 23.2656C5.30523 23.443 5.2819 23.667 5.2819 23.9376C5.2819 24.2083 5.30523 24.4416 5.3519 24.6376C5.39857 24.8243 5.46857 24.9643 5.5619 25.0576C5.66457 25.151 5.7999 25.1976 5.9679 25.1976ZM8.84588 25.7856V24.8336L11.5059 22.0476C11.8885 21.6463 12.2199 21.287 12.4999 20.9696C12.7799 20.643 12.9945 20.3256 13.1439 20.0176C13.2932 19.7003 13.3679 19.3643 13.3679 19.0096C13.3679 18.403 13.1999 17.9876 12.8639 17.7636C12.5372 17.5303 12.0425 17.4136 11.3799 17.4136C11.1372 17.4136 10.8665 17.4323 10.5679 17.4696C10.2692 17.4976 9.97988 17.535 9.69988 17.5816C9.42922 17.619 9.19588 17.661 8.99988 17.7076L8.91588 16.7836C9.11188 16.7276 9.35455 16.6716 9.64388 16.6156C9.93322 16.5596 10.2459 16.513 10.5819 16.4756C10.9272 16.429 11.2632 16.4056 11.5899 16.4056C12.5699 16.4056 13.3025 16.6016 13.7879 16.9936C14.2825 17.3856 14.5299 18.0156 14.5299 18.8836C14.5299 19.341 14.4552 19.7516 14.3059 20.1156C14.1659 20.4796 13.9512 20.839 13.6619 21.1936C13.3819 21.539 13.0225 21.9263 12.5839 22.3556L10.1619 24.8056H14.7539V25.7856H8.84588ZM19.6619 25.9116C19.3165 25.9116 18.9525 25.8883 18.5699 25.8416C18.1872 25.795 17.8185 25.7436 17.4639 25.6876C17.1185 25.6223 16.8292 25.5616 16.5959 25.5056L16.7219 24.6096C16.9552 24.647 17.2352 24.6936 17.5619 24.7496C17.8885 24.7963 18.2245 24.8383 18.5699 24.8756C18.9245 24.9036 19.2512 24.9176 19.5499 24.9176C20.1845 24.9176 20.6839 24.7356 21.0479 24.3716C21.4212 24.0076 21.6079 23.4803 21.6079 22.7896C21.6079 22.323 21.5285 21.959 21.3699 21.6976C21.2112 21.427 20.9872 21.2356 20.6979 21.1236C20.4085 21.0116 20.0725 20.9556 19.6899 20.9556C19.4099 20.9556 19.1299 20.9836 18.8499 21.0396C18.5699 21.0956 18.3132 21.1656 18.0799 21.2496C17.8465 21.3336 17.6552 21.4176 17.5059 21.5016L16.7499 21.3476L17.0019 16.5456H22.3919V17.5536H17.9259L17.6739 20.5076C17.8325 20.433 18.0285 20.3536 18.2619 20.2696C18.4952 20.1856 18.7472 20.1156 19.0179 20.0596C19.2885 19.9943 19.5545 19.9616 19.8159 19.9616C20.4225 19.9616 20.9452 20.055 21.3839 20.2416C21.8225 20.419 22.1632 20.7083 22.4059 21.1096C22.6485 21.5016 22.7699 22.029 22.7699 22.6916C22.7699 23.401 22.6439 23.9936 22.3919 24.4696C22.1492 24.9456 21.7945 25.305 21.3279 25.5476C20.8705 25.7903 20.3152 25.9116 19.6619 25.9116ZM29.032 25.7856V24.7916H30.824V25.7856H29.032ZM26.75 28.8796C26.6287 28.8796 26.5027 28.8703 26.372 28.8516C26.232 28.8423 26.0967 28.833 25.966 28.8236L26.092 27.8296C26.2227 27.839 26.344 27.8483 26.456 27.8576C26.568 27.8763 26.666 27.8856 26.75 27.8856C27.1887 27.8856 27.5434 27.7176 27.814 27.3816C28.0847 27.055 28.22 26.5976 28.22 26.0096V18.7856H29.312V26.0096C29.312 26.579 29.2 27.0783 28.976 27.5076C28.7614 27.9463 28.4627 28.2823 28.08 28.5156C27.6974 28.7583 27.254 28.8796 26.75 28.8796ZM30.824 25.7856V24.7916C30.88 24.7916 30.9267 24.8056 30.964 24.8336C31.0014 24.8523 31.0294 24.885 31.048 24.9316C31.0667 24.969 31.0807 25.0203 31.09 25.0856C31.0994 25.1416 31.104 25.207 31.104 25.2816C31.104 25.3563 31.0994 25.4263 31.09 25.4916C31.0807 25.557 31.0667 25.613 31.048 25.6596C31.0294 25.697 31.0014 25.7296 30.964 25.7576C30.9267 25.7763 30.88 25.7856 30.824 25.7856ZM30.8213 25.7856V24.7916H37.8913L37.1633 25.4216V19.3036L37.7373 19.7796H35.3573C34.816 19.7796 34.396 19.845 34.0973 19.9756C33.808 20.1063 33.6073 20.3536 33.4953 20.7176C33.3833 21.0723 33.3273 21.595 33.3273 22.2856C33.3273 22.9763 33.3833 23.5036 33.4953 23.8676C33.6073 24.2223 33.808 24.465 34.0973 24.5956C34.396 24.7263 34.816 24.7916 35.3573 24.7916V25.5056C34.5453 25.5056 33.9106 25.4076 33.4533 25.2116C33.0053 25.0063 32.688 24.6703 32.5013 24.2036C32.324 23.7276 32.2353 23.0883 32.2353 22.2856C32.2353 21.483 32.324 20.825 32.5013 20.3116C32.688 19.789 33.0053 19.4063 33.4533 19.1636C33.9106 18.9116 34.5453 18.7856 35.3573 18.7856H38.2553V25.7856H30.8213ZM30.8213 25.7856C30.7653 25.7856 30.7186 25.7763 30.6813 25.7576C30.644 25.7296 30.616 25.697 30.5973 25.6596C30.5786 25.613 30.5646 25.557 30.5553 25.4916C30.546 25.4263 30.5413 25.3563 30.5413 25.2816C30.5413 25.179 30.5506 25.095 30.5693 25.0296C30.5786 24.955 30.6066 24.899 30.6533 24.8616C30.6906 24.815 30.7466 24.7916 30.8213 24.7916V25.7856ZM35.0213 17.5256V16.2656H36.1133V17.5256H35.0213ZM42.5872 28.8796C42.2605 28.8796 41.9105 28.8516 41.5372 28.7956C41.1732 28.749 40.7719 28.679 40.3332 28.5856L40.5012 27.7036C40.9959 27.769 41.4065 27.8156 41.7332 27.8436C42.0692 27.8716 42.3539 27.8856 42.5872 27.8856C43.3619 27.8856 43.9265 27.7363 44.2812 27.4376C44.6359 27.1483 44.8132 26.7236 44.8132 26.1636V19.4156L45.3732 19.7796H43.0072C42.4659 19.7796 42.0459 19.845 41.7472 19.9756C41.4579 20.1063 41.2572 20.3536 41.1452 20.7176C41.0332 21.0723 40.9772 21.595 40.9772 22.2856C40.9772 22.9763 41.0332 23.5036 41.1452 23.8676C41.2572 24.2223 41.4579 24.465 41.7472 24.5956C42.0459 24.7263 42.4659 24.7916 43.0072 24.7916H44.8132V25.7856H43.0072C42.1952 25.7856 41.5605 25.6643 41.1032 25.4216C40.6552 25.1696 40.3379 24.787 40.1512 24.2736C39.9739 23.751 39.8852 23.0883 39.8852 22.2856C39.8852 21.483 39.9739 20.825 40.1512 20.3116C40.3379 19.789 40.6552 19.4063 41.1032 19.1636C41.5605 18.9116 42.1952 18.7856 43.0072 18.7856H45.9052V26.1496C45.9052 26.7283 45.7699 27.223 45.4992 27.6336C45.2379 28.0443 44.8599 28.3523 44.3652 28.5576C43.8705 28.7723 43.2779 28.8796 42.5872 28.8796Z" fill="#38AE04"/>
<path d="M80.8965 24.7963C81.1667 24.7391 81.432 24.9118 81.4892 25.182C81.5463 25.4522 81.3736 25.7175 81.1035 25.7746L80.8965 24.7963ZM17.902 9.27585C17.6312 9.2217 17.4556 8.95829 17.5097 8.68751L18.3921 4.27488C18.4463 4.0041 18.7097 3.82848 18.9805 3.88264C19.2513 3.93679 19.4269 4.2002 19.3727 4.47098L18.5883 8.39331L22.5107 9.1777C22.7815 9.23185 22.9571 9.49526 22.9029 9.76604C22.8488 10.0368 22.5854 10.2124 22.3146 10.1583L17.902 9.27585ZM49.5 5.78511L49.1 6.08512L49.5 5.78511ZM81.1035 25.7746C74.5484 27.1613 69.5295 27.0202 65.6158 25.8985C61.6946 24.7746 58.9175 22.676 56.8359 20.2109C54.7618 17.7546 53.3817 14.9378 52.2418 12.3862C51.0854 9.79773 50.2012 7.55331 49.1 6.08512L49.9 5.48509C51.0894 7.07087 52.038 9.47849 53.1548 11.9783C54.2882 14.5151 55.6217 17.2229 57.6 19.5657C59.5708 21.8997 62.1847 23.8748 65.8914 24.9372C69.6056 26.0018 74.4516 26.1597 80.8965 24.7963L81.1035 25.7746ZM49.1 6.08512C45.5285 1.32337 39.7903 0.78917 33.8617 2.14783C27.9435 3.50409 22.0009 6.71914 18.2774 9.20158L17.7226 8.36954C21.4991 5.85177 27.5565 2.56686 33.6383 1.17309C39.7097 -0.218284 45.9715 0.247389 49.9 5.48509L49.1 6.08512Z" fill="#38AE04"/>
</svg>
