<svg width="96" height="96" viewBox="0 0 96 96" fill="none" xmlns="http://www.w3.org/2000/svg">
<g clip-path="url(#clip0_98_1495)">
<path d="M75.7029 96H20.2457C20.1943 95.9914 20.1343 95.9657 20.0829 95.9657C17.5029 95.8114 15.0257 95.22 12.66 94.1571C9.84857 92.8971 7.42286 91.1143 5.37429 88.8086C3.73714 86.9743 2.46 84.9086 1.53429 82.6286C0.857143 80.9571 0.394286 79.2257 0.18 77.4343C0.111429 76.8686 0.06 76.3114 0 75.7543C0 57.2571 0 38.7514 0 20.2543C0.00857143 20.1943 0.0257143 20.1429 0.0342857 20.0829C0.188571 17.4771 0.797143 14.9743 1.86857 12.5914C3.09429 9.87428 4.81714 7.52571 7.02 5.52C8.45143 4.21714 10.0457 3.12857 11.7771 2.25429C13.9886 1.14857 16.3114 0.437143 18.7629 0.154286C19.2771 0.0942857 19.7914 0.0514286 20.2971 0C38.7429 0 57.1971 0 75.6429 0C75.7029 0.0171429 75.7629 0.0428571 75.8314 0.0514286C76.6457 0.145714 77.4686 0.197143 78.2829 0.325714C80.2457 0.634286 82.1143 1.25143 83.8971 2.11714C85.8429 3.06 87.6086 4.26857 89.1857 5.74286C90.3429 6.82286 91.38 8.01429 92.2714 9.32571C93.5743 11.2371 94.5514 13.3029 95.1771 15.5314C95.5371 16.8343 95.7943 18.1457 95.8971 19.5C95.9143 19.7829 95.9657 20.0657 96 20.3486V75.6514C95.9829 75.7286 95.9486 75.8057 95.94 75.8829C95.88 76.4828 95.8543 77.0914 95.7686 77.6914C95.5286 79.3371 95.1086 80.9314 94.5 82.4743C93.6857 84.5229 92.5886 86.4086 91.1914 88.1143C90 89.5714 88.6457 90.8486 87.12 91.9543C85.3629 93.2228 83.4686 94.2 81.42 94.8943C79.8771 95.4171 78.2914 95.7429 76.6714 95.9057C76.3457 95.94 76.02 95.9743 75.6943 96.0086L75.7029 96ZM48.0343 7.70571V7.72286C40.6029 7.72286 33.1714 7.72286 25.7314 7.72286C25.08 7.72286 24.4286 7.74857 23.7857 7.81714C21.4457 8.05714 19.2343 8.73429 17.1686 9.85714C14.1086 11.52 11.7171 13.86 10.0114 16.8857C8.42571 19.6886 7.70571 22.7143 7.71429 25.9286C7.72286 40.6286 7.71429 55.3286 7.72286 70.0286C7.72286 70.8343 7.75714 71.6486 7.84286 72.4457C8.10857 74.9057 8.88857 77.2029 10.1314 79.3371C11.5543 81.7714 13.44 83.7771 15.7971 85.3286C18.4371 87.0771 21.3429 88.0971 24.5057 88.2343C26.9486 88.3371 29.4086 88.2857 31.8514 88.2857C44.6829 88.2857 57.5143 88.3028 70.3543 88.2857C71.3571 88.2857 72.3686 88.2 73.3629 88.0286C76.5171 87.5057 79.3457 86.22 81.7886 84.1457C86.0486 80.5371 88.2771 75.9086 88.2857 70.3286C88.3286 55.4229 88.3029 40.5086 88.2857 25.6029C88.2857 24.7029 88.2 23.8029 88.0714 22.92C87.78 20.8286 87.0943 18.8657 86.0743 17.0229C84.3086 13.8429 81.8143 11.4 78.5914 9.71143C75.9771 8.34 73.1743 7.69714 70.2257 7.69714C62.8286 7.69714 55.4229 7.69714 48.0257 7.69714L48.0343 7.70571Z" fill="#2C8BF2"/>
<path d="M30.2487 34.5944C30.1287 34.5944 30.0601 34.5944 29.983 34.5944C28.8687 34.5944 27.7458 34.5944 26.6315 34.5944C26.1515 34.5944 25.9115 34.8258 25.9115 35.2972C25.9115 41.3658 25.9115 47.4258 25.9115 53.4944V53.7601C26.2972 53.7601 26.6572 53.7601 27.0087 53.7601C32.4172 53.7601 37.8258 53.7601 43.2344 53.7601C44.4601 53.7601 45.4372 54.6772 45.4801 55.9115C45.5144 56.9658 45.4801 58.0286 45.4801 59.0829C45.4801 59.1086 45.4715 59.1258 45.463 59.1686H17.3144C17.3144 59.1686 17.2887 59.1344 17.2887 59.1258C17.2887 58.0115 17.2544 56.8886 17.2887 55.7744C17.323 54.6772 18.3344 53.7429 19.4315 53.7429C20.8801 53.7429 22.3287 53.7429 23.7772 53.7429C23.9058 53.7429 24.043 53.7429 24.2144 53.7429V53.3315C24.2144 47.3144 24.2144 41.2972 24.2144 35.2801C24.2144 33.8658 25.1915 32.8972 26.5972 32.8972C27.703 32.8972 28.8172 32.8972 29.923 32.8972C30.0172 32.8972 30.103 32.8972 30.2315 32.8972V27.2915H65.7258V32.8972C65.8372 32.8972 65.923 32.9144 66.0172 32.9144C67.1658 32.9144 68.3144 32.9144 69.463 32.9144C70.7487 32.9144 71.743 33.8915 71.743 35.1858C71.743 41.2201 71.743 47.2544 71.743 53.2886C71.743 53.8201 71.6658 53.7601 72.223 53.7686C73.6372 53.7686 75.0601 53.7858 76.4744 53.7686C77.7087 53.7601 78.703 54.7629 78.6772 55.9544C78.6601 56.9144 78.6772 57.8744 78.6772 58.8258C78.6772 58.9286 78.6772 59.0229 78.6772 59.1515H50.503C50.503 59.0744 50.4944 58.9972 50.4944 58.9201C50.4944 57.9515 50.4944 56.9829 50.4944 56.0229C50.4944 54.7201 51.4801 53.7601 52.7744 53.7601C58.4144 53.7601 64.0544 53.7601 69.6944 53.7686C70.1058 53.7686 70.0801 53.8201 70.0801 53.3744C70.0801 47.3915 70.0801 41.4086 70.0801 35.4258C70.0801 34.7829 69.8744 34.5686 69.2315 34.5686C68.1858 34.5686 67.1487 34.5686 66.103 34.5686C65.9915 34.5686 65.8715 34.5686 65.7172 34.5686C65.7172 34.7144 65.7172 34.8344 65.7172 34.9544C65.7172 38.4172 65.7172 41.8886 65.7172 45.3515C65.7172 46.8515 64.5687 48.0086 63.0601 48.0086C57.1201 48.0086 51.1801 48.0086 45.2401 48.0086C41.1344 48.0086 37.0201 48.0086 32.9144 48.0086C31.3715 48.0086 30.2315 46.8686 30.2315 45.3258C30.2315 41.8715 30.2315 38.4086 30.2315 34.9544C30.2315 34.8429 30.2315 34.7229 30.2315 34.5772L30.2487 34.5944ZM48.0087 35.4086C50.3487 35.4086 52.6887 35.4086 55.0287 35.4086C55.3201 35.4086 55.6115 35.4086 55.903 35.4086C56.1344 35.4086 56.3401 35.2115 56.3744 34.9972C56.4087 34.7658 56.2887 34.5601 56.0401 34.4829C55.9458 34.4486 55.843 34.4401 55.7487 34.4401C50.6058 34.4401 45.4715 34.4401 40.3287 34.4401C40.2515 34.4401 40.1744 34.4401 40.1058 34.4401C39.823 34.4658 39.6172 34.6886 39.6258 34.9544C39.6344 35.2029 39.8487 35.3915 40.1315 35.4001C40.2344 35.4001 40.3287 35.4001 40.4315 35.4001C42.9515 35.4001 45.4801 35.4001 48.0001 35.4001L48.0087 35.4086ZM47.9744 39.5486C48.7972 39.5486 49.6201 39.5486 50.4515 39.5486C52.2258 39.5486 54.0001 39.5486 55.7744 39.5486C55.9372 39.5486 56.1344 39.4715 56.263 39.3686C56.4172 39.2486 56.4258 39.0429 56.3315 38.8629C56.2115 38.6401 56.0058 38.5801 55.7658 38.5801C50.6058 38.5801 45.4373 38.5801 40.2772 38.5801C40.2087 38.5801 40.1401 38.5801 40.0801 38.5801C39.8144 38.6229 39.6344 38.8286 39.643 39.0772C39.643 39.3258 39.8487 39.5144 40.1144 39.5315C40.2001 39.5315 40.2772 39.5315 40.363 39.5315C42.9001 39.5315 45.4458 39.5315 47.983 39.5315L47.9744 39.5486ZM70.5087 56.6658C69.5315 56.6658 68.563 56.6658 67.5858 56.6658C67.003 56.6658 66.4201 56.6658 65.8372 56.6744C65.5544 56.6744 65.3401 56.8801 65.3315 57.1286C65.3315 57.3858 65.5458 57.6001 65.8287 57.6172C65.8715 57.6172 65.9144 57.6172 65.9572 57.6172C67.843 57.6172 69.7201 57.6172 71.6058 57.6172C72.8058 57.6172 74.0058 57.6172 75.2058 57.6172C75.4201 57.6172 75.6087 57.5486 75.6601 57.3429C75.6944 57.1886 75.703 56.9572 75.6087 56.8629C75.4972 56.7429 75.283 56.6658 75.1115 56.6658C73.5772 56.6486 72.043 56.6658 70.5087 56.6658ZM37.2772 57.6086C38.8372 57.6086 40.3887 57.6086 41.9487 57.6086C42.2572 57.6086 42.4887 57.4029 42.4887 57.1458C42.4887 56.8801 42.2572 56.6829 41.9401 56.6829C38.8372 56.6829 35.7258 56.6829 32.623 56.6829C32.5287 56.6829 32.4172 56.7001 32.3401 56.7515C32.1515 56.8715 32.0658 57.0344 32.1344 57.2658C32.2115 57.5229 32.4001 57.6086 32.6487 57.6086C34.1915 57.6086 35.7258 57.6086 37.2687 57.6086H37.2772ZM55.5515 57.6172C55.8601 57.6172 56.1687 57.6172 56.4772 57.6172C56.7601 57.6172 56.9915 57.4029 56.9915 57.1458C56.9915 56.8972 56.7601 56.6829 56.4687 56.6829C55.843 56.6829 55.2172 56.6829 54.5915 56.6829C54.3172 56.6829 54.0944 56.8972 54.0858 57.1372C54.0858 57.3858 54.3172 57.6086 54.5915 57.6172C54.9087 57.6172 55.2258 57.6172 55.543 57.6172H55.5515ZM60.3515 57.6172C60.6687 57.6172 60.9858 57.6172 61.303 57.6172C61.603 57.6172 61.8344 57.3944 61.8258 57.1286C61.8258 56.8715 61.5944 56.6744 61.2944 56.6744C60.6772 56.6744 60.0601 56.6744 59.443 56.6744C59.1515 56.6744 58.9287 56.8886 58.9287 57.1458C58.9287 57.3944 59.1601 57.6086 59.443 57.6086C59.743 57.6086 60.043 57.6086 60.343 57.6086L60.3515 57.6172ZM22.303 57.6086C22.6287 57.6086 22.9544 57.6086 23.2801 57.6086C23.5372 57.6086 23.7515 57.3858 23.7515 57.1544C23.7515 56.9229 23.5372 56.7001 23.2801 56.6915C22.6372 56.6915 21.9944 56.6915 21.3601 56.6915C21.0944 56.6915 20.8715 56.9229 20.8715 57.1629C20.8715 57.3858 21.1201 57.6086 21.3772 57.6086C21.6858 57.6086 21.9944 57.6086 22.303 57.6086ZM27.1201 57.6086C27.4201 57.6086 27.7201 57.6086 28.0201 57.6086C28.3458 57.6086 28.5858 57.4115 28.5858 57.1372C28.5858 56.8886 28.3458 56.6829 28.0287 56.6829C27.4287 56.6829 26.8287 56.6829 26.2287 56.6829C25.9372 56.6829 25.7058 56.8886 25.6972 57.1372C25.6972 57.4029 25.9287 57.6001 26.2372 57.6086C26.5287 57.6086 26.8201 57.6086 27.1115 57.6086H27.1201Z" fill="#9F56FF"/>
<path d="M17.2803 60.1714H45.4974C45.4974 60.2829 45.4974 60.3857 45.4974 60.4886C45.4974 65.0657 45.4974 69.6343 45.4974 74.2114C45.4974 75.5143 44.5031 76.5 43.2003 76.5C35.3231 76.5 27.4546 76.5 19.5774 76.5C18.2574 76.5 17.2888 75.5314 17.2888 74.2114C17.2888 69.6772 17.2888 65.1429 17.2888 60.6086C17.2888 60.4629 17.2888 60.3172 17.2888 60.1543L17.2803 60.1714ZM31.3717 68.8286C29.3403 68.8286 27.3088 68.8286 25.2774 68.8286C24.9431 68.8286 24.7117 69.0172 24.7031 69.2914C24.7031 69.5572 24.9346 69.7543 25.2688 69.7543C29.3231 69.7543 33.3774 69.7543 37.4403 69.7543C37.5003 69.7543 37.5603 69.7543 37.6117 69.7543C37.8431 69.7286 37.9974 69.5914 38.0403 69.3686C38.0917 69.1457 37.9717 68.9743 37.7746 68.88C37.6803 68.8286 37.5517 68.8286 37.4317 68.8286C35.4088 68.8286 33.386 68.8286 31.3631 68.8286H31.3717ZM31.3974 65.58C29.3917 65.58 27.386 65.58 25.3803 65.58C25.2946 65.58 25.2174 65.58 25.1317 65.58C24.9174 65.5972 24.7117 65.82 24.7031 66.0343C24.7031 66.24 24.9088 66.4714 25.1231 66.4972C25.226 66.5057 25.3203 66.4972 25.4231 66.4972C29.0231 66.4972 32.6146 66.4972 36.2146 66.4972C36.6688 66.4972 37.1317 66.4972 37.586 66.4972C37.8174 66.4972 38.0146 66.3257 38.0488 66.1114C38.0831 65.8886 37.9803 65.7172 37.7831 65.6229C37.6888 65.5714 37.5603 65.5714 37.4403 65.5714C35.426 65.5714 33.4117 65.5714 31.3974 65.5714V65.58Z" fill="#9F56FF"/>
<path d="M50.5029 60.1885H78.6944C78.6944 60.3514 78.6944 60.4971 78.6944 60.6342C78.6944 65.1514 78.6772 69.6685 78.6944 74.1856C78.6944 75.4285 77.7772 76.4914 76.3801 76.4914C68.5201 76.4914 60.6686 76.4914 52.8086 76.4914C51.4972 76.4914 50.5029 75.5314 50.5029 74.2456C50.5029 69.6256 50.5029 65.0142 50.5029 60.3942C50.5029 60.3256 50.5029 60.2656 50.5029 60.1799V60.1885ZM64.6115 69.7628C65.5629 69.7628 66.5144 69.7628 67.4572 69.7628C68.5715 69.7628 69.6944 69.7628 70.8086 69.7628C71.0658 69.7628 71.2801 69.5571 71.2972 69.3256C71.3144 69.0942 71.1172 68.8628 70.8686 68.8285C70.7486 68.8114 70.6201 68.8114 70.4915 68.8114C66.5058 68.8114 62.5286 68.8114 58.5429 68.8114C58.4658 68.8114 58.3886 68.8114 58.3201 68.8199C58.0972 68.8628 57.9344 69.0599 57.9344 69.2828C57.9344 69.4971 58.0972 69.7114 58.3115 69.7456C58.4144 69.7628 58.5258 69.7542 58.6372 69.7542C60.6258 69.7542 62.6229 69.7542 64.6115 69.7542V69.7628ZM64.6029 66.5142C66.5744 66.5142 68.5544 66.5142 70.5258 66.5142C70.6458 66.5142 70.7572 66.5142 70.8772 66.5142C71.2029 66.4885 71.4001 66.1199 71.2458 65.8285C71.1172 65.5799 70.8944 65.5542 70.6458 65.5542C66.6172 65.5542 62.5972 65.5542 58.5686 65.5628C58.4829 65.5628 58.3801 65.5371 58.3201 65.5799C58.1829 65.6742 58.0372 65.7856 57.9601 65.9228C57.8744 66.0856 57.9429 66.2828 58.1058 66.3856C58.2258 66.4628 58.3801 66.5056 58.5172 66.5056C60.5401 66.5056 62.5629 66.5056 64.5944 66.5056L64.6029 66.5142Z" fill="#9F56FF"/>
<path d="M30.2488 26.3228C30.2488 24.9171 30.2488 23.5371 30.2488 22.1485C30.2488 21.8914 30.2917 21.6342 30.3517 21.3856C30.6602 20.2628 31.6802 19.4914 32.8459 19.4914C41.4945 19.4914 50.1431 19.4914 58.7917 19.4914C60.2231 19.4914 61.6545 19.4828 63.0945 19.4914C63.9774 19.4999 64.7059 19.8428 65.2374 20.5714C65.5459 20.9914 65.7174 21.4714 65.7259 21.9856C65.7431 23.3742 65.7259 24.7714 65.7259 26.1599C65.7259 26.2028 65.7174 26.2371 65.7088 26.2971H30.2402L30.2488 26.3228ZM55.7145 24.0599C57.6945 24.0599 59.6745 24.0599 61.6631 24.0599C61.9631 24.0599 62.2031 23.8456 62.2031 23.5885C62.2031 23.3314 61.9545 23.0999 61.6717 23.0999C57.7117 23.0999 53.7602 23.0999 49.8002 23.0999C49.4488 23.0999 49.2088 23.3056 49.2174 23.5799C49.2174 23.8628 49.4574 24.0428 49.8174 24.0428C51.7802 24.0428 53.7517 24.0428 55.7145 24.0428V24.0599ZM36.4288 24.0514C36.8231 24.0514 37.2088 24.0514 37.6031 24.0514C37.9117 24.0514 38.1431 23.8456 38.1345 23.5799C38.1345 23.3228 37.9117 23.1171 37.6117 23.1171C36.8317 23.1171 36.0431 23.1171 35.2631 23.1171C34.9545 23.1171 34.7231 23.3314 34.7231 23.5885C34.7231 23.8542 34.9545 24.0514 35.2717 24.0514C35.6574 24.0514 36.0345 24.0514 36.4202 24.0514H36.4288ZM42.5831 24.0514C42.9945 24.0514 43.3974 24.0514 43.8088 24.0514C44.0745 24.0514 44.2974 23.8371 44.3145 23.5885C44.3231 23.3571 44.0917 23.1085 43.8345 23.1085C43.0202 23.1085 42.2059 23.1085 41.3917 23.1085C41.1174 23.1085 40.9031 23.3399 40.9031 23.5799C40.9031 23.8285 41.1431 24.0428 41.4174 24.0428C41.8117 24.0428 42.1974 24.0428 42.5917 24.0428L42.5831 24.0514Z" fill="#9F56FF"/>
</g>
<defs>
<clipPath id="clip0_98_1495">
<rect width="96" height="96" fill="white"/>
</clipPath>
</defs>
</svg>
