<svg width="218" height="200" viewBox="0 0 218 200" fill="none" xmlns="http://www.w3.org/2000/svg">
<path fill-rule="evenodd" clip-rule="evenodd" d="M116.259 0.185871C146.21 0.905917 178.044 3.68957 197.554 26.3448C217.756 49.803 221.01 83.0697 213.457 113.051C206.113 142.2 185.349 164.755 158.999 179.38C130.12 195.409 96.6865 207.201 66.0289 194.879C33.3043 181.726 10.2486 151.114 3.04074 116.694C-4.01177 83.0165 5.87465 47.0294 29.8921 22.3141C51.6474 -0.0733336 84.9944 -0.565767 116.259 0.185871Z" fill="#2C8BF2" fill-opacity="0.1"/>
<path d="M165 130H161V90C161 86.8174 159.736 83.7652 157.485 81.5147C155.235 79.2643 152.183 78 149 78H141.62C139.664 73.3949 136.808 69.2268 133.22 65.74C129.412 61.7946 124.754 58.771 119.6 56.9C114.1 55.08 109.4 55.76 106.38 58.78C106.24 58.92 98.94 69.58 93.16 78.02H69C65.8174 78.02 62.7652 79.2843 60.5147 81.5347C58.2643 83.7852 57 86.8374 57 90.02V130H53C51.9391 130 50.9217 130.421 50.1716 131.172C49.4214 131.922 49 132.939 49 134V144C49 146.652 50.0536 149.196 51.9289 151.071C53.8043 152.946 56.3478 154 59 154H159C161.652 154 164.196 152.946 166.071 151.071C167.946 149.196 169 146.652 169 144V134C169 132.939 168.579 131.922 167.828 131.172C167.078 130.421 166.061 130 165 130ZM112.02 64.5C112.561 64.1002 113.231 63.915 113.9 63.98C114.984 64.0068 116.057 64.2024 117.08 64.56C121.038 66.0507 124.612 68.4083 127.54 71.46C134.52 78.44 136.02 85.46 134.52 87C133.7 87.82 131.22 87.74 128.02 86.38C128.9 84.6711 129.325 82.7641 129.254 80.8431C129.182 78.9221 128.616 77.052 127.611 75.4135C126.606 73.7749 125.195 72.4233 123.515 71.489C121.835 70.5547 119.942 70.0695 118.02 70.08C116.204 70.0992 114.419 70.559 112.82 71.42C111.28 68 111.16 65.34 112.02 64.5ZM113.34 85.68C116.519 88.9256 120.259 91.5683 124.38 93.48L106.62 104.72C104.102 103.349 101.797 101.618 99.78 99.58C97.2812 97.1721 95.2473 94.3246 93.78 91.18L105.2 74.12C107.151 78.4575 109.914 82.3815 113.34 85.68ZM119 142H99C97.4087 142 95.8826 141.368 94.7574 140.243C93.6321 139.117 93 137.591 93 136H125C125 137.591 124.368 139.117 123.243 140.243C122.117 141.368 120.591 142 119 142ZM153 130H65V90C65 88.9391 65.4214 87.9217 66.1716 87.1716C66.9217 86.4214 67.9391 86 69 86H87.68L86.2 88.16L76.62 99.34C76.4529 99.5386 76.3056 99.7529 76.18 99.98C75.6252 100.513 75.2358 101.194 75.0584 101.943C74.8811 102.691 74.9233 103.475 75.18 104.2C76.5113 108.7 78.8997 112.816 82.1458 116.205C85.3919 119.593 89.4015 122.157 93.84 123.68C94.5688 123.932 95.3549 123.968 96.1036 123.783C96.8523 123.599 97.5317 123.202 98.06 122.64L98.36 122.42L107.86 114.26L124.34 119.68C125.348 120.012 126.446 119.929 127.393 119.451C128.34 118.973 129.058 118.138 129.39 117.13C129.722 116.122 129.639 115.024 129.161 114.077C128.683 113.13 127.848 112.412 126.84 112.08L115.62 108.4C115.62 108.4 138.48 94.06 140.16 92.58C141.077 91.7413 141.815 90.7263 142.33 89.5957C142.846 88.4651 143.128 87.2422 143.16 86H149C150.061 86 151.078 86.4214 151.828 87.1716C152.579 87.9217 153 88.9391 153 90V130Z" fill="url(#paint0_linear_98_1837)"/>
<defs>
<linearGradient id="paint0_linear_98_1837" x1="49" y1="104.949" x2="169" y2="104.949" gradientUnits="userSpaceOnUse">
<stop stop-color="#2C8BF2"/>
<stop offset="1" stop-color="#9F56FF"/>
</linearGradient>
</defs>
</svg>
