<svg width="100" height="96" viewBox="0 0 100 96" fill="none" xmlns="http://www.w3.org/2000/svg">
<g clip-path="url(#clip0_98_1480)">
<path fill-rule="evenodd" clip-rule="evenodd" d="M6.09345 0H93.6059C95.2693 0 96.7948 0.689713 97.8984 1.79326L97.9065 1.80137L97.9146 1.80948L97.9227 1.8176C99.0262 2.92925 99.7078 4.44662 99.7078 6.11005V89.9143C99.7078 91.594 99.0181 93.1194 97.9146 94.223C96.8111 95.3265 95.2856 96.0162 93.6059 96.0162H6.09345C4.43002 96.0162 2.90454 95.3346 1.79288 94.223L1.78477 94.2149L1.77665 94.2067L1.76854 94.1986C0.664998 93.087 -0.0166016 91.5696 -0.0166016 89.9062V6.09382C-0.0166016 4.41417 0.664998 2.88868 1.76854 1.78514C1.83345 1.72023 1.89837 1.65531 1.9714 1.59851C3.07494 0.608571 4.51928 0 6.09345 0ZM94.1982 21.8517C94.0116 21.8842 93.8088 21.9004 93.614 21.9004H6.10156C5.89871 21.9004 5.70396 21.8842 5.51733 21.8517V89.8981C5.51733 90.0604 5.58225 90.2064 5.67962 90.3119L5.68773 90.32C5.79322 90.4255 5.93928 90.4823 6.10156 90.4823H93.614C93.7682 90.4823 93.9143 90.4174 94.0279 90.3038C94.1333 90.1983 94.2064 90.0522 94.2064 89.89L94.1982 21.8517ZM40.6684 7.87085C42.8592 7.87085 44.6281 9.64787 44.6281 11.8306C44.6281 14.0215 42.8511 15.7904 40.6684 15.7904C38.4775 15.7904 36.7086 14.0134 36.7086 11.8306C36.7086 9.64787 38.4856 7.87085 40.6684 7.87085ZM26.8173 7.87085C29.0082 7.87085 30.7771 9.64787 30.7771 11.8306C30.7771 14.0215 29 15.7904 26.8173 15.7904C24.6265 15.7904 22.8575 14.0134 22.8575 11.8306C22.8575 9.64787 24.6346 7.87085 26.8173 7.87085ZM12.9744 7.87085C15.1652 7.87085 16.9341 9.64787 16.9341 11.8306C16.9341 14.0215 15.1571 15.7904 12.9744 15.7904C10.7835 15.7904 9.01459 14.0134 9.01459 11.8306C9.01459 9.64787 10.7835 7.87085 12.9744 7.87085Z" fill="#2C8BF2"/>
<path fill-rule="evenodd" clip-rule="evenodd" d="M24.5335 46.8696L29.5887 46.5531C29.6942 47.3727 29.9214 47.9975 30.2622 48.4194C30.8139 49.1172 31.5929 49.4661 32.6153 49.4661C33.3699 49.4661 33.9623 49.2876 34.368 48.9306C34.7818 48.5736 34.9847 48.1597 34.9847 47.6891C34.9847 47.2428 34.7899 46.8452 34.4004 46.4882C34.0109 46.1312 33.1021 45.8066 31.6821 45.4902C29.3452 44.9708 27.6899 44.273 26.6919 43.3967C25.6857 42.5284 25.1907 41.4249 25.1907 40.0779C25.1907 39.1935 25.4504 38.3577 25.9616 37.5706C26.4728 36.7835 27.2436 36.1587 28.2742 35.7125C29.3047 35.2662 30.7166 35.039 32.5098 35.039C34.7088 35.039 36.3884 35.4447 37.5407 36.2723C38.6929 37.0919 39.3826 38.3983 39.6017 40.1834L34.5952 40.4836C34.4653 39.7047 34.1813 39.1286 33.7594 38.7796C33.3293 38.4226 32.737 38.2441 31.9905 38.2441C31.3738 38.2441 30.9032 38.3739 30.5867 38.6336C30.2703 38.8932 30.1161 39.2178 30.1161 39.5911C30.1161 39.867 30.2459 40.1104 30.4975 40.3295C30.7409 40.5567 31.3332 40.7676 32.2745 40.9624C34.6033 41.4655 36.2667 41.9767 37.2729 42.4879C38.2791 42.9991 39.0175 43.632 39.4719 44.3947C39.9263 45.1494 40.1616 46.0014 40.1616 46.9426C40.1616 48.0462 39.8532 49.0685 39.2447 50.0017C38.628 50.9348 37.7841 51.6408 36.6805 52.1276C35.5851 52.6064 34.2057 52.8498 32.5341 52.8498C29.6049 52.8498 27.5763 52.2818 26.4484 51.1539C25.3206 50.0341 24.6795 48.606 24.5335 46.8696ZM42.8717 35.3311H57.1204V39.015H48.219V41.7576H56.4713V45.2711H48.219V48.6628H57.3882V52.5658H42.8717V35.3311ZM59.6277 43.9647C59.6277 41.149 60.4067 38.9582 61.9809 37.4002C63.5469 35.8342 65.7297 35.0471 68.5291 35.0471C71.3934 35.0471 73.6086 35.8179 75.1584 37.3515C76.7083 38.8932 77.4872 41.0516 77.4872 43.8186C77.4872 45.831 77.1464 47.4782 76.4729 48.7683C75.7913 50.0585 74.8095 51.0565 73.5356 51.7787C72.2535 52.4928 70.655 52.8498 68.74 52.8498C66.8007 52.8498 65.186 52.5415 63.912 51.9248C62.6381 51.3 61.6076 50.3263 60.8124 48.9874C60.0253 47.6567 59.6277 45.977 59.6277 43.9647ZM64.9507 43.9728C64.9507 45.7092 65.2752 46.9588 65.9244 47.7216C66.5735 48.4762 67.458 48.8576 68.5696 48.8576C69.7138 48.8576 70.6063 48.4843 71.2311 47.7459C71.864 46.9994 72.1724 45.6687 72.1724 43.7375C72.1724 42.1146 71.8397 40.9299 71.1906 40.1834C70.5333 39.4369 69.6488 39.0636 68.521 39.0636C67.4499 39.0636 66.5817 39.445 65.9325 40.1996C65.2753 40.9624 64.9507 42.2201 64.9507 43.9728ZM54.5401 81.9151C53.258 81.9151 52.2194 80.7873 52.2194 79.3916C52.2194 77.9959 53.258 76.8681 54.5401 76.8681H83.1185C84.4006 76.8681 85.4392 77.9959 85.4392 79.3916C85.4392 80.7873 84.4006 81.9151 83.1185 81.9151H54.5401ZM18.0502 81.9151C16.7843 81.9151 15.7538 80.7873 15.7538 79.3916C15.7538 77.9959 16.7843 76.8681 18.0502 76.8681H44.5433C45.8091 76.8681 46.8396 77.9959 46.8396 79.3916C46.8396 80.7873 45.8091 81.9151 44.5433 81.9151H18.0502ZM17.1333 70.8878C15.8674 70.8878 14.8369 69.76 14.8369 68.3643C14.8369 66.9686 15.8674 65.8408 17.1333 65.8408H43.6264C44.8922 65.8408 45.9227 66.9686 45.9227 68.3643C45.9227 69.76 44.8922 70.8878 43.6264 70.8878H17.1333ZM54.5401 70.8878C53.258 70.8878 52.2194 69.76 52.2194 68.3643C52.2194 66.9686 53.258 65.8408 54.5401 65.8408H83.1185C84.4006 65.8408 85.4392 66.9686 85.4392 68.3643C85.4392 69.76 84.4006 70.8878 83.1185 70.8878H54.5401ZM15.4293 30H85.1633V57.3045H15.4293V30Z" fill="#9F56FF"/>
</g>
<defs>
<clipPath id="clip0_98_1480">
<rect width="99.7082" height="96" fill="white"/>
</clipPath>
</defs>
</svg>
