<svg width="124" height="104" viewBox="0 0 124 104" fill="none" xmlns="http://www.w3.org/2000/svg">
<g clip-path="url(#clip0_98_1430)">
<path fill-rule="evenodd" clip-rule="evenodd" d="M41.9762 39.9237L7.76175 44.6705L0.78125 53.8448L9.89579 60.8253L15.181 53.9246L22.6701 59.7284L28.454 52.1695L35.6838 57.714L42.9834 52.5086C44.675 57.4687 47.798 61.8167 51.9583 65.0037C63.3465 73.7393 79.4116 71.9144 87.858 60.9251C96.3044 49.9358 93.8413 34.0003 82.483 25.2248C71.1248 16.4493 55.0297 18.324 46.5833 29.3034C44.1957 32.4152 42.5978 36.0593 41.9263 39.9237H41.9762ZM75.1037 41.0107C74.3756 40.4539 73.499 40.1254 72.5844 40.0666C71.6698 40.0077 70.7582 40.2213 69.9649 40.6802C69.1715 41.1391 68.532 41.8228 68.127 42.645C67.722 43.4671 67.5697 44.3909 67.6894 45.2995C67.8091 46.2082 68.1953 47.061 68.7994 47.7503C69.4034 48.4395 70.1982 48.9344 71.0833 49.1722C71.9684 49.4101 72.9041 49.3803 73.7723 49.0867C74.6405 48.7931 75.4022 48.2488 75.9613 47.5225C76.3335 47.039 76.6065 46.4868 76.7649 45.8975C76.9233 45.3082 76.9638 44.6935 76.8841 44.0886C76.8044 43.4836 76.6061 42.9004 76.3006 42.3722C75.9951 41.844 75.5883 41.3813 75.1037 41.0107Z" fill="#9F56FF"/>
<path fill-rule="evenodd" clip-rule="evenodd" d="M66.1286 0.444198C74.236 0.44999 82.1914 2.64528 89.1544 6.79819C96.1174 10.9511 101.83 16.9075 105.688 24.0381C109.546 31.1688 111.406 39.209 111.073 47.3095C110.739 55.4101 108.224 63.2702 103.793 70.0598L123.269 91.2805L109.837 103.556L91.049 82.8939C82.3908 88.6442 72.0097 91.2219 61.6673 90.1895C51.3249 89.157 41.6582 84.5781 34.3075 77.2297C32.0575 74.9596 30.0521 72.4595 28.3242 69.7706L37.9374 68.6138C38.7052 69.5412 39.513 70.4387 40.3606 71.2863C43.707 74.906 47.7498 77.8128 52.2467 79.8324C56.7435 81.8519 61.6019 82.9427 66.5305 83.0394C71.4591 83.136 76.3565 82.2365 80.9291 80.3948C85.5017 78.5531 89.6553 75.8071 93.1411 72.3213C96.6268 68.8356 99.3728 64.6819 101.215 60.1094C103.056 55.5368 103.956 50.6394 103.859 45.7108C103.762 40.7822 102.672 35.9238 100.652 31.4269C98.6325 26.9301 95.7258 22.8872 92.1061 19.5409C88.7071 16.1382 84.6708 13.4388 80.228 11.5971C75.7851 9.75542 71.0228 8.80747 66.2134 8.80747C61.4039 8.80747 56.6416 9.75542 52.1988 11.5971C47.7559 13.4388 43.7196 16.1382 40.3207 19.5409C37.7984 22.0674 35.6554 24.946 33.9585 28.087L23.9863 29.7224C26.2451 23.6773 29.7672 18.1835 34.3175 13.6074C38.4894 9.42334 43.448 6.10615 48.9077 3.84699C54.3673 1.58783 60.22 0.431353 66.1286 0.444198Z" fill="#2C8BF2"/>
</g>
<defs>
<clipPath id="clip0_98_1430">
<rect width="122.538" height="103.112" fill="white" transform="translate(0.731445 0.444092)"/>
</clipPath>
</defs>
</svg>
