<svg width="218" height="200" viewBox="0 0 218 200" fill="none" xmlns="http://www.w3.org/2000/svg">
<path fill-rule="evenodd" clip-rule="evenodd" d="M116.259 0.185871C146.21 0.905917 178.044 3.68957 197.554 26.3448C217.756 49.803 221.01 83.0697 213.457 113.051C206.113 142.2 185.349 164.755 158.999 179.38C130.12 195.409 96.6865 207.201 66.0289 194.879C33.3043 181.726 10.2486 151.114 3.04074 116.694C-4.01177 83.0165 5.87465 47.0294 29.8921 22.3141C51.6474 -0.0733336 84.9944 -0.565767 116.259 0.185871Z" fill="#2C8BF2" fill-opacity="0.1"/>
<path d="M140.048 91.6352C138.765 91.6352 137.51 91.7577 136.291 91.9802C135.249 77.8137 123.434 66.6416 109.001 66.6416C94.5666 66.6416 82.7509 77.8152 81.7103 91.9838C80.4856 91.7589 79.2261 91.6355 77.9365 91.6355C66.4594 91.6355 57.1553 100.957 57.1553 112.434C57.1553 123.861 66.3793 133.265 77.7877 133.265C77.7877 133.265 139.754 133.265 140.049 133.265C151.535 133.265 160.846 123.936 160.846 112.45C160.846 100.963 151.535 91.6352 140.048 91.6352Z" fill="url(#paint0_linear_98_1869)"/>
<path d="M124.831 100.07H119.27L126.907 110.6L119.272 121.131H124.834L132.469 110.6L124.831 100.07Z" fill="white"/>
<path d="M93.1612 100.07H98.7238L91.0867 110.6L98.7219 121.131H93.16L85.5254 110.6L93.1612 100.07Z" fill="white"/>
<path d="M104.224 121.109L111.763 100.051H113.601L106.034 121.109H104.224Z" fill="white"/>
<defs>
<linearGradient id="paint0_linear_98_1869" x1="57.1553" y1="99.9533" x2="160.846" y2="99.9533" gradientUnits="userSpaceOnUse">
<stop stop-color="#2C8BF2"/>
<stop offset="1" stop-color="#9F56FF"/>
</linearGradient>
</defs>
</svg>
