<svg width="218" height="200" viewBox="0 0 218 200" fill="none" xmlns="http://www.w3.org/2000/svg">
<path fill-rule="evenodd" clip-rule="evenodd" d="M116.259 0.185871C146.21 0.905917 178.044 3.68957 197.554 26.3448C217.756 49.803 221.01 83.0697 213.457 113.051C206.113 142.2 185.349 164.755 158.999 179.38C130.12 195.409 96.6865 207.201 66.0289 194.879C33.3043 181.726 10.2486 151.114 3.04074 116.694C-4.01177 83.0165 5.87465 47.0294 29.8921 22.3141C51.6474 -0.0733336 84.9944 -0.565767 116.259 0.185871Z" fill="#2C8BF2" fill-opacity="0.1"/>
<path d="M159.667 121.333H157V70.6668C157 67.1306 155.596 63.7392 153.095 61.2387C150.595 58.7383 147.203 57.3335 143.667 57.3335H74.3337C70.7974 57.3335 67.4061 58.7383 64.9056 61.2387C62.4051 63.7392 61.0003 67.1306 61.0003 70.6668V121.333H58.3337C57.6264 121.333 56.9481 121.614 56.448 122.115C55.9479 122.615 55.667 123.293 55.667 124V129.333C55.667 132.87 57.0717 136.261 59.5722 138.762C62.0727 141.262 65.4641 142.667 69.0003 142.667H149C152.537 142.667 155.928 141.262 158.428 138.762C160.929 136.261 162.334 132.87 162.334 129.333V124C162.334 123.293 162.053 122.615 161.553 122.115C161.053 121.614 160.374 121.333 159.667 121.333ZM69.0003 70.6668C69.0003 69.2523 69.5622 67.8958 70.5624 66.8956C71.5626 65.8954 72.9192 65.3335 74.3337 65.3335H143.667C145.081 65.3335 146.438 65.8954 147.438 66.8956C148.438 67.8958 149 69.2523 149 70.6668V121.333H122.334C121.983 121.331 121.635 121.399 121.31 121.531C120.985 121.664 120.689 121.86 120.44 122.107L118.574 124H99.427L97.5603 122.107C97.3111 121.86 97.0156 121.664 96.6907 121.531C96.3658 121.399 96.0179 121.331 95.667 121.333H69.0003V70.6668Z" fill="url(#paint0_linear_98_1819)"/>
<path d="M106.787 85.1735L93.4534 106.507C93.1822 106.908 93.0253 107.376 92.9998 107.86C92.9743 108.343 93.081 108.825 93.3086 109.253C93.5361 109.68 93.8759 110.038 94.2914 110.287C94.7068 110.536 95.1823 110.668 95.6668 110.667C97.0813 110.667 98.4378 111.229 99.438 112.229C100.438 113.229 101 114.586 101 116C101 116.707 101.281 117.386 101.781 117.886C102.281 118.386 102.96 118.667 103.667 118.667H114.333C115.041 118.667 115.719 118.386 116.219 117.886C116.719 117.386 117 116.707 117 116C117 114.586 117.562 113.229 118.562 112.229C119.562 111.229 120.919 110.667 122.333 110.667C122.81 110.668 123.278 110.541 123.689 110.3C124.1 110.059 124.438 109.712 124.67 109.295C124.901 108.879 125.017 108.408 125.005 107.931C124.992 107.455 124.853 106.991 124.6 106.587L111.267 85.2535C111.146 85.0756 111.003 84.9143 110.84 84.7735C110.35 84.3312 109.714 84.0864 109.053 84.0864C108.393 84.0864 107.757 84.3312 107.267 84.7735C107.091 84.886 106.929 85.0204 106.787 85.1735ZM111.667 95.8401V102.667C111.667 103.374 111.386 104.052 110.886 104.552C110.386 105.053 109.707 105.333 109 105.333C108.293 105.333 107.615 105.053 107.114 104.552C106.614 104.052 106.333 103.374 106.333 102.667V95.9735L109 91.7068L111.667 95.8401Z" fill="url(#paint1_linear_98_1819)"/>
<path d="M79.6667 116H85C85.7072 116 86.3855 115.719 86.8856 115.219C87.3857 114.719 87.6667 114.041 87.6667 113.333V108C87.6667 107.293 87.3857 106.615 86.8856 106.115C86.3855 105.614 85.7072 105.333 85 105.333C84.997 99.8929 86.8425 94.6127 90.2341 90.3587C93.6258 86.1046 98.3621 83.1292 103.667 81.9202C103.802 82.5217 104.142 83.0577 104.628 83.437C105.114 83.8162 105.717 84.0152 106.333 84.0002H111.667C112.283 84.0152 112.886 83.8162 113.372 83.437C113.858 83.0577 114.198 82.5217 114.333 81.9202C119.638 83.1292 124.374 86.1046 127.766 90.3587C131.157 94.6127 133.003 99.8929 133 105.333C132.293 105.333 131.614 105.614 131.114 106.115C130.614 106.615 130.333 107.293 130.333 108V113.333C130.333 114.041 130.614 114.719 131.114 115.219C131.614 115.719 132.293 116 133 116H138.333C139.041 116 139.719 115.719 140.219 115.219C140.719 114.719 141 114.041 141 113.333V108C141 107.293 140.719 106.615 140.219 106.115C139.719 105.614 139.041 105.333 138.333 105.333C138.335 98.4775 135.936 91.8373 131.552 86.5663C127.167 81.2954 121.075 77.7267 114.333 76.4802V76.0002C114.333 75.2929 114.052 74.6146 113.552 74.1145C113.052 73.6144 112.374 73.3335 111.667 73.3335H106.333C105.626 73.3335 104.948 73.6144 104.448 74.1145C103.948 74.6146 103.667 75.2929 103.667 76.0002V76.4802C96.9249 77.7267 90.8328 81.2954 86.4484 86.5663C82.0641 91.8373 79.6646 98.4775 79.6667 105.333C78.9594 105.333 78.2811 105.614 77.781 106.115C77.281 106.615 77 107.293 77 108V113.333C77 114.041 77.281 114.719 77.781 115.219C78.2811 115.719 78.9594 116 79.6667 116Z" fill="url(#paint2_linear_98_1819)"/>
<defs>
<linearGradient id="paint0_linear_98_1819" x1="55.667" y1="100" x2="162.334" y2="100" gradientUnits="userSpaceOnUse">
<stop stop-color="#2C8BF2"/>
<stop offset="1" stop-color="#9F56FF"/>
</linearGradient>
<linearGradient id="paint1_linear_98_1819" x1="92.9961" y1="101.377" x2="125.005" y2="101.377" gradientUnits="userSpaceOnUse">
<stop stop-color="#2C8BF2"/>
<stop offset="1" stop-color="#9F56FF"/>
</linearGradient>
<linearGradient id="paint2_linear_98_1819" x1="77" y1="94.6668" x2="141" y2="94.6668" gradientUnits="userSpaceOnUse">
<stop stop-color="#2C8BF2"/>
<stop offset="1" stop-color="#9F56FF"/>
</linearGradient>
</defs>
</svg>
