<svg width="104" height="104" viewBox="0 0 104 104" fill="none" xmlns="http://www.w3.org/2000/svg">
<g clip-path="url(#clip0_98_1445)">
<path d="M74.7321 49.8267C76.2944 52.3331 77.0967 55.1116 77.4001 58.0064C77.8764 62.5768 77.0854 66.9403 74.8682 71.0032C74.2558 72.1288 73.6661 73.2261 74.012 74.6068C74.1849 75.2958 74.5422 75.8203 74.9675 76.3363C75.2567 76.6879 75.5147 76.8609 76.0335 76.6028C77.023 76.1067 77.9501 76.3363 78.7383 77.1245C83.0111 81.4029 87.3037 85.6586 91.5537 89.9626C93.425 91.8594 93.3427 94.7938 91.4686 96.6311C89.6399 98.4258 86.7394 98.4655 84.8738 96.6226C80.5728 92.3754 76.3142 88.0828 72.0386 83.8072C71.2533 83.0219 71.0265 82.0919 71.5283 81.0996C71.7891 80.5835 71.585 80.3425 71.2533 80.0335C69.9491 78.82 68.3925 78.6159 66.6602 79.5685C64.0971 80.9776 61.4149 81.97 58.5031 82.3839C47.681 83.9235 37.2614 77.3088 34.2163 66.7787C32.3933 60.4702 33.1134 54.4198 36.6859 48.8088C37.2614 48.9846 37.8483 49.047 38.4551 49.0413C39.9379 49.0215 41.4207 49.0413 42.9036 49.047C41.4519 50.9495 40.0456 52.8604 39.3425 55.2137C37.7859 60.4277 38.319 65.3781 41.398 69.8748C45.1689 75.3809 50.4794 77.8929 57.1592 77.2691C65.614 76.4809 72.257 69.1943 72.3307 60.7112C72.3647 56.8695 71.1229 53.4388 68.9596 50.3059C70.4764 49.8834 72.0273 50.1868 73.5583 50.0875C73.9609 50.062 74.4146 50.2378 74.7321 49.8267Z" fill="#9F56FF"/>
<path d="M11.4658 80.6574C11.4658 88.0801 11.4544 95.4999 11.4799 102.923C11.4828 103.717 11.3297 104.017 10.4508 104C7.27243 103.943 4.09127 103.96 0.910117 103.992C0.246667 103.997 0 103.85 0.00283526 103.127C0.022682 88.1056 0.022682 73.0844 0 58.0632C0 57.2864 0.266514 57.1304 0.975328 57.1389C4.15648 57.173 7.33764 57.1843 10.516 57.1333C11.3665 57.1191 11.4856 57.4366 11.4828 58.1795C11.4573 65.6731 11.4686 73.1638 11.4658 80.6574Z" fill="#2C8BF2"/>
<path d="M20.1191 11.6955C20.1191 12.719 20.0538 13.7482 20.1304 14.7689C20.465 19.1862 19.6938 23.4363 18.4321 27.6523C17.2753 31.5224 16.2773 35.4436 15.2878 39.3619C15.0411 40.3344 14.7122 40.4138 13.8645 40.0339C7.50784 37.1731 3.39389 32.4042 1.97059 25.5797C-0.439378 13.9892 7.43413 3.14436 19.2118 1.58213C19.9036 1.4914 20.1474 1.62749 20.1389 2.37033C20.1049 5.47777 20.1247 8.58805 20.1247 11.6955H20.1191Z" fill="#2C8BF2"/>
<path d="M18.222 85.3921C18.222 79.5969 18.2418 73.7988 18.1993 68.0035C18.1936 67.0991 18.4687 66.8836 19.3334 66.8949C22.4437 66.946 25.554 66.9375 28.6642 66.8978C29.4638 66.8864 29.6821 67.1416 29.6821 67.927C29.6594 79.6252 29.6566 91.3235 29.6821 103.025C29.6821 103.87 29.3901 104.003 28.6415 103.994C25.4972 103.957 22.3501 103.952 19.2058 103.997C18.4091 104.008 18.1993 103.787 18.2021 102.993C18.2362 97.1273 18.2192 91.2583 18.2192 85.3921H18.222Z" fill="#2C8BF2"/>
<path d="M21.5391 41.6243C20.5638 41.5364 19.6168 41.4457 18.667 41.3663C18.0546 41.3153 17.8448 41.1083 18.0319 40.4278C19.5516 34.8481 21.0373 29.2598 22.523 23.6687C22.6477 23.2037 22.8348 22.9598 23.3792 22.9627C29.2113 22.9825 35.0406 22.9797 40.8727 22.9627C41.4483 22.9627 41.5815 23.1498 41.5277 23.7112C40.6204 32.8322 32.9907 40.476 23.8413 41.406C23.0702 41.4854 22.2961 41.5478 21.542 41.6186L21.5391 41.6243Z" fill="#2C8BF2"/>
<path d="M47.7796 94.7514C47.7796 97.5101 47.7569 100.266 47.7937 103.025C47.8022 103.734 47.6491 104.009 46.8723 103.997C43.6571 103.955 40.4391 103.96 37.2239 103.997C36.5264 104.006 36.3195 103.804 36.3223 103.107C36.3478 97.5215 36.3478 91.936 36.3223 86.3506C36.3195 85.6162 36.5916 85.4745 37.2523 85.4801C40.4674 85.5085 43.6854 85.5113 46.9035 85.4801C47.5981 85.4745 47.8051 85.6871 47.7966 86.3789C47.7625 89.1716 47.7824 91.9644 47.7824 94.7571L47.7796 94.7514Z" fill="#2C8BF2"/>
<path d="M42.8974 49.0471C41.4146 49.0414 39.9317 49.0216 38.4489 49.0414C37.8421 49.0499 37.2552 48.9875 36.6797 48.8089C40.2209 43.11 45.3499 39.7531 51.922 38.6559C56.6115 37.8733 61.1621 38.5226 65.3781 40.7681C69.3418 42.8776 72.6591 45.7242 74.7288 49.8268C74.4113 50.2379 73.9548 50.0621 73.555 50.0876C72.024 50.1868 70.4731 49.8835 68.9562 50.3059C68.7946 50.1216 68.633 49.9373 68.4714 49.753C64.1561 44.8197 58.7692 42.8237 52.2906 43.8926C48.5651 44.5078 45.5257 46.4103 42.9002 49.0471H42.8974Z" fill="#9F56FF"/>
<path d="M23.0644 10.1673C23.0644 7.59008 23.0871 5.01283 23.0503 2.43558C23.0389 1.6729 23.2346 1.49428 24.0171 1.60485C29.5288 2.37037 33.9802 4.94478 37.4477 9.27705C37.9864 9.94901 38.1338 10.3091 37.2067 10.8279C32.778 13.3116 28.389 15.8662 24.0001 18.4208C23.2856 18.8375 23.0474 18.7837 23.0588 17.8962C23.0928 15.319 23.0701 12.7417 23.0701 10.1645H23.0616L23.0644 10.1673Z" fill="#2C8BF2"/>
<path d="M103.975 5.32461C103.975 6.84431 103.955 8.364 103.983 9.8837C103.992 10.4224 103.841 10.6265 103.269 10.6209C100.192 10.5982 97.1191 10.601 94.0428 10.618C93.5438 10.618 93.3623 10.4564 93.3652 9.94891C93.3793 6.87266 93.3822 3.79924 93.3595 0.722988C93.3538 0.161607 93.5381 -0.00283731 94.0882 0.0028332C97.1276 0.02268 100.167 0.0255152 103.206 0.0028332C103.796 -0.00283731 104.006 0.153102 103.989 0.768352C103.949 2.28805 103.975 3.80775 103.975 5.32744V5.32461Z" fill="#9F56FF"/>
<path d="M98.6956 17.1674C100.215 17.1674 101.735 17.1872 103.255 17.156C103.805 17.1447 103.983 17.3205 103.981 17.879C103.958 20.9184 103.952 23.9578 103.981 26.9972C103.986 27.6408 103.725 27.7514 103.167 27.7485C100.164 27.7287 97.1589 27.7258 94.1535 27.7485C93.5553 27.7542 93.3625 27.5671 93.3681 26.9603C93.3937 23.955 93.3993 20.9524 93.3625 17.947C93.354 17.2382 93.6545 17.1418 94.2442 17.1532C95.7271 17.1815 97.2128 17.1617 98.6984 17.1645L98.6956 17.1674Z" fill="#9F56FF"/>
<path d="M103.96 39.4808C103.96 40.9977 103.937 42.5174 103.971 44.0342C103.986 44.6211 103.818 44.8309 103.206 44.8253C100.172 44.7969 97.1356 44.8026 94.1018 44.8224C93.5461 44.8253 93.376 44.6381 93.3788 44.0909C93.3987 41.0572 93.3959 38.0207 93.376 34.9841C93.3732 34.4369 93.5461 34.2441 94.1018 34.2469C97.1356 34.2668 100.172 34.2696 103.206 34.2469C103.813 34.2413 103.994 34.4454 103.98 35.038C103.943 36.5208 103.969 38.0037 103.969 39.4837H103.966L103.96 39.4808Z" fill="#9F56FF"/>
<path d="M103.969 56.7761C103.969 58.2221 103.947 59.6709 103.981 61.1169C103.995 61.7123 103.898 61.9986 103.19 61.9901C100.19 61.9504 97.1901 61.9561 94.1904 61.9901C93.527 61.9986 93.3569 61.7831 93.3625 61.1452C93.3937 58.1824 93.3965 55.2167 93.3625 52.251C93.354 51.5365 93.595 51.3636 94.2726 51.3721C97.2015 51.4033 100.13 51.4118 103.059 51.3693C103.825 51.3579 104.012 51.6159 103.986 52.3332C103.935 53.8132 103.972 55.2961 103.972 56.7789L103.969 56.7761Z" fill="#9F56FF"/>
<path d="M60.1583 103.977C58.5677 103.977 56.98 103.955 55.3894 103.989C54.7855 104 54.5105 103.89 54.5218 103.189C54.5643 100.612 54.5558 98.0319 54.5247 95.4546C54.5161 94.828 54.7543 94.6834 55.3299 94.6863C58.6159 94.7061 61.8992 94.7146 65.1852 94.6834C65.8685 94.6778 66.0046 94.9386 65.9989 95.5539C65.9706 98.0971 65.9621 100.64 66.0018 103.184C66.0131 103.875 65.7523 104.003 65.1399 103.992C63.4812 103.958 61.8198 103.98 60.1583 103.98V103.977Z" fill="#2C8BF2"/>
<path d="M72.9904 21.168C68.0769 21.168 63.1663 21.168 58.2528 21.1623C57.8672 21.1623 57.4674 21.151 57.1017 21.0489C56.407 20.8561 56.0441 20.3203 56.0611 19.6228C56.0781 18.9281 56.4496 18.4065 57.1612 18.2477C57.5355 18.1626 57.9296 18.1456 58.318 18.1456C68.0713 18.1399 77.8274 18.1399 87.5807 18.1456C87.9322 18.1456 88.2923 18.1484 88.6325 18.2222C89.3839 18.3809 89.8148 18.8856 89.8233 19.6398C89.8318 20.3911 89.4292 20.9213 88.6722 21.0829C88.298 21.1623 87.901 21.1652 87.5154 21.168C82.6728 21.1737 77.833 21.1708 72.9904 21.1708V21.168Z" fill="#9F56FF"/>
<path d="M72.8887 1.04629C77.8731 1.04629 82.8575 1.04629 87.8419 1.04346C88.4911 1.04346 89.1234 1.04913 89.5543 1.65304C90.1753 2.5263 89.7131 3.75396 88.6442 3.98929C88.304 4.063 87.9411 4.03465 87.5895 4.03465C77.8334 4.03465 68.0773 4.03465 58.3183 4.03465C58.1057 4.03465 57.8931 4.04316 57.6832 4.03182C56.7193 3.97511 56.0671 3.38821 56.0473 2.56315C56.0275 1.70407 56.7079 1.05196 57.7229 1.05196C62.7782 1.03779 67.8335 1.04629 72.8887 1.04629Z" fill="#9F56FF"/>
<path d="M77.4421 23.748C80.938 23.748 84.431 23.7452 87.9269 23.748C89.2056 23.748 89.8151 24.2414 89.8038 25.2224C89.7925 26.1864 89.146 26.7137 87.8985 26.7137C80.9436 26.7194 73.9916 26.7222 67.0367 26.7137C65.8232 26.7137 65.1371 26.1382 65.1456 25.194C65.1541 24.2357 65.7864 23.748 67.0651 23.7452C70.5241 23.7395 73.9831 23.7452 77.4421 23.7452V23.748Z" fill="#9F56FF"/>
<path d="M77.3399 9.57475C73.9121 9.57475 70.4842 9.57759 67.0593 9.57475C65.8259 9.57475 65.1511 9.04456 65.1398 8.10042C65.1284 7.14777 65.8061 6.5949 67.0224 6.5949C73.9829 6.59206 80.9435 6.59206 87.9041 6.5949C89.1657 6.5949 89.8008 7.09674 89.8093 8.0664C89.8207 9.0474 89.1828 9.57192 87.9381 9.57475C84.4053 9.58042 80.8726 9.57475 77.3399 9.57475Z" fill="#9F56FF"/>
<path d="M27.542 19.7845C31.3866 17.5673 35.2369 15.3558 39.0758 13.1245C39.4699 12.8948 39.6911 12.909 39.8867 13.3456C40.7571 15.2935 41.2703 17.3377 41.534 19.45C41.6275 20.2041 41.0633 20.0028 40.6947 20.0028C37.9417 20.017 35.1858 20.0113 32.4328 20.0113C30.8167 20.0113 29.2006 20.0113 27.5845 20.0113C27.5703 19.9348 27.5562 19.8582 27.5448 19.7845H27.542Z" fill="#2C8BF2"/>
<path d="M81.1961 41.0033C78.9335 41.0033 76.671 41.009 74.4085 41.0005C73.2914 40.9948 72.6563 40.5015 72.6081 39.6368C72.5571 38.7436 73.2545 38.0604 74.3461 38.0547C78.9421 38.0348 83.5352 38.0348 88.1311 38.0547C89.2113 38.0604 89.8039 38.6586 89.7982 39.5715C89.7926 40.493 89.217 40.992 88.0914 40.9977C85.7949 41.009 83.4955 41.0005 81.1989 41.0005L81.1961 41.0033Z" fill="#9F56FF"/>
<path d="M85.3188 58.1596C84.437 58.1596 83.5581 58.1738 82.6763 58.1568C81.5961 58.1341 81.0149 57.5983 81.0205 56.6683C81.0262 55.7809 81.5904 55.2138 82.597 55.1968C84.4625 55.1684 86.331 55.1684 88.1966 55.1968C89.2428 55.211 89.8268 55.8177 89.7957 56.7505C89.7673 57.6351 89.2059 58.137 88.1711 58.1568C87.2213 58.1767 86.2686 58.1596 85.3188 58.1596Z" fill="#9F56FF"/>
<path d="M55.3301 74.4481C50.995 74.3063 47.4169 72.6052 44.5902 69.2993C44.1025 68.7294 44.1535 68.3268 44.5561 67.7371C47.9698 62.7583 54.4795 60.6688 60.099 62.9171C62.5969 63.9151 64.712 65.5227 66.2855 67.7739C66.6683 68.3239 66.7108 68.701 66.26 69.2511C63.6062 72.5031 59.5121 74.4708 55.3273 74.4481H55.3301Z" fill="#9F56FF"/>
<path d="M55.4236 50.2834C57.723 50.1955 60.6915 51.9902 60.7142 55.6873C60.7312 58.6048 58.3099 60.9439 55.3414 60.9212C52.4097 60.9014 50.0678 58.5113 50.0791 55.5569C50.0933 52.6196 52.4636 50.2777 55.4208 50.2805L55.4236 50.2834Z" fill="#9F56FF"/>
</g>
<defs>
<clipPath id="clip0_98_1445">
<rect width="103.989" height="104" fill="white"/>
</clipPath>
</defs>
</svg>
