<svg width="218" height="200" viewBox="0 0 218 200" fill="none" xmlns="http://www.w3.org/2000/svg">
<path fill-rule="evenodd" clip-rule="evenodd" d="M116.259 0.185871C146.21 0.905917 178.044 3.68957 197.554 26.3448C217.756 49.803 221.01 83.0697 213.457 113.051C206.113 142.2 185.349 164.755 158.999 179.38C130.12 195.409 96.6865 207.201 66.0289 194.879C33.3043 181.726 10.2486 151.114 3.04074 116.694C-4.01177 83.0165 5.87465 47.0294 29.8921 22.3141C51.6474 -0.0733336 84.9944 -0.565767 116.259 0.185871Z" fill="#2C8BF2" fill-opacity="0.1"/>
<path d="M137.776 46.6665C136.597 46.6665 135.643 47.6217 135.643 48.7998C135.643 49.7853 135.589 50.7811 135.478 51.7613C135.349 52.9321 136.193 53.9873 137.364 54.1165C137.443 54.1259 137.522 54.13 137.601 54.13C138.674 54.13 139.599 53.3228 139.72 52.2321C139.845 51.0967 139.91 49.9415 139.91 48.7998C139.91 47.6217 138.955 46.6665 137.776 46.6665ZM96.4951 77.0738C98.4576 77.9425 100.518 78.6071 102.618 79.0488C102.766 79.08 102.913 79.0946 103.059 79.0946C104.046 79.0946 104.933 78.405 105.144 77.3998C105.387 76.2467 104.648 75.1155 103.495 74.8738C101.687 74.4936 99.9128 73.9207 98.2221 73.1717C97.1471 72.6957 95.8846 73.18 95.4076 74.2592C94.9305 75.3363 95.4169 76.5957 96.4951 77.0738ZM114.966 79.0894C115.112 79.0894 115.26 79.0748 115.408 79.0436C117.508 78.6009 119.568 77.9342 121.53 77.0634C122.605 76.5853 123.091 75.3238 122.614 74.2478C122.135 73.1707 120.878 72.679 119.797 73.1634C118.11 73.9134 116.335 74.4873 114.528 74.8686C113.374 75.1113 112.637 76.2436 112.88 77.3957C113.093 78.4009 113.978 79.0894 114.966 79.0894ZM82.3159 64.4071C83.3992 66.254 84.6805 67.9957 86.1253 69.5853C86.5461 70.0478 87.1242 70.2832 87.7044 70.2832C88.2159 70.2832 88.7294 70.0998 89.1388 69.728C90.0107 68.9363 90.0742 67.5863 89.2826 66.7144C88.0357 65.3446 86.9305 63.8415 85.9971 62.2488C85.3982 61.2321 84.094 60.8884 83.0773 61.4873C82.0607 62.0832 81.7201 63.3905 82.3159 64.4071ZM130.312 70.2665C130.891 70.2665 131.47 70.0311 131.891 69.5665C133.337 67.9759 134.616 66.2321 135.695 64.3842C136.289 63.3675 135.947 62.0613 134.93 61.4665C133.908 60.8717 132.603 61.2155 132.012 62.2321C131.08 63.8238 129.978 65.3269 128.733 66.6998C127.941 67.5717 128.005 68.9207 128.878 69.7134C129.287 70.0842 129.799 70.2665 130.312 70.2665ZM82.519 51.7634C82.4107 50.7863 82.3565 49.7894 82.3565 48.7998C82.3565 47.6217 81.4013 46.6665 80.2232 46.6665C79.0451 46.6665 78.0898 47.6217 78.0898 48.7998C78.0898 49.9446 78.1534 51.0988 78.2773 52.23C78.3982 53.3217 79.3221 54.13 80.3951 54.13C80.4732 54.13 80.5523 54.1259 80.6315 54.1175C81.8023 53.9884 82.6482 52.9342 82.519 51.7634Z" fill="url(#paint0_linear_98_1852)"/>
<path d="M136.647 114.954L128.668 128.373H89.3299L81.3511 114.954C80.7539 113.952 81.0738 112.65 82.0765 112.053C82.2898 111.925 103.772 98.5703 106.866 77.4077V108.341C104.071 109.258 102.044 111.861 102.044 114.954C102.044 118.816 105.159 121.952 108.999 121.952C112.839 121.952 115.954 118.816 115.954 114.954C115.954 111.861 113.927 109.258 111.133 108.341V77.4077C114.268 98.6131 135.709 111.925 135.922 112.053C136.925 112.65 137.244 113.952 136.647 114.954Z" fill="url(#paint1_linear_98_1852)"/>
<path d="M128.925 132.64H89.0533C87.8798 132.64 86.9199 133.579 86.9199 134.773V142.24C86.9199 143.413 87.8798 144.373 89.0533 144.373H92.053V151.2C92.053 152.378 93.0082 153.333 94.1863 153.333H123.812C124.992 153.333 125.946 152.378 125.946 151.2V144.373H128.925C130.12 144.373 131.059 143.413 131.059 142.24V134.773C131.059 133.579 130.12 132.64 128.925 132.64Z" fill="url(#paint2_linear_98_1852)"/>
<defs>
<linearGradient id="paint0_linear_98_1852" x1="78.0898" y1="62.8806" x2="139.91" y2="62.8806" gradientUnits="userSpaceOnUse">
<stop stop-color="#2C8BF2"/>
<stop offset="1" stop-color="#9F56FF"/>
</linearGradient>
<linearGradient id="paint1_linear_98_1852" x1="81.0508" y1="102.89" x2="136.948" y2="102.89" gradientUnits="userSpaceOnUse">
<stop stop-color="#2C8BF2"/>
<stop offset="1" stop-color="#9F56FF"/>
</linearGradient>
<linearGradient id="paint2_linear_98_1852" x1="86.9199" y1="142.987" x2="131.059" y2="142.987" gradientUnits="userSpaceOnUse">
<stop stop-color="#2C8BF2"/>
<stop offset="1" stop-color="#9F56FF"/>
</linearGradient>
</defs>
</svg>
