<svg width="215" height="58" viewBox="0 0 215 58" fill="none" xmlns="http://www.w3.org/2000/svg">
<path d="M1.28237 51.065C-0.338612 52.5659 -0.435949 55.0966 1.06496 56.7176C2.56586 58.3386 5.09665 58.4359 6.71763 56.935L1.28237 51.065ZM58 4L61.6613 2.38905C61.1404 1.20525 60.0793 0.346341 58.813 0.0834851C57.5466 -0.179371 56.2314 0.186263 55.2824 1.06496L58 4ZM80 54L76.3387 55.611C76.8953 56.8759 78.0655 57.764 79.4336 57.9597C80.8017 58.1554 82.1739 57.631 83.0628 56.5728L80 54ZM122 4L125.727 2.54662C125.213 1.23074 124.044 0.283047 122.651 0.0532815C121.257 -0.176484 119.846 0.34574 118.937 1.42723L122 4ZM141.5 54L137.773 55.4534C138.216 56.5882 139.152 57.4595 140.315 57.8204C141.478 58.1813 142.743 57.9924 143.75 57.3073L141.5 54ZM215 4L168.938 7.40392L194.917 45.5932L215 4ZM6.71763 56.935L60.7176 6.93504L55.2824 1.06496L1.28237 51.065L6.71763 56.935ZM54.3387 5.61095L76.3387 55.611L83.6613 52.389L61.6613 2.38905L54.3387 5.61095ZM83.0628 56.5728L125.063 6.57277L118.937 1.42723L76.9372 51.4272L83.0628 56.5728ZM118.273 5.45338L137.773 55.4534L145.227 52.5466L125.727 2.54662L118.273 5.45338ZM143.75 57.3073L187.484 27.556L182.985 20.9414L139.25 50.6927L143.75 57.3073Z" fill="url(#paint0_linear_54_466)"/>
<defs>
<linearGradient id="paint0_linear_54_466" x1="4" y1="29" x2="215" y2="29" gradientUnits="userSpaceOnUse">
<stop stop-color="#9F56FF"/>
<stop offset="1" stop-color="#2C8BF2"/>
</linearGradient>
</defs>
</svg>
