<svg width="133" height="141" viewBox="0 0 133 141" fill="none" xmlns="http://www.w3.org/2000/svg">
<path opacity="0.3" d="M110.309 101.5L112.629 96.3889C113.499 94.4731 112.983 92.1728 111.474 91.2458L105.466 87.5548C107.094 82.9437 108.232 78.068 108.807 73.0236L115.513 72.5534C117.241 72.4322 118.638 70.6253 118.638 68.5172V62.911C118.638 60.8029 117.241 59.1738 115.513 59.2726L108.983 59.646C108.533 54.5612 107.495 49.7134 105.952 45.19L111.474 41.0944C111.651 40.9635 111.812 40.8141 111.961 40.6518L112.667 42.4865L121.737 31.3329L109.896 30.3226C109.376 29.6499 108.678 29.2453 107.938 29.1574C107.278 29.0791 106.587 29.2506 105.965 29.7024L100.511 33.6664C97.9717 29.5919 94.9412 25.9582 91.5082 22.8775L91.9191 22.0195L100.256 23.7225L101.315 9.92025L88.6538 7.83076C87.1977 7.26942 85.5513 7.98009 84.7502 9.63238L81.6035 16.1223C77.5598 14.1121 80.9108 11.9952 76.3148 11.3825L81.1217 4.3037C81.1217 2.09806 67.0419 0.628174 65.1398 0.628174H60.0484C58.1214 0.628174 56.5542 2.44086 56.5542 4.67698V12.2568C51.7987 12.9833 47.2136 14.497 42.9025 16.6883L51.5988 10.2988C51.5988 10.2988 36.2812 7.39713 34.5385 8.54844L29.8773 11.6282C28.1142 12.793 27.509 15.3421 28.5287 17.3152L32.0544 24.1377C28.1955 27.5741 26.5531 29.5569 23.6325 34.0937L15.4427 32.2448C13.6336 31.1334 11.3119 31.8873 10.2604 33.9356L7.4547 39.4013C6.39607 41.4635 7.02453 44.0303 8.85492 45.1274L15.4581 49.0856C13.6273 54.171 12.3906 59.5828 11.8525 65.1999L3.93049 65.6528C1.79799 65.7747 0.0634766 67.781 0.0634766 70.1336V76.3899C0.0634766 78.5232 1.49119 80.1848 3.34703 80.3656L3.34631 80.3683L12.349 81.8087C13.0944 86.4893 14.3439 90.9304 16.0317 95.0614L8.85492 100.277C7.02465 101.607 6.39607 104.254 7.4547 106.181L10.2604 111.29C11.3119 113.204 27.9974 114.369 27.9974 114.369L22.6999 106.938C25.5989 110.831 28.9703 114.204 32.7109 116.959L28.5288 125.585C27.5091 127.687 28.1145 130.16 29.8774 131.1L34.5386 133.586C34.8331 133.743 35.1418 133.843 35.4553 133.896L35.4368 133.983L49.9785 135.775L51.4008 124.802C53.0926 125.061 54.8119 125.219 56.5544 125.266V134.655C56.5544 136.324 57.4281 137.645 58.6726 138.106L58.6091 138.381L73.0158 140.179L73.3042 122.378C75.9409 121.377 78.4824 120.135 80.9097 118.678L84.7503 126.11C85.2273 127.033 86.0048 127.58 86.8627 127.718L86.8624 127.721L100.786 129.605L96.0172 116.482L94.0929 117.072L90.9199 110.85C94.256 107.537 97.2256 103.755 99.7516 99.6144L105.965 103.339C107.49 104.253 109.434 103.427 110.309 101.5ZM62.5998 96.6908C48.9683 97.9049 37.6623 85.9444 37.6623 69.9482C37.6623 53.9519 48.9683 40.5709 62.5998 40.0724C75.8952 39.5862 86.4349 51.5951 86.4349 66.8844C86.435 82.1735 75.8952 95.5066 62.5998 96.6908ZM120.819 65.9756L130.251 61.5108L120.819 60.3663V65.9756ZM109.24 104.082L120.031 105.537L121.606 101.858L112.667 96.4245L109.24 104.082Z" fill="url(#paint0_linear_98_1355)"/>
<path d="M129.416 61.346L122.923 61.7211C122.476 56.6511 121.445 51.8173 119.91 47.3075L125.401 43.2211C126.901 42.1044 127.414 39.745 126.549 37.9453L124.242 33.1448C123.372 31.3339 121.439 30.7579 119.923 31.8638L114.499 35.819C111.975 31.7571 108.961 28.1352 105.548 25.0648L108.669 18.5281C109.564 16.6527 109.033 14.2785 107.479 13.2192L103.326 10.3869C101.756 9.31605 99.7407 9.97313 98.8284 11.8606L95.6996 18.3333C91.6789 16.3307 87.3335 14.9651 82.7494 14.356V6.88179C82.7494 4.67676 81.2211 2.89001 79.3299 2.89087L74.2676 2.89321C72.3516 2.89407 70.7935 4.70234 70.7935 6.93195V14.49C66.0652 15.2166 61.5064 16.7278 57.2203 18.9148L53.8385 12.2654C52.8447 10.3113 50.637 9.65331 48.9045 10.8022L44.2702 13.8752C42.5174 15.0374 41.9155 17.5795 42.9293 19.5463L46.4346 26.3476C42.5979 29.7758 39.1677 33.8164 36.262 38.3441L29.9191 34.4385C28.1204 33.331 25.8121 34.0838 24.7667 36.1265L21.9773 41.5776C20.9248 43.6343 21.5497 46.1933 23.3694 47.2865L29.9343 51.2303C28.1142 56.3017 26.8845 61.6984 26.3496 67.2995L18.4736 67.7545C16.3535 67.8769 14.6289 69.8781 14.6289 72.2239V78.462C14.6289 80.8076 16.3535 82.5872 18.4736 82.4373L26.5588 81.8653C27.2412 87.268 28.5893 92.3718 30.5046 97.0727L23.3694 102.276C21.5497 103.603 20.9248 106.242 21.9773 108.164L24.7667 113.257C25.8121 115.165 28.1204 115.621 29.9191 114.282L37.1342 108.913C40.0164 112.793 43.3683 116.155 47.0874 118.901L42.9294 127.503C41.9156 129.6 42.5174 132.064 44.2702 133.001L48.9046 135.479C50.6372 136.405 52.8448 135.463 53.8386 133.382L57.9607 124.747C62.0304 126.219 66.3367 127.054 70.7936 127.174V136.536C70.7936 138.766 72.3517 140.374 74.2677 140.129L79.33 139.48C81.2213 139.238 82.7495 137.255 82.7495 135.05V125.792C87.0727 124.669 91.1833 122.9 95.0097 120.596L98.8285 128.005C99.7409 129.775 101.756 130.173 103.326 128.901L107.48 125.535C109.033 124.276 109.564 121.833 108.669 120.073L104.963 112.787C108.28 109.482 111.233 105.709 113.744 101.579L119.923 105.291C121.439 106.202 123.372 105.377 124.242 103.455L126.549 98.3577C127.414 96.4471 126.901 94.1536 125.401 93.2298L119.427 89.5518C121.045 84.953 122.177 80.0908 122.748 75.0606L129.416 74.5888C131.135 74.4672 132.524 72.6649 132.524 70.5628V64.9725C132.524 62.8706 131.135 61.2467 129.416 61.346ZM76.8049 98.6791C63.2517 99.8952 52.0108 87.9737 52.0108 72.0235C52.0108 56.0734 63.2518 42.7261 76.8049 42.2231C90.0243 41.7325 100.504 53.7026 100.504 68.9482C100.504 84.1938 90.0243 97.493 76.8049 98.6791Z" fill="url(#paint1_linear_98_1355)"/>
<defs>
<linearGradient id="paint0_linear_98_1355" x1="173.796" y1="-244.832" x2="-59.9937" y2="-225.688" gradientUnits="userSpaceOnUse">
<stop stop-color="#9F56FF"/>
<stop offset="1" stop-color="#2C8BF2"/>
</linearGradient>
<linearGradient id="paint1_linear_98_1355" x1="171.958" y1="-238.544" x2="-39.9726" y2="-222.567" gradientUnits="userSpaceOnUse">
<stop stop-color="#9F56FF"/>
<stop offset="1" stop-color="#2C8BF2"/>
</linearGradient>
</defs>
</svg>
